<?xml version="1.0" encoding="iso-8859-1"?>
<!-- Generator: Adobe Illustrator 19.0.0, SVG Export Plug-In . SVG Version: 6.00 Build 0)  -->
<svg xmlns="http://www.w3.org/2000/svg" xmlns:xlink="http://www.w3.org/1999/xlink" version="1.1" id="Capa_1" x="0px" y="0px" viewBox="0 0 509.287 509.287" style="enable-background:new 0 0 509.287 509.287;" xml:space="preserve">
<circle style="fill:#FBD303;" cx="254.644" cy="254.644" r="254.644"/>
<rect x="98.67" y="108.842" style="fill:#646B79;" width="311.947" height="250.914"/>
<g>
	<polygon style="fill:#F1F3F7;" points="466.564,123.083 254.644,11.189 42.723,123.083  "/>
	<rect x="77.309" y="143.089" style="fill:#F1F3F7;" width="42.723" height="182.76"/>
</g>
<g>
	<path style="fill:#DEDEDF;" d="M64.085,123.083v11.528c0,4.408,3.73,8.138,8.138,8.138h52.556c4.408,0,8.138-3.73,8.138-8.138   v-11.528H64.085z"/>
	<path style="fill:#DEDEDF;" d="M132.917,345.515v-11.528c0-4.408-3.73-8.138-8.138-8.138H72.223c-4.408,0-8.138,3.73-8.138,8.138   v11.528H132.917z"/>
</g>
<rect x="181.404" y="143.089" style="fill:#F1F3F7;" width="42.723" height="182.76"/>
<g>
	<path style="fill:#DEDEDF;" d="M168.18,123.083v11.528c0,4.408,3.73,8.138,8.138,8.138h52.556c4.408,0,8.138-3.73,8.138-8.138   v-11.528H168.18z"/>
	<path style="fill:#DEDEDF;" d="M237.012,345.515v-11.528c0-4.408-3.73-8.138-8.138-8.138h-52.556c-4.408,0-8.138,3.73-8.138,8.138   v11.528H237.012z"/>
</g>
<rect x="285.16" y="143.089" style="fill:#F1F3F7;" width="42.723" height="182.76"/>
<g>
	<path style="fill:#DEDEDF;" d="M272.275,123.083v11.528c0,4.408,3.73,8.138,8.138,8.138h52.556c4.408,0,8.138-3.73,8.138-8.138   v-11.528H272.275z"/>
	<path style="fill:#DEDEDF;" d="M341.107,345.515v-11.528c0-4.408-3.73-8.138-8.138-8.138h-52.556c-4.408,0-8.138,3.73-8.138,8.138   v11.528H341.107z"/>
</g>
<rect x="389.256" y="143.089" style="fill:#F1F3F7;" width="42.723" height="182.76"/>
<g>
	<path style="fill:#DEDEDF;" d="M376.371,123.083v11.528c0,4.408,3.73,8.138,8.138,8.138h52.556c4.408,0,8.138-3.73,8.138-8.138   v-11.528H376.371z"/>
	<path style="fill:#DEDEDF;" d="M445.203,345.515v-11.528c0-4.408-3.73-8.138-8.138-8.138h-52.556c-4.408,0-8.138,3.73-8.138,8.138   v11.528H445.203z"/>
</g>
<rect x="42.723" y="345.515" style="fill:#F1F3F7;" width="423.841" height="29.838"/>
<circle style="fill:#FCFCFD;" cx="254.644" cy="72.562" r="24.752"/>
<circle style="fill:#4485C5;" cx="254.644" cy="387.899" r="104.095"/>
<path style="fill:#FCFCFD;" d="M227.857,380.779v-22.718c0-14.919,12.207-26.787,26.787-26.787  c14.919,0,26.787,12.207,26.787,26.787v22.718h11.529v-22.718c0-21.362-17.293-38.654-38.654-38.654s-38.654,17.293-38.654,38.654  v22.718H227.857z"/>
<rect x="204.8" y="378.405" style="fill:#FBD303;" width="99.687" height="77.987"/>
<path style="fill:#4F5565;" d="M265.494,419.433c0-6.103-4.747-10.85-10.85-10.85c-6.103,0-10.85,4.747-10.85,10.85  c0,4.747,3.052,8.477,7.121,10.172v10.85c0,2.034,1.695,3.73,3.73,3.73c2.034,0,3.73-1.695,3.73-3.73v-10.85  C262.442,428.249,265.494,424.18,265.494,419.433z"/>
<g>
</g>
<g>
</g>
<g>
</g>
<g>
</g>
<g>
</g>
<g>
</g>
<g>
</g>
<g>
</g>
<g>
</g>
<g>
</g>
<g>
</g>
<g>
</g>
<g>
</g>
<g>
</g>
<g>
</g>
</svg>
