<?xml version="1.0" encoding="iso-8859-1"?>
<!-- Generator: Adobe Illustrator 19.0.0, SVG Export Plug-In . SVG Version: 6.00 Build 0)  -->
<svg xmlns="http://www.w3.org/2000/svg" xmlns:xlink="http://www.w3.org/1999/xlink" version="1.1" id="Capa_1" x="0px" y="0px" viewBox="0 0 509.287 509.287" style="enable-background:new 0 0 509.287 509.287;" xml:space="preserve">
<circle style="fill:#4B5AA7;" cx="254.644" cy="254.644" r="254.644"/>
<circle style="fill:#FBD303;" cx="290.246" cy="167.841" r="142.411"/>
<circle style="fill:#F8B517;" cx="290.246" cy="167.841" r="117.658"/>
<circle style="fill:#FBD303;" cx="290.246" cy="167.841" r="95.279"/>
<path style="fill:#FCFCFD;" d="M328.223,194.967c0-21.023-16.954-37.976-37.976-37.976c-8.816,0-16.275-7.121-16.275-16.275  c0-8.816,7.121-16.275,16.275-16.275c4.408,0,8.816,1.695,11.868,5.086c4.069,4.408,10.85,4.408,15.258,0.339  s4.408-10.85,0.339-15.258c-4.747-4.747-10.511-8.477-16.615-10.172v-7.46c0-6.103-4.747-10.85-10.85-10.85  s-10.85,4.747-10.85,10.85v7.46c-15.597,4.747-27.126,18.988-27.126,36.281c0,21.023,16.954,37.976,37.976,37.976  c8.816,0,16.276,7.121,16.276,16.275c0,8.816-7.121,16.275-16.276,16.275c-4.408,0-8.816-1.695-11.868-5.086  c-4.069-4.408-10.85-4.408-15.258-0.339s-4.408,10.85-0.339,15.258c4.747,4.747,10.511,8.477,16.615,10.172v7.46  c0,6.103,4.747,10.85,10.85,10.85c6.103,0,10.85-4.747,10.85-10.85v-7.46C316.694,226.501,328.223,212.26,328.223,194.967z"/>
<path style="fill:#F7CFA2;" d="M109.181,293.976l21.701-5.764c25.77-6.781,53.234-4.747,77.648,6.442l77.987,35.264  c12.885,5.764,17.632,22.04,9.494,33.568l0,0c-6.103,8.816-17.293,12.207-27.126,8.138L236.334,358.4  c-6.442-2.034-13.224,0.678-16.275,6.781l0,0c-3.391,7.121-0.339,15.597,7.121,18.649l48.148,18.649  c5.425,2.034,11.868,1.695,16.954-1.356l118.675-71.544c10.85-6.442,25.091-4.069,32.89,6.103l0,0  c9.494,11.868,6.442,29.499-6.442,37.637l-140.376,85.785c-7.121,4.408-15.936,5.086-23.735,1.695l-89.176-39.672  c-2.713-1.356-5.764-2.034-9.155-2.034h-65.78V293.976z"/>
<path style="fill:#6EB1E1;" d="M96.975,454.358h28.143V282.109H1.695C9.155,351.958,44.758,412.991,96.975,454.358z"/>
<g>
</g>
<g>
</g>
<g>
</g>
<g>
</g>
<g>
</g>
<g>
</g>
<g>
</g>
<g>
</g>
<g>
</g>
<g>
</g>
<g>
</g>
<g>
</g>
<g>
</g>
<g>
</g>
<g>
</g>
</svg>
