<?xml version="1.0" encoding="iso-8859-1"?>
<!-- Generator: Adobe Illustrator 19.0.0, SVG Export Plug-In . SVG Version: 6.00 Build 0)  -->
<svg xmlns="http://www.w3.org/2000/svg" xmlns:xlink="http://www.w3.org/1999/xlink" version="1.1" id="Capa_1" x="0px" y="0px" viewBox="0 0 509.287 509.287" style="enable-background:new 0 0 509.287 509.287;" xml:space="preserve">
<circle style="fill:#71D456;" cx="254.644" cy="254.644" r="254.644"/>
<path style="fill:#4F5565;" d="M206.495,113.928H62.05c-8.477,0-15.258,6.781-15.258,15.258v250.914  c0,8.477,6.781,15.258,15.258,15.258h144.445c8.477,0,15.258-6.781,15.258-15.258V129.187  C221.754,120.71,214.972,113.928,206.495,113.928z"/>
<rect x="52.217" y="139.02" style="fill:#F1F3F7;" width="164.45" height="223.11"/>
<g>
	<circle style="fill:#646B79;" cx="137.325" cy="377.727" r="12.885"/>
	<path style="fill:#646B79;" d="M149.192,122.405h-29.838c-1.356,0-2.713,1.017-2.713,2.713s1.017,2.713,2.713,2.713h29.838   c1.356,0,2.713-1.017,2.713-2.713S150.887,122.405,149.192,122.405z"/>
</g>
<path style="fill:#4F5565;" d="M447.237,113.928H302.792c-8.477,0-15.258,6.781-15.258,15.258v250.914  c0,8.477,6.781,15.258,15.258,15.258h144.445c8.477,0,15.258-6.781,15.258-15.258V129.187  C462.156,120.71,455.375,113.928,447.237,113.928z"/>
<rect x="292.62" y="139.02" style="fill:#F1F3F7;" width="164.45" height="223.11"/>
<g>
	<circle style="fill:#646B79;" cx="378.066" cy="377.727" r="12.885"/>
	<path style="fill:#646B79;" d="M389.934,122.405h-29.838c-1.356,0-2.713,1.017-2.713,2.713s1.017,2.713,2.713,2.713h29.838   c1.356,0,2.713-1.017,2.713-2.713S391.29,122.405,389.934,122.405z"/>
</g>
<polygon style="fill:#F0582F;" points="381.796,209.208 338.056,165.468 338.056,191.237 127.491,191.237 127.491,227.179   338.056,227.179 338.056,252.609 "/>
<polygon style="fill:#6EB1E1;" points="127.491,300.079 171.232,343.82 171.232,318.05 381.796,318.05 381.796,282.109   171.232,282.109 171.232,256.678 "/>
<g>
</g>
<g>
</g>
<g>
</g>
<g>
</g>
<g>
</g>
<g>
</g>
<g>
</g>
<g>
</g>
<g>
</g>
<g>
</g>
<g>
</g>
<g>
</g>
<g>
</g>
<g>
</g>
<g>
</g>
</svg>
