<?xml version="1.0" encoding="iso-8859-1"?>
<!-- Generator: Adobe Illustrator 19.0.0, SVG Export Plug-In . SVG Version: 6.00 Build 0)  -->
<svg xmlns="http://www.w3.org/2000/svg" xmlns:xlink="http://www.w3.org/1999/xlink" version="1.1" id="Capa_1" x="0px" y="0px" viewBox="0 0 509.287 509.287" style="enable-background:new 0 0 509.287 509.287;" xml:space="preserve">
<circle style="fill:#4F5565;" cx="254.644" cy="254.644" r="254.644"/>
<rect x="68.493" y="212.26" style="fill:#6EB1E1;" width="372.302" height="234.977"/>
<polygon style="fill:#4485C5;" points="254.644,70.188 68.493,212.26 254.644,354.331 440.795,212.26 "/>
<polygon style="fill:#FFFFFF;" points="404.853,239.724 404.853,62.05 104.434,62.05 104.434,239.724 254.644,354.331 "/>
<path style="fill:#F8B517;" d="M272.954,293.976c0-10.172-8.138-18.31-18.31-18.31c-4.408,0-7.799-3.391-7.799-7.799  s3.391-7.799,7.799-7.799c2.034,0,4.069,1.017,5.764,2.374c2.034,2.034,5.425,2.034,7.46,0.339c2.034-2.034,2.034-5.425,0.339-7.46  c-2.374-2.373-5.086-4.069-8.138-5.086v-3.73c0-2.713-2.374-5.086-5.086-5.086c-2.713,0-5.086,2.374-5.086,5.086v3.73  c-7.46,2.374-12.885,9.155-12.885,17.293c0,10.172,8.138,18.31,18.31,18.31c4.408,0,7.799,3.391,7.799,7.799  s-3.391,7.799-7.799,7.799c-2.034,0-4.069-1.017-5.764-2.373c-2.034-2.034-5.425-2.034-7.46-0.339  c-2.034,2.034-2.034,5.425-0.339,7.46c2.374,2.374,5.086,4.069,8.138,5.086v3.73c0,2.713,2.373,5.086,5.086,5.086  s5.086-2.374,5.086-5.086v-3.73C267.189,308.895,272.954,302.114,272.954,293.976z"/>
<rect x="195.306" y="128.509" style="fill:#646B79;" width="118.336" height="95.279"/>
<g>
	<polygon style="fill:#F1F3F7;" points="335.004,133.934 254.644,91.211 174.283,133.934  "/>
	<rect x="187.168" y="141.393" style="fill:#F1F3F7;" width="16.275" height="69.51"/>
</g>
<g>
	<path style="fill:#DEDEDF;" d="M182.421,133.934v4.408c0,1.695,1.356,3.052,3.052,3.052h20.005c1.695,0,3.052-1.356,3.052-3.052   v-4.408H182.421z"/>
	<path style="fill:#DEDEDF;" d="M208.53,218.363v-4.408c0-1.695-1.356-3.052-3.052-3.052h-20.005c-1.695,0-3.052,1.356-3.052,3.052   v4.408H208.53z"/>
</g>
<rect x="226.84" y="141.393" style="fill:#F1F3F7;" width="16.276" height="69.51"/>
<g>
	<path style="fill:#DEDEDF;" d="M221.754,133.934v4.408c0,1.695,1.356,3.052,3.052,3.052h20.005c1.695,0,3.052-1.356,3.052-3.052   v-4.408H221.754z"/>
	<path style="fill:#DEDEDF;" d="M247.862,218.363v-4.408c0-1.695-1.356-3.052-3.052-3.052h-20.005c-1.695,0-3.052,1.356-3.052,3.052   v4.408H247.862z"/>
</g>
<rect x="266.172" y="141.393" style="fill:#F1F3F7;" width="16.276" height="69.51"/>
<g>
	<path style="fill:#DEDEDF;" d="M261.425,133.934v4.408c0,1.695,1.356,3.052,3.052,3.052h20.005c1.695,0,3.052-1.356,3.052-3.052   v-4.408H261.425z"/>
	<path style="fill:#DEDEDF;" d="M287.534,218.363v-4.408c0-1.695-1.356-3.052-3.052-3.052h-20.005c-1.695,0-3.052,1.356-3.052,3.052   v4.408H287.534z"/>
</g>
<rect x="305.844" y="141.393" style="fill:#F1F3F7;" width="16.276" height="69.51"/>
<g>
	<path style="fill:#DEDEDF;" d="M300.758,133.934v4.408c0,1.695,1.356,3.052,3.052,3.052h20.005c1.695,0,3.052-1.356,3.052-3.052   v-4.408H300.758z"/>
	<path style="fill:#DEDEDF;" d="M326.866,218.363v-4.408c0-1.695-1.356-3.052-3.052-3.052h-20.005c-1.695,0-3.052,1.356-3.052,3.052   v4.408H326.866z"/>
</g>
<rect x="174.283" y="218.363" style="fill:#F1F3F7;" width="161.06" height="11.189"/>
<circle style="fill:#FCFCFD;" cx="254.644" cy="114.607" r="9.494"/>
<polygon style="fill:#4485C5;" points="289.568,325.51 219.719,325.51 68.493,447.237 440.795,447.237 "/>
<g>
</g>
<g>
</g>
<g>
</g>
<g>
</g>
<g>
</g>
<g>
</g>
<g>
</g>
<g>
</g>
<g>
</g>
<g>
</g>
<g>
</g>
<g>
</g>
<g>
</g>
<g>
</g>
<g>
</g>
</svg>
