<?xml version="1.0" encoding="iso-8859-1"?>
<!-- Generator: Adobe Illustrator 19.0.0, SVG Export Plug-In . SVG Version: 6.00 Build 0)  -->
<svg xmlns="http://www.w3.org/2000/svg" xmlns:xlink="http://www.w3.org/1999/xlink" version="1.1" id="Capa_1" x="0px" y="0px" viewBox="0 0 509.287 509.287" style="enable-background:new 0 0 509.287 509.287;" xml:space="preserve">
<circle style="fill:#FBD303;" cx="254.644" cy="254.644" r="254.644"/>
<path style="fill:#646B79;" d="M366.877,40.689H142.411c-9.155,0-16.275,7.46-16.275,16.276v395.02  c0,9.155,7.46,16.275,16.275,16.275h224.466c9.155,0,16.276-7.46,16.276-16.275V57.303  C383.152,48.148,376.032,40.689,366.877,40.689z"/>
<rect x="150.887" y="70.866" style="fill:#6EB1E1;" width="207.513" height="367.894"/>
<path style="fill:#4F5565;" d="M272.954,52.556h-36.62c-1.695,0-3.391,1.356-3.391,3.391s1.356,3.391,3.391,3.391h36.959  c1.695,0,3.391-1.356,3.391-3.391S274.988,52.556,272.954,52.556z"/>
<g>
	<path style="fill:#FFFFFF;" d="M257.017,216.328c-1.017-2.713-3.73-4.747-6.781-4.747c-3.052,0-5.764,1.695-6.781,4.747   l-27.465,71.205c-1.356,3.73,0.339,7.799,4.069,9.494c1.017,0.339,1.695,0.339,2.713,0.339c3.052,0,5.764-1.695,6.781-4.747   l6.442-16.615h28.143l6.442,16.615c1.356,3.73,5.764,5.425,9.494,4.069c3.73-1.356,5.425-5.764,4.069-9.494L257.017,216.328z    M241.759,261.764l8.477-22.379l8.477,22.379H241.759z"/>
	<path style="fill:#FFFFFF;" d="M194.628,211.921H175.64c-4.069,0-7.121,3.391-7.121,7.121v35.942v35.264   c0,4.069,3.391,7.121,7.121,7.121c4.069,0,7.121-3.391,7.121-7.121v-27.804h11.528c13.902,0,25.091-11.189,25.091-25.091   C219.719,223.11,208.53,211.921,194.628,211.921z M194.628,247.862h-11.528v-21.701h11.528c6.103,0,10.85,4.747,10.85,10.85   C205.478,243.115,200.392,247.862,194.628,247.862z"/>
	<path style="fill:#FFFFFF;" d="M337.377,212.599c-3.391-2.034-7.799-1.017-9.833,2.374l-19.327,31.534l-19.327-31.534   c-2.034-3.391-6.442-4.408-9.833-2.374c-3.391,2.034-4.408,6.442-2.374,9.833l24.413,40.011v28.482   c0,4.069,3.391,7.121,7.121,7.121c4.069,0,7.121-3.391,7.121-7.121v-28.482l24.413-40.011   C341.785,219.041,340.768,214.633,337.377,212.599z"/>
</g>
<rect x="212.938" y="333.648" style="fill:#4E97C4;" width="83.073" height="34.925"/>
<g>
</g>
<g>
</g>
<g>
</g>
<g>
</g>
<g>
</g>
<g>
</g>
<g>
</g>
<g>
</g>
<g>
</g>
<g>
</g>
<g>
</g>
<g>
</g>
<g>
</g>
<g>
</g>
<g>
</g>
</svg>
