<?xml version="1.0" encoding="iso-8859-1"?>
<!-- Generator: Adobe Illustrator 19.0.0, SVG Export Plug-In . SVG Version: 6.00 Build 0)  -->
<svg xmlns="http://www.w3.org/2000/svg" xmlns:xlink="http://www.w3.org/1999/xlink" version="1.1" id="Capa_1" x="0px" y="0px" viewBox="0 0 509.287 509.287" style="enable-background:new 0 0 509.287 509.287;" xml:space="preserve">
<circle style="fill:#4B5AA7;" cx="254.644" cy="254.644" r="254.644"/>
<path style="fill:#DDDEE6;" d="M109.86,230.909v-19.327c0-80.021,64.763-145.123,144.784-145.123s144.784,65.102,144.784,144.784  v19.327h30.177v-19.327c0-96.636-78.665-174.962-174.962-174.962c-96.636,0-174.962,78.665-174.962,174.962v19.327L109.86,230.909  L109.86,230.909z"/>
<g>
	<path style="fill:#F1F3F7;" d="M119.015,224.466H79.004c-11.189,0-20.005,8.816-20.005,20.005v129.865   c0,11.189,8.816,20.005,20.005,20.005h40.011c11.189,0,20.005-8.816,20.005-20.005V244.472   C139.02,233.282,130.204,224.466,119.015,224.466z"/>
	<path style="fill:#F1F3F7;" d="M390.273,394.342h40.011c11.189,0,20.005-8.816,20.005-20.005V244.472   c0-11.189-8.816-20.005-20.005-20.005h-40.011c-11.189,0-20.005,8.816-20.005,20.005v129.865   C370.268,385.526,379.083,394.342,390.273,394.342z"/>
</g>
<g>
	<path style="fill:#4485C5;" d="M26.448,287.195v44.419c0,17.971,14.58,32.551,32.551,32.551V254.644   C41.028,254.644,26.448,269.224,26.448,287.195z"/>
	<path style="fill:#4485C5;" d="M482.84,331.613v-44.419c0-17.971-14.58-32.551-32.551-32.551v109.181   C468.26,364.164,482.84,349.584,482.84,331.613z"/>
</g>
<g>
</g>
<g>
</g>
<g>
</g>
<g>
</g>
<g>
</g>
<g>
</g>
<g>
</g>
<g>
</g>
<g>
</g>
<g>
</g>
<g>
</g>
<g>
</g>
<g>
</g>
<g>
</g>
<g>
</g>
</svg>
