<?xml version="1.0" encoding="iso-8859-1"?>
<!-- Generator: Adobe Illustrator 19.0.0, SVG Export Plug-In . SVG Version: 6.00 Build 0)  -->
<svg xmlns="http://www.w3.org/2000/svg" xmlns:xlink="http://www.w3.org/1999/xlink" version="1.1" id="Capa_1" x="0px" y="0px" viewBox="0 0 509.287 509.287" style="enable-background:new 0 0 509.287 509.287;" xml:space="preserve">
<circle style="fill:#F7CFA2;" cx="254.644" cy="254.644" r="254.644"/>
<path style="fill:#F0582F;" d="M442.829,252.948l-5.764-139.359c-1.017-22.718-18.988-40.689-41.706-41.706l-139.02-5.425  c-12.207-0.339-23.735,4.069-32.551,12.546L35.264,267.868c-16.954,16.954-16.954,44.419,0,61.372l144.784,144.784  c16.954,16.954,44.419,16.954,61.372,0L430.283,285.16C438.76,276.683,443.507,264.816,442.829,252.948z M364.503,144.784  c-10.85-10.85-10.85-28.482,0-39.672c10.85-10.85,28.482-10.85,39.672,0c10.85,10.85,10.85,28.482,0,39.672  C392.985,155.634,375.354,155.634,364.503,144.784z"/>
<circle style="fill:#FBD303;" cx="232.265" cy="277.022" r="117.997"/>
<path style="fill:#FCFCFD;" d="M241.081,329.579c16.954-16.954,16.954-44.419,0-61.711c-7.121-7.121-7.121-18.988,0-26.448  c7.121-7.121,18.988-7.121,26.448,0c3.73,3.73,5.764,8.477,5.425,13.902c-0.339,6.781,5.086,12.546,12.207,12.885  c6.781,0.339,12.546-5.086,12.885-12.207c0.339-7.799-1.695-15.258-5.086-22.04l6.103-6.103c4.747-4.747,4.747-12.885,0-17.632  c-4.747-4.747-12.885-4.747-17.632,0l-6.103,6.103c-16.615-8.816-37.637-6.442-51.539,7.46c-16.954,16.954-16.954,44.419,0,61.711  c7.121,7.121,7.121,18.988,0,26.448c-7.121,7.121-18.988,7.121-26.448,0c-3.73-3.73-5.764-8.477-5.425-13.902  c0.339-6.781-5.086-12.546-12.207-12.885c-6.781-0.339-12.546,5.086-12.885,12.207c-0.339,7.799,1.695,15.258,5.086,22.04  l-6.103,6.103c-4.747,4.747-4.747,12.885,0,17.632s12.885,4.747,17.632,0l6.103-6.103  C206.156,345.854,227.179,343.481,241.081,329.579z"/>
<g>
</g>
<g>
</g>
<g>
</g>
<g>
</g>
<g>
</g>
<g>
</g>
<g>
</g>
<g>
</g>
<g>
</g>
<g>
</g>
<g>
</g>
<g>
</g>
<g>
</g>
<g>
</g>
<g>
</g>
</svg>
