<?xml version="1.0" encoding="iso-8859-1"?>
<!-- Generator: Adobe Illustrator 19.0.0, SVG Export Plug-In . SVG Version: 6.00 Build 0)  -->
<svg xmlns="http://www.w3.org/2000/svg" xmlns:xlink="http://www.w3.org/1999/xlink" version="1.1" id="Capa_1" x="0px" y="0px" viewBox="0 0 509.287 509.287" style="enable-background:new 0 0 509.287 509.287;" xml:space="preserve">
<circle style="fill:#4F5565;" cx="254.644" cy="254.644" r="254.644"/>
<path style="fill:#FCFCFD;" d="M362.808,47.47H145.801c-8.816,0-15.936,7.121-15.936,15.936v382.135  c0,8.816,7.121,15.936,15.936,15.936h217.007c8.816,0,15.936-7.121,15.936-15.936V63.407  C378.744,54.591,371.624,47.47,362.808,47.47z"/>
<rect x="153.939" y="76.63" style="fill:#4485C5;" width="200.731" height="356.026"/>
<path style="fill:#DEDEDF;" d="M271.936,58.999h-35.603c-1.695,0-3.052,1.356-3.052,3.052c0,1.695,1.356,3.052,3.052,3.052h35.603  c1.695,0,3.052-1.356,3.052-3.052C275.327,60.694,273.971,58.999,271.936,58.999z"/>
<path style="fill:#FBD303;" d="M269.563,286.856c0-24.752-20.344-45.097-45.097-45.097c-10.511,0-19.327-8.816-19.327-19.327  c0-10.511,8.816-19.327,19.327-19.327c5.425,0,10.511,2.034,14.241,6.103c4.747,5.086,13.224,5.425,18.31,0.678  c5.086-4.747,5.425-13.224,0.678-18.31c-5.425-5.764-12.546-10.172-20.005-12.207v-9.155c0-7.121-5.764-12.885-12.885-12.885  c-7.121,0-12.885,5.764-12.885,12.885v8.816c-18.649,5.425-32.212,22.718-32.212,43.401c0,24.752,20.344,45.097,45.097,45.097  c10.511,0,19.327,8.816,19.327,19.327s-8.816,19.327-19.327,19.327c-5.425,0-10.511-2.034-14.241-6.103  c-4.747-5.086-13.224-5.425-18.31-0.678c-5.086,4.747-5.425,13.224-0.678,18.31c5.425,5.764,12.546,10.172,20.005,12.207v9.155  c0,7.121,5.764,12.885,12.885,12.885c7.121,0,12.885-5.764,12.885-12.885v-8.816C256,324.493,269.563,307.2,269.563,286.856z"/>
<polygon style="fill:#F0582F;" points="487.926,254.644 411.634,178.013 411.634,205.817 293.637,205.817 293.637,303.47   411.634,303.47 411.634,331.274 "/>
<g>
</g>
<g>
</g>
<g>
</g>
<g>
</g>
<g>
</g>
<g>
</g>
<g>
</g>
<g>
</g>
<g>
</g>
<g>
</g>
<g>
</g>
<g>
</g>
<g>
</g>
<g>
</g>
<g>
</g>
</svg>
