<?xml version="1.0" encoding="iso-8859-1"?>
<!-- Generator: Adobe Illustrator 19.0.0, SVG Export Plug-In . SVG Version: 6.00 Build 0)  -->
<svg xmlns="http://www.w3.org/2000/svg" xmlns:xlink="http://www.w3.org/1999/xlink" version="1.1" id="Capa_1" x="0px" y="0px" viewBox="0 0 509.287 509.287" style="enable-background:new 0 0 509.287 509.287;" xml:space="preserve">
<circle style="fill:#FBD303;" cx="254.644" cy="254.644" r="254.644"/>
<polygon style="fill:#F7CFA2;" points="136.985,305.166 273.293,143.428 455.375,143.428 455.375,307.539 360.434,307.539   252.609,408.583 "/>
<path style="fill:#FFE4CA;" d="M380.44,269.563L254.644,143.428H53.913v164.111h86.803l97.653,97.653  c8.816,8.816,23.057,8.816,31.534,0c8.816-8.816,8.816-23.057,0-31.534l-74.596-74.596l4.069-4.069l80.699,80.699  c8.816,8.816,23.057,8.816,31.534,0c8.816-8.816,8.816-23.057,0-31.534l-79.682-80.021l4.069-4.069l86.124,86.125  c8.816,8.816,23.057,8.816,31.534,0c8.816-8.816,8.816-23.057,0-31.534l-85.107-85.785l4.069-4.069l75.952,75.952  c8.816,8.816,23.057,8.816,31.534,0C389.256,292.281,389.256,278.04,380.44,269.563z"/>
<path style="fill:#646B79;" d="M0,254.644c0,31.534,5.764,61.711,16.275,89.515h65.102V143.428H25.77  C9.155,176.996,0,214.633,0,254.644z"/>
<path style="fill:#F7CFA2;" d="M213.616,203.105l59.677-59.677l31.534,31.534l-59.338,59.677c-8.816,8.816-23.057,8.816-31.534,0  C204.8,226.162,204.8,211.921,213.616,203.105z"/>
<path style="fill:#646B79;" d="M427.91,344.159h65.102c10.511-27.804,16.276-57.981,16.276-89.515  c0-40.011-9.155-77.648-25.43-111.216H427.91C427.91,143.428,427.91,344.159,427.91,344.159z"/>
<g>
	<circle style="fill:#F7CFA2;" cx="239.046" cy="392.307" r="21.362"/>
	<circle style="fill:#F7CFA2;" cx="204.122" cy="368.233" r="21.362"/>
	<circle style="fill:#F7CFA2;" cx="173.944" cy="338.734" r="21.362"/>
	<circle style="fill:#F7CFA2;" cx="142.072" cy="310.591" r="21.362"/>
</g>
<g>
</g>
<g>
</g>
<g>
</g>
<g>
</g>
<g>
</g>
<g>
</g>
<g>
</g>
<g>
</g>
<g>
</g>
<g>
</g>
<g>
</g>
<g>
</g>
<g>
</g>
<g>
</g>
<g>
</g>
</svg>
