<?xml version="1.0" encoding="iso-8859-1"?>
<!-- Generator: Adobe Illustrator 19.0.0, SVG Export Plug-In . SVG Version: 6.00 Build 0)  -->
<svg xmlns="http://www.w3.org/2000/svg" xmlns:xlink="http://www.w3.org/1999/xlink" version="1.1" id="Capa_1" x="0px" y="0px" viewBox="0 0 509.287 509.287" style="enable-background:new 0 0 509.287 509.287;" xml:space="preserve">
<circle style="fill:#886C60;" cx="254.644" cy="254.644" r="254.644"/>
<path style="fill:#DEDEDF;" d="M377.388,50.522H131.899c-8.477,0-15.258,6.781-15.258,15.258v378.066  c0,8.477,6.781,15.258,15.258,15.258h245.828c8.477,0,15.258-6.781,15.258-15.258V65.78  C392.646,57.303,385.865,50.522,377.388,50.522z"/>
<rect x="136.985" y="68.832" style="fill:#F1F3F7;" width="234.978" height="326.188"/>
<circle style="fill:#BDBDBE;" cx="254.644" cy="426.215" r="19.666"/>
<path style="fill:#414753;" d="M330.935,128.848H178.352c-5.425,0-10.172,4.408-10.172,10.172v29.838  c0,5.425,4.408,10.172,10.172,10.172h152.583c5.425,0,10.172-4.408,10.172-10.172V139.02  C341.107,133.595,336.36,128.848,330.935,128.848z"/>
<rect x="181.404" y="143.767" style="fill:#333842;" width="146.479" height="20.005"/>
<polygon style="fill:#71D456;" points="196.323,153.939 149.192,263.799 360.095,263.799 312.964,153.939 "/>
<path style="fill:#FCFCFD;" d="M207.174,153.939l-22.379,63.068c15.597,0,26.109,10.85,23.057,26.109h93.923  c-3.052-15.258,7.121-26.109,23.057-26.109l-22.379-63.068H207.174L207.174,153.939z"/>
<g>
	<path style="fill:#71D456;" d="M225.823,153.939c-7.46,4.069-13.224,9.494-14.919,16.275   c-4.747,16.615,14.241,33.229,44.079,33.229c29.499,0,48.826-16.615,44.079-33.229c-2.034-6.781-7.799-12.546-14.919-16.275   H225.823z"/>
	<path style="fill:#71D456;" d="M254.644,235.995c-8.138,0-14.241-5.764-13.902-12.207c0.339-6.103,6.781-10.85,13.902-10.85   c7.121,0,13.563,4.747,13.902,10.85C268.885,230.23,262.781,235.995,254.644,235.995z"/>
</g>
<path style="fill:#FCFCFD;" d="M240.742,182.421c10.85,0,19.327-5.764,18.988-11.868c0-2.713,3.052-4.747,7.46-4.747  c4.069,0,7.799,2.034,8.138,4.747c0.339,1.356-0.678,2.713-2.034,3.391c-2.034,1.356-1.695,3.391,0.339,4.747  c2.374,1.356,5.764,1.356,7.799,0s3.73-3.391,4.069-5.425h3.73c3.052,0,4.747-1.356,4.408-3.391  c-0.339-1.695-3.052-3.052-5.764-3.052h-3.391c-3.052-4.408-9.833-7.121-17.632-7.121c-9.155,0-16.954,4.408-16.954,10.511  c0,2.713-3.73,4.747-8.138,4.747c-4.408,0-7.799-2.374-7.121-4.747c0.339-1.356,1.356-2.374,2.713-3.391  c2.034-1.017,2.374-3.052,0.678-4.069c-1.695-1.017-4.747-1.356-6.781,0c-2.374,1.356-4.408,2.713-5.425,4.408h-3.391  c-2.713,0-5.425,1.356-5.764,3.052c-0.339,1.695,1.356,3.391,4.408,3.391h3.73C225.144,178.691,231.926,182.421,240.742,182.421z"/>
<g>
	<rect x="168.519" y="307.2" style="fill:#414753;" width="7.121" height="41.028"/>
	<rect x="190.898" y="307.2" style="fill:#414753;" width="7.121" height="41.028"/>
	<rect x="240.742" y="307.2" style="fill:#414753;" width="7.121" height="41.028"/>
	<rect x="227.518" y="307.2" style="fill:#414753;" width="7.121" height="41.028"/>
	<rect x="269.224" y="307.2" style="fill:#414753;" width="7.121" height="41.028"/>
	<rect x="293.976" y="307.2" style="fill:#414753;" width="7.121" height="41.028"/>
	<rect x="333.648" y="307.2" style="fill:#414753;" width="7.121" height="41.028"/>
	<rect x="182.082" y="307.2" style="fill:#414753;" width="3.391" height="41.028"/>
	<rect x="219.38" y="307.2" style="fill:#414753;" width="3.391" height="41.028"/>
	<rect x="263.121" y="307.2" style="fill:#414753;" width="3.391" height="41.028"/>
	<rect x="312.964" y="307.2" style="fill:#414753;" width="3.391" height="41.028"/>
	<rect x="304.487" y="307.2" style="fill:#414753;" width="3.391" height="41.028"/>
	<rect x="286.517" y="307.2" style="fill:#414753;" width="3.391" height="41.028"/>
	<rect x="325.171" y="307.2" style="fill:#414753;" width="3.391" height="41.028"/>
	<rect x="213.277" y="307.2" style="fill:#414753;" width="3.391" height="41.028"/>
	<rect x="201.409" y="307.2" style="fill:#414753;" width="3.391" height="41.028"/>
	<rect x="250.575" y="307.2" style="fill:#414753;" width="3.391" height="41.028"/>
</g>
<g>
</g>
<g>
</g>
<g>
</g>
<g>
</g>
<g>
</g>
<g>
</g>
<g>
</g>
<g>
</g>
<g>
</g>
<g>
</g>
<g>
</g>
<g>
</g>
<g>
</g>
<g>
</g>
<g>
</g>
</svg>
