<?xml version="1.0" encoding="iso-8859-1"?>
<!-- Generator: Adobe Illustrator 19.0.0, SVG Export Plug-In . SVG Version: 6.00 Build 0)  -->
<svg xmlns="http://www.w3.org/2000/svg" xmlns:xlink="http://www.w3.org/1999/xlink" version="1.1" id="Capa_1" x="0px" y="0px" viewBox="0 0 509.287 509.287" style="enable-background:new 0 0 509.287 509.287;" xml:space="preserve">
<circle style="fill:#71D456;" cx="254.644" cy="254.644" r="254.644"/>
<path style="fill:#646B79;" d="M374.336,40.35H136.985c-8.138,0-14.58,6.442-14.58,14.58v399.428c0,8.138,6.442,14.58,14.58,14.58  h237.012c8.138,0,14.58-6.442,14.58-14.58V54.93C388.917,46.792,382.135,40.35,374.336,40.35z"/>
<rect x="129.187" y="79.343" style="fill:#6EB1E1;" width="252.609" height="338.056"/>
<g>
	<circle style="fill:#4F5565;" cx="255.661" cy="442.151" r="18.988"/>
	<path style="fill:#4F5565;" d="M277.022,56.286H233.96c-2.034,0-3.73,1.695-3.73,3.73c0,2.034,1.695,3.73,3.73,3.73h43.062   c2.034,0,3.73-1.695,3.73-3.73C280.752,57.981,279.057,56.286,277.022,56.286z"/>
</g>
<g>
	<path style="fill:#FCFCFD;" d="M246.845,277.701c0-22.718-18.31-41.028-41.028-41.028c-9.833,0-17.632-7.799-17.632-17.632   c0-9.833,7.799-17.632,17.632-17.632c4.747,0,9.494,2.034,12.885,5.425c4.408,4.747,11.868,5.086,16.615,0.339   c4.747-4.408,5.086-11.868,0.339-16.615c-5.086-5.425-11.189-9.155-17.971-11.189v-7.799c0-6.442-5.086-11.868-11.868-11.868   c-6.781,0-11.868,5.086-11.868,11.868v8.138c-16.954,5.086-29.16,20.683-29.16,39.332c0,22.718,18.31,41.028,41.028,41.028   c9.833,0,17.632,7.799,17.632,17.632s-7.799,17.632-17.632,17.632c-4.747,0-9.494-2.034-12.885-5.425   c-4.408-4.747-11.868-5.086-16.615-0.339c-4.747,4.408-5.086,11.868-0.339,16.615c5.086,5.425,11.189,9.155,17.971,11.189v8.138   c0,6.442,5.086,11.868,11.868,11.868c6.781,0,11.868-5.086,11.868-11.868v-8.138C234.638,311.947,246.845,296.011,246.845,277.701z   "/>
	<path style="fill:#FCFCFD;" d="M353.653,137.325c-36.281,0.339-65.78,30.177-65.78,66.797v39.672h20.005v-39.672   c0-28.143,25.091-50.861,54.252-46.114c22.718,3.73,38.993,24.413,38.993,47.47v1.356c0,5.425,4.408,10.172,10.172,10.172   c5.425,0,10.172-4.408,10.172-10.172v-1.017C421.468,168.519,390.951,136.646,353.653,137.325z"/>
</g>
<path style="fill:#FBD303;" d="M424.858,239.724H284.821c-9.155,0-16.276,7.46-16.276,16.276v102.061  c0,9.155,7.46,16.276,16.276,16.276h140.037c9.155,0,16.275-7.46,16.275-16.276V256  C441.134,246.845,433.674,239.724,424.858,239.724z"/>
<path style="fill:#4F5565;" d="M373.658,310.591c0-10.511-8.477-18.988-18.649-18.988c-10.511,0-18.988,8.477-18.988,18.988  c0,8.138,5.086,14.919,12.546,17.632v18.649c0,3.391,2.713,6.442,6.442,6.442c3.391,0,6.442-2.713,6.442-6.442v-18.649  C368.233,325.51,373.658,318.728,373.658,310.591z"/>
<g>
</g>
<g>
</g>
<g>
</g>
<g>
</g>
<g>
</g>
<g>
</g>
<g>
</g>
<g>
</g>
<g>
</g>
<g>
</g>
<g>
</g>
<g>
</g>
<g>
</g>
<g>
</g>
<g>
</g>
</svg>
