<?xml version="1.0" encoding="iso-8859-1"?>
<!-- Generator: Adobe Illustrator 19.0.0, SVG Export Plug-In . SVG Version: 6.00 Build 0)  -->
<svg xmlns="http://www.w3.org/2000/svg" xmlns:xlink="http://www.w3.org/1999/xlink" version="1.1" id="Capa_1" x="0px" y="0px" viewBox="0 0 509.287 509.287" style="enable-background:new 0 0 509.287 509.287;" xml:space="preserve">
<circle style="fill:#EE4A68;" cx="254.644" cy="254.644" r="254.644"/>
<path style="fill:#DEDEDF;" d="M371.285,50.522H138.003c-6.103,0-11.189,5.086-11.189,11.189v386.204  c0,6.103,5.086,11.189,11.189,11.189h233.282c6.103,0,11.189-5.086,11.189-11.189V61.711  C382.474,55.269,377.388,50.522,371.285,50.522z"/>
<rect x="148.175" y="85.446" style="fill:#FCFCFD;" width="212.938" height="253.626"/>
<g>
	<path style="fill:#BDBDBE;" d="M203.105,353.992h-51.2c-2.034,0-3.73,1.695-3.73,3.73v12.885c0,2.034,1.695,3.73,3.73,3.73h51.2   c2.034,0,3.73-1.695,3.73-3.73v-12.885C207.174,355.687,205.478,353.992,203.105,353.992z"/>
	<path style="fill:#BDBDBE;" d="M280.413,353.992h-51.539c-2.034,0-3.73,1.695-3.73,3.73v12.885c0,2.034,1.695,3.73,3.73,3.73h51.2   c2.034,0,3.73-1.695,3.73-3.73v-12.885C284.143,355.687,282.448,353.992,280.413,353.992z"/>
	<path style="fill:#BDBDBE;" d="M357.383,353.992h-51.2c-2.034,0-3.73,1.695-3.73,3.73v12.885c0,2.034,1.695,3.73,3.73,3.73h51.2   c2.034,0,3.73-1.695,3.73-3.73v-12.885C361.113,355.687,359.417,353.992,357.383,353.992z"/>
	<path style="fill:#BDBDBE;" d="M203.105,386.204h-51.2c-2.034,0-3.73,1.695-3.73,3.73v12.885c0,2.034,1.695,3.73,3.73,3.73h51.2   c2.034,0,3.73-1.695,3.73-3.73v-12.885C207.174,387.899,205.478,386.204,203.105,386.204z"/>
	<path style="fill:#BDBDBE;" d="M280.413,386.204h-51.539c-2.034,0-3.73,1.695-3.73,3.73v12.885c0,2.034,1.695,3.73,3.73,3.73h51.2   c2.034,0,3.73-1.695,3.73-3.73v-12.885C284.143,387.899,282.448,386.204,280.413,386.204z"/>
	<path style="fill:#BDBDBE;" d="M357.383,386.204h-51.2c-2.034,0-3.73,1.695-3.73,3.73v12.885c0,2.034,1.695,3.73,3.73,3.73h51.2   c2.034,0,3.73-1.695,3.73-3.73v-12.885C361.113,387.899,359.417,386.204,357.383,386.204z"/>
	<path style="fill:#BDBDBE;" d="M203.105,418.416h-51.2c-2.034,0-3.73,1.695-3.73,3.73v12.885c0,2.034,1.695,3.73,3.73,3.73h51.2   c2.034,0,3.73-1.695,3.73-3.73v-12.885C207.174,420.111,205.478,418.416,203.105,418.416z"/>
	<path style="fill:#BDBDBE;" d="M280.413,418.416h-51.539c-2.034,0-3.73,1.695-3.73,3.73v12.885c0,2.034,1.695,3.73,3.73,3.73h51.2   c2.034,0,3.73-1.695,3.73-3.73v-12.885C284.143,420.111,282.448,418.416,280.413,418.416z"/>
	<path style="fill:#BDBDBE;" d="M357.383,418.416h-51.2c-2.034,0-3.73,1.695-3.73,3.73v12.885c0,2.034,1.695,3.73,3.73,3.73h51.2   c2.034,0,3.73-1.695,3.73-3.73v-12.885C361.113,420.111,359.417,418.416,357.383,418.416z"/>
</g>
<path style="fill:#646B79;" d="M278.718,67.136H230.57c-2.034,0-3.391,1.695-3.391,3.391c0,2.034,1.695,3.391,3.391,3.391h48.148  c2.034,0,3.391-1.695,3.391-3.391C282.109,68.832,280.752,67.136,278.718,67.136z"/>
<rect x="166.824" y="278.718" style="fill:#FBD303;" width="29.499" height="32.212"/>
<rect x="215.65" y="170.554" style="fill:#71D456;" width="29.499" height="140.376"/>
<rect x="264.138" y="234.638" style="fill:#6EB1E1;" width="29.499" height="76.291"/>
<rect x="312.964" y="121.727" style="fill:#F0582F;" width="29.499" height="189.203"/>
<g>
</g>
<g>
</g>
<g>
</g>
<g>
</g>
<g>
</g>
<g>
</g>
<g>
</g>
<g>
</g>
<g>
</g>
<g>
</g>
<g>
</g>
<g>
</g>
<g>
</g>
<g>
</g>
<g>
</g>
</svg>
