<?xml version="1.0" encoding="iso-8859-1"?>
<!-- Generator: Adobe Illustrator 19.0.0, SVG Export Plug-In . SVG Version: 6.00 Build 0)  -->
<svg xmlns="http://www.w3.org/2000/svg" xmlns:xlink="http://www.w3.org/1999/xlink" version="1.1" id="Capa_1" x="0px" y="0px" viewBox="0 0 509.287 509.287" style="enable-background:new 0 0 509.287 509.287;" xml:space="preserve">
<circle style="fill:#FBD303;" cx="254.644" cy="254.644" r="254.644"/>
<path style="fill:#414753;" d="M448.593,72.562H60.694c-6.781,0-12.546,5.425-12.546,12.546v285.16  c0,6.781,5.425,12.546,12.546,12.546h387.899c6.781,0,12.546-5.425,12.546-12.546V85.107  C461.139,77.987,455.375,72.562,448.593,72.562z"/>
<rect x="68.493" y="93.584" style="fill:#F1F3F7;" width="372.302" height="268.207"/>
<path style="fill:#414753;" d="M329.918,180.048H179.37c-5.425,0-9.833,4.408-9.833,9.833v29.499c0,5.425,4.408,9.833,9.833,9.833  h150.209c5.425,0,9.833-4.408,9.833-9.833v-29.499C339.751,184.456,335.343,180.048,329.918,180.048z"/>
<rect x="182.421" y="194.967" style="fill:#333842;" width="144.445" height="19.666"/>
<polygon style="fill:#71D456;" points="197.34,204.8 150.548,312.964 358.739,312.964 311.947,204.8 "/>
<path style="fill:#FCFCFD;" d="M207.852,204.8l-22.04,62.05c15.597,0,25.77,10.85,22.718,25.77h92.567  c-3.052-14.919,7.121-25.77,22.718-25.77l-22.04-62.05H207.852z"/>
<g>
	<path style="fill:#71D456;" d="M226.162,204.8c-7.46,4.069-12.885,9.494-14.919,16.275c-4.747,16.276,14.241,32.551,43.401,32.551   c29.16,0,48.148-16.276,43.401-32.551c-2.034-6.781-7.46-12.207-14.919-16.275H226.162z"/>
	<path style="fill:#71D456;" d="M254.644,285.499c-8.138,0-14.241-5.764-13.563-12.207c0.339-6.103,6.442-10.85,13.563-10.85   c7.121,0,13.224,4.747,13.563,10.85C268.885,280.074,262.781,285.499,254.644,285.499z"/>
</g>
<path style="fill:#FCFCFD;" d="M241.081,232.604c10.511,0,18.988-5.425,18.649-11.868c0-2.713,3.052-4.408,7.121-4.408  c4.069,0,7.799,2.034,8.138,4.408c0.339,1.356-0.678,2.713-2.034,3.391c-2.034,1.356-1.695,3.391,0.339,4.747  c2.373,1.356,5.764,1.356,7.46,0c2.034-1.356,3.391-3.391,4.069-5.086h3.73c2.713,0,4.747-1.356,4.408-3.052  c-0.339-1.695-3.052-3.052-5.764-3.052h-3.391c-3.052-4.069-9.833-7.121-17.293-7.121c-9.155,0-16.615,4.408-16.954,10.172  c0,2.713-3.73,4.747-8.138,4.747s-7.46-2.374-7.121-4.747c0.339-1.356,1.017-2.374,2.713-3.391c2.034-1.017,2.373-3.052,0.678-4.069  c-1.695-1.017-4.747-1.017-6.781,0c-2.373,1.356-4.408,2.713-5.425,4.408h-3.391c-2.713,0-5.425,1.356-5.764,3.052  s1.356,3.052,4.408,3.052h3.73C225.823,228.874,232.265,232.604,241.081,232.604z"/>
<path style="fill:#333842;" d="M14.241,382.474L14.241,382.474c0,29.838,24.074,54.252,54.252,54.252h372.98  c29.838,0,54.252-24.074,54.252-54.252l0,0H14.241z"/>
<path style="fill:#646B79;" d="M312.964,382.474H196.323c-3.052,0-5.764,2.713-5.764,5.764c0,3.052,2.713,5.764,5.764,5.764h116.641  c3.052,0,5.764-2.713,5.764-5.764C318.728,385.187,316.355,382.474,312.964,382.474z"/>
<g>
	<rect x="92.906" y="139.698" style="fill:#BDBDBE;" width="43.74" height="28.821"/>
	<rect x="92.906" y="188.864" style="fill:#BDBDBE;" width="43.74" height="28.821"/>
	<rect x="92.906" y="237.69" style="fill:#BDBDBE;" width="43.74" height="28.821"/>
	<rect x="92.906" y="286.517" style="fill:#BDBDBE;" width="43.74" height="28.821"/>
	<rect x="372.98" y="139.698" style="fill:#BDBDBE;" width="43.74" height="28.821"/>
	<rect x="372.98" y="188.864" style="fill:#BDBDBE;" width="43.74" height="28.821"/>
	<rect x="372.98" y="237.69" style="fill:#BDBDBE;" width="43.74" height="28.821"/>
	<rect x="372.98" y="286.517" style="fill:#BDBDBE;" width="43.74" height="28.821"/>
</g>
<g>
</g>
<g>
</g>
<g>
</g>
<g>
</g>
<g>
</g>
<g>
</g>
<g>
</g>
<g>
</g>
<g>
</g>
<g>
</g>
<g>
</g>
<g>
</g>
<g>
</g>
<g>
</g>
<g>
</g>
</svg>
