<?xml version="1.0" encoding="iso-8859-1"?>
<!-- Generator: Adobe Illustrator 19.0.0, SVG Export Plug-In . SVG Version: 6.00 Build 0)  -->
<svg xmlns="http://www.w3.org/2000/svg" xmlns:xlink="http://www.w3.org/1999/xlink" version="1.1" id="Capa_1" x="0px" y="0px" viewBox="0 0 509.287 509.287" style="enable-background:new 0 0 509.287 509.287;" xml:space="preserve">
<circle style="fill:#4B5AA7;" cx="254.644" cy="254.644" r="254.644"/>
<rect x="78.665" y="73.24" style="fill:#F1F3F7;" width="351.619" height="351.619"/>
<rect x="164.45" y="125.457" style="fill:#6EB1E1;" width="180.048" height="150.887"/>
<g>
	<rect x="103.078" y="125.457" style="fill:#646B79;" width="41.028" height="41.028"/>
	<rect x="103.078" y="180.387" style="fill:#646B79;" width="41.028" height="41.028"/>
	<rect x="103.078" y="235.317" style="fill:#646B79;" width="41.028" height="41.028"/>
	<rect x="364.842" y="125.457" style="fill:#646B79;" width="41.028" height="41.028"/>
	<rect x="364.842" y="180.387" style="fill:#646B79;" width="41.028" height="41.028"/>
	<rect x="364.842" y="235.317" style="fill:#646B79;" width="41.028" height="41.028"/>
	<rect x="150.887" y="330.596" style="fill:#646B79;" width="207.174" height="35.942"/>
</g>
<rect x="164.45" y="341.785" style="fill:#393D47;" width="180.048" height="13.563"/>
<rect x="189.203" y="347.889" style="fill:#71D456;" width="130.882" height="127.83"/>
<path style="fill:#FCFCFD;" d="M201.07,347.889v92.228c11.868,0,21.701,9.833,21.701,21.701h63.407  c0-11.868,9.833-21.701,21.701-21.701v-92.228H201.07z"/>
<g>
	<path style="fill:#71D456;" d="M217.007,347.889c-4.069,6.781-6.442,14.241-6.442,22.718c0,24.413,19.666,44.079,44.079,44.079   s44.079-19.666,44.079-44.079c0-8.138-2.374-15.936-6.442-22.718H217.007z"/>
	<circle style="fill:#71D456;" cx="254.644" cy="438.082" r="10.172"/>
</g>
<path style="fill:#FCFCFD;" d="M241.759,388.577c9.833,0,17.971-8.138,17.971-17.971c0-4.408,3.391-7.799,7.799-7.799  s7.799,3.391,7.799,7.799c0,2.034-1.017,4.069-2.374,5.764c-2.034,2.034-2.034,5.086-0.339,7.121  c2.034,2.034,5.086,2.034,7.121,0.339c2.373-2.034,4.069-5.086,4.747-7.799h3.73c2.713,0,5.086-2.374,5.086-5.086  s-2.374-5.086-5.086-5.086h-3.73c-2.374-7.46-9.155-12.885-17.293-12.885c-9.833,0-17.971,8.138-17.971,17.971  c0,4.408-3.391,7.799-7.799,7.799c-4.408,0-7.799-3.391-7.799-7.799c0-2.034,1.017-4.069,2.373-5.764  c2.034-2.034,2.034-5.086,0.339-7.121c-2.034-2.034-5.086-2.034-7.121-0.339c-2.374,2.034-4.069,5.086-4.747,7.799h-3.73  c-2.713,0-5.086,2.374-5.086,5.086c0,2.713,2.373,5.086,5.086,5.086h3.73C226.84,383.152,233.621,388.577,241.759,388.577z"/>
<g>
</g>
<g>
</g>
<g>
</g>
<g>
</g>
<g>
</g>
<g>
</g>
<g>
</g>
<g>
</g>
<g>
</g>
<g>
</g>
<g>
</g>
<g>
</g>
<g>
</g>
<g>
</g>
<g>
</g>
</svg>
