<?xml version="1.0" encoding="iso-8859-1"?>
<!-- Generator: Adobe Illustrator 19.0.0, SVG Export Plug-In . SVG Version: 6.00 Build 0)  -->
<svg xmlns="http://www.w3.org/2000/svg" xmlns:xlink="http://www.w3.org/1999/xlink" version="1.1" id="Capa_1" x="0px" y="0px" viewBox="0 0 508.661 508.661" style="enable-background:new 0 0 508.661 508.661;" xml:space="preserve">
<path style="fill:#F0582F;" d="M494.707,216.015l-42.384-10.511c-5.086-20.005-12.885-38.993-23.396-56.286l22.718-37.298  c4.408-7.46,3.391-16.954-2.713-23.057L420.45,60.381c-6.103-6.103-15.597-7.46-23.057-2.713l-37.298,22.718  c-17.293-10.511-36.281-18.31-56.286-23.396l-10.511-42.384c-2.034-8.477-9.833-14.58-18.31-14.58h-40.35  c-8.816,0-16.276,6.103-18.31,14.58L205.817,56.99c-20.344,4.747-38.993,12.885-56.286,23.057l-37.298-22.718  c-7.46-4.408-16.954-3.391-23.057,2.713L60.694,88.524c-6.103,6.103-7.46,15.597-2.713,23.057l22.718,37.298  c-10.511,17.293-18.31,36.281-23.396,56.286l-42.723,10.85C6.103,218.05,0,225.848,0,234.325v40.011  c0,8.816,6.103,16.276,14.58,18.31l42.384,10.511c5.086,20.005,12.885,38.993,23.396,56.286l-22.718,37.298  c-4.408,7.46-3.391,16.954,2.713,23.057l28.482,28.482c6.103,6.103,15.597,7.46,23.057,2.713l37.298-22.718  c17.293,10.511,36.281,18.31,56.286,23.396l10.511,42.384c2.034,8.477,9.833,14.58,18.31,14.58h40.011  c8.816,0,16.276-6.103,18.31-14.58l10.511-42.384c20.005-5.086,38.993-12.885,56.286-23.396l37.298,22.718  c7.46,4.408,16.954,3.391,23.057-2.713l28.482-28.482c6.103-6.103,7.46-15.597,2.713-23.057l-22.718-37.298  c10.511-17.293,18.31-36.281,23.396-56.286l42.384-10.511c8.477-2.034,14.58-9.833,14.58-18.31v-40.011  C509.287,225.848,503.184,218.389,494.707,216.015z"/>
<g>
	<path style="fill:#FCFCFD;" d="M175.979,223.814c0-23.735-19.327-43.062-43.062-43.062h-32.551   c-6.781,0-12.207,5.425-12.207,12.207v123.423c0,6.781,5.425,12.207,12.207,12.207h32.212c23.735,0,43.062-19.327,43.062-43.062   c0-12.207-5.086-23.057-12.885-30.856C170.893,246.871,175.979,236.02,175.979,223.814z M112.911,205.504h20.005   c10.172,0,18.31,8.138,18.31,18.31s-8.138,18.31-18.31,18.31h-20.005V205.504z M132.917,303.835h-20.005v-36.62h20.005   c10.172,0,18.31,8.138,18.31,18.31S143.089,303.835,132.917,303.835z"/>
	<path style="fill:#FCFCFD;" d="M415.364,182.447c-5.764-3.73-13.563-1.695-16.954,4.069l-33.229,54.252l-33.229-54.252   c-3.73-5.764-11.189-7.46-16.954-4.069c-5.764,3.73-7.46,11.189-4.069,16.954l42.045,68.154v48.487   c0,6.781,5.425,12.207,12.207,12.207s12.207-5.425,12.207-12.207v-48.487l42.045-68.154   C422.824,193.636,421.128,186.177,415.364,182.447z"/>
	<path style="fill:#FCFCFD;" d="M280.074,180.752c-6.781,0-12.207,5.425-12.207,12.207v86.803c0,13.224-10.85,24.413-24.413,24.413   c-13.224,0-24.413-10.85-24.413-24.413v-86.803c0-6.781-5.425-12.207-12.207-12.207c-6.781,0-12.207,5.425-12.207,12.207v86.803   c0,27.126,22.04,48.827,48.826,48.827c27.126,0,48.827-22.04,48.827-48.827v-86.803   C292.281,186.177,286.856,180.752,280.074,180.752z"/>
</g>
<g>
</g>
<g>
</g>
<g>
</g>
<g>
</g>
<g>
</g>
<g>
</g>
<g>
</g>
<g>
</g>
<g>
</g>
<g>
</g>
<g>
</g>
<g>
</g>
<g>
</g>
<g>
</g>
<g>
</g>
</svg>
