<?xml version="1.0" encoding="iso-8859-1"?>
<!-- Generator: Adobe Illustrator 19.0.0, SVG Export Plug-In . SVG Version: 6.00 Build 0)  -->
<svg xmlns="http://www.w3.org/2000/svg" xmlns:xlink="http://www.w3.org/1999/xlink" version="1.1" id="Capa_1" x="0px" y="0px" viewBox="0 0 509.287 509.287" style="enable-background:new 0 0 509.287 509.287;" xml:space="preserve">
<circle style="fill:#4B5AA7;" cx="254.644" cy="254.644" r="254.644"/>
<polygon style="fill:#F1F3F7;" points="467.921,378.066 312.286,378.066 312.286,173.605 400.106,173.605 467.921,275.666 "/>
<polygon style="fill:#6EB1E1;" points="440.456,269.224 389.934,192.932 331.274,192.932 331.274,269.224 "/>
<rect x="41.367" y="122.405" style="fill:#FBD303;" width="270.58" height="255.661"/>
<circle style="fill:#4F5565;" cx="389.256" cy="377.727" r="43.401"/>
<circle style="fill:#BDBDBE;" cx="389.256" cy="377.727" r="22.718"/>
<circle style="fill:#4F5565;" cx="145.462" cy="377.727" r="43.401"/>
<circle style="fill:#BDBDBE;" cx="145.462" cy="377.727" r="22.718"/>
<path style="fill:#FCFCFD;" d="M209.886,254.644c0-18.31-14.919-33.229-33.229-33.229c-7.799,0-14.241-6.442-14.241-14.241  s6.442-14.241,14.241-14.241c4.069,0,7.799,1.695,10.511,4.408c3.73,3.73,9.494,4.069,13.563,0.339  c3.73-3.73,4.069-9.494,0.339-13.563c-4.069-4.408-9.155-7.46-14.58-9.155v-6.442c0-5.086-4.408-9.494-9.494-9.494  s-9.494,4.408-9.494,9.494v6.442c-13.563,4.069-23.735,16.954-23.735,31.873c0,18.31,14.919,33.229,33.229,33.229  c7.799,0,14.241,6.442,14.241,14.241c0,7.799-6.442,14.241-14.241,14.241c-4.069,0-7.799-1.695-10.511-4.408  c-3.73-3.73-9.494-4.069-13.563-0.339c-3.73,3.73-4.069,9.494-0.339,13.563c4.069,4.408,9.155,7.46,14.58,9.155v6.442  c0,5.086,4.408,9.494,9.494,9.494s9.494-4.408,9.494-9.494v-6.442C200.053,282.448,209.886,269.902,209.886,254.644z"/>
<g>
</g>
<g>
</g>
<g>
</g>
<g>
</g>
<g>
</g>
<g>
</g>
<g>
</g>
<g>
</g>
<g>
</g>
<g>
</g>
<g>
</g>
<g>
</g>
<g>
</g>
<g>
</g>
<g>
</g>
</svg>
