<?xml version="1.0" encoding="iso-8859-1"?>
<!-- Generator: Adobe Illustrator 19.0.0, SVG Export Plug-In . SVG Version: 6.00 Build 0)  -->
<svg xmlns="http://www.w3.org/2000/svg" xmlns:xlink="http://www.w3.org/1999/xlink" version="1.1" id="Capa_1" x="0px" y="0px" viewBox="0 0 509.287 509.287" style="enable-background:new 0 0 509.287 509.287;" xml:space="preserve">
<circle style="fill:#71D456;" cx="254.644" cy="254.644" r="254.644"/>
<path style="fill:#F1F3F7;" d="M372.641,243.115c0-67.815-57.303-122.405-126.135-117.658  c-57.981,4.069-105.113,50.861-109.181,108.842c-2.713,35.942,10.85,68.832,34.246,91.889c14.58,14.58,23.396,33.907,23.396,54.591  v1.695h120.371v-1.695c0-20.344,8.477-40.011,23.057-54.252C359.417,305.166,372.641,275.666,372.641,243.115z"/>
<g>
	<path style="fill:#414753;" d="M303.809,391.629h-98.331c-7.121,0-12.546,5.764-12.546,12.546l0,0   c0,7.121,5.764,12.546,12.546,12.546h98.331c7.121,0,12.546-5.764,12.546-12.546l0,0   C316.355,397.393,310.93,391.629,303.809,391.629z"/>
	<path style="fill:#414753;" d="M303.809,423.502h-98.331c-7.121,0-12.546,5.764-12.546,12.546l0,0   c0,7.121,5.764,12.546,12.546,12.546h98.331c7.121,0,12.546-5.764,12.546-12.546l0,0   C316.355,428.927,310.93,423.502,303.809,423.502z"/>
	<path style="fill:#414753;" d="M254.644,483.518c15.936,0,28.821-11.868,30.517-27.126h-61.033   C225.823,471.65,238.707,483.518,254.644,483.518z"/>
</g>
<g>
	<path style="fill:#FBD303;" d="M254.644,25.77c-7.121,0-13.224,5.764-13.224,13.224v45.436c0,7.121,5.764,13.224,13.224,13.224   c7.121,0,13.224-5.764,13.224-13.224V38.993C267.868,31.873,261.764,25.77,254.644,25.77z"/>
	<path style="fill:#FBD303;" d="M52.895,162.077c-2.713,6.781,0.678,14.58,7.46,17.293l42.384,16.954   c6.781,2.713,14.58-0.678,17.293-7.46c2.713-6.781-0.678-14.58-7.46-17.293l-42.384-16.954   C63.407,152.244,55.608,155.634,52.895,162.077z"/>
	<path style="fill:#FBD303;" d="M129.187,65.441c-6.103,4.069-7.46,12.546-3.052,18.31l26.448,37.298   c4.069,6.103,12.546,7.46,18.31,3.052c6.103-4.069,7.46-12.546,3.052-18.31l-26.448-37.298   C143.428,62.728,134.951,61.372,129.187,65.441z"/>
	<path style="fill:#FBD303;" d="M41.367,284.821c1.356,7.121,8.477,11.868,15.597,10.511l44.758-8.816   c7.121-1.356,11.868-8.477,10.511-15.597c-1.356-7.121-8.477-11.868-15.597-10.511l-44.758,8.816   C44.758,270.919,40.011,277.701,41.367,284.821z"/>
	<path style="fill:#FBD303;" d="M456.392,162.077c2.713,6.781-0.678,14.58-7.46,17.293l-42.384,16.954   c-6.781,2.713-14.58-0.678-17.293-7.46c-2.713-6.781,0.678-14.58,7.46-17.293l42.384-16.954   C445.881,152.244,453.679,155.634,456.392,162.077z"/>
	<path style="fill:#FBD303;" d="M380.101,65.441c6.103,4.069,7.46,12.546,3.052,18.31l-26.448,37.298   c-4.069,6.103-12.546,7.46-18.31,3.052c-6.103-4.069-7.46-12.546-3.052-18.31l26.448-37.298   C365.86,62.728,374.336,61.372,380.101,65.441z"/>
	<path style="fill:#FBD303;" d="M467.921,284.821c-1.356,7.121-8.477,11.868-15.597,10.511l-44.758-8.816   c-7.121-1.356-11.868-8.477-10.511-15.597c1.356-7.121,8.477-11.868,15.597-10.511l44.758,8.816   C464.53,270.919,469.277,277.701,467.921,284.821z"/>
	<path style="fill:#FBD303;" d="M292.62,281.091c0-21.023-16.954-37.976-37.976-37.976c-8.816,0-16.276-7.46-16.276-16.276   c0-8.816,7.46-16.275,16.276-16.275c4.408,0,8.816,1.695,11.868,5.086c4.069,4.408,10.85,4.408,15.258,0.339   c4.408-4.069,4.408-10.85,0.339-15.258c-4.747-4.747-10.511-8.477-16.954-10.172v-7.46c0-6.103-4.747-10.85-10.85-10.85   c-6.103,0-10.85,4.747-10.85,10.85v7.46c-15.597,4.747-27.126,19.327-27.126,36.281c0,21.022,16.954,37.976,37.976,37.976   c8.816,0,16.275,7.46,16.275,16.276c0,8.816-7.46,16.276-16.275,16.276c-4.408,0-8.816-1.695-11.868-5.086   c-4.069-4.408-10.85-4.408-15.258-0.339s-4.408,10.85-0.339,15.258c4.747,4.747,10.511,8.477,16.954,10.172v7.46   c0,6.103,4.747,10.85,10.85,10.85c6.103,0,10.85-4.747,10.85-10.85v-7.46C281.091,312.625,292.62,298.045,292.62,281.091z"/>
</g>
<g>
</g>
<g>
</g>
<g>
</g>
<g>
</g>
<g>
</g>
<g>
</g>
<g>
</g>
<g>
</g>
<g>
</g>
<g>
</g>
<g>
</g>
<g>
</g>
<g>
</g>
<g>
</g>
<g>
</g>
</svg>
