<?xml version="1.0" encoding="iso-8859-1"?>
<!-- Generator: Adobe Illustrator 19.0.0, SVG Export Plug-In . SVG Version: 6.00 Build 0)  -->
<svg xmlns="http://www.w3.org/2000/svg" xmlns:xlink="http://www.w3.org/1999/xlink" version="1.1" id="Capa_1" x="0px" y="0px" viewBox="0 0 509.287 509.287" style="enable-background:new 0 0 509.287 509.287;" xml:space="preserve">
<circle style="fill:#4F5565;" cx="254.644" cy="254.644" r="254.644"/>
<polygon style="fill:#FCFCFD;" points="316.016,64.763 109.181,64.763 109.181,444.525 400.106,444.525 400.106,149.192 "/>
<circle style="fill:#FBD303;" cx="269.902" cy="235.317" r="47.47"/>
<circle style="fill:#F8B517;" cx="269.902" cy="235.317" r="41.028"/>
<circle style="fill:#FBD303;" cx="269.902" cy="235.317" r="31.873"/>
<path style="fill:#FCFCFD;" d="M280.752,242.776c0-5.764-4.747-10.511-10.511-10.511c-2.374,0-4.408-2.034-4.408-4.408  c0-2.374,2.034-4.408,4.408-4.408c1.356,0,2.374,0.339,3.391,1.356c1.017,1.356,3.052,1.356,4.408,0  c1.356-1.017,1.356-3.052,0-4.408s-3.052-2.374-4.747-3.052v-2.034c0-1.695-1.356-3.052-3.052-3.052  c-1.695,0-3.052,1.356-3.052,3.052v2.034c-4.408,1.356-7.46,5.425-7.46,10.172c0,5.764,4.747,10.511,10.511,10.511  c2.374,0,4.408,2.034,4.408,4.408c0,2.374-2.034,4.408-4.408,4.408c-1.356,0-2.374-0.339-3.391-1.356  c-1.017-1.356-3.052-1.356-4.408,0c-1.356,1.017-1.356,3.052,0,4.408c1.356,1.356,3.052,2.373,4.747,3.052v2.034  c0,1.695,1.356,3.052,3.052,3.052c1.695,0,3.052-1.356,3.052-3.052v-2.034C277.362,251.592,280.752,247.523,280.752,242.776z"/>
<circle style="fill:#FBD303;" cx="196.662" cy="161.738" r="47.47"/>
<circle style="fill:#F8B517;" cx="196.662" cy="161.738" r="41.028"/>
<circle style="fill:#FBD303;" cx="196.662" cy="161.738" r="31.873"/>
<path style="fill:#FCFCFD;" d="M208.191,141.393c-2.374-1.017-4.408-1.356-6.781-1.356c-8.477,0-15.597,5.764-18.649,13.563h-5.086  c-1.695,0-3.052,1.356-3.052,3.052c0,1.695,1.356,3.052,3.052,3.052h3.73c0,0.678,0,1.356,0,2.374c0,0.678,0,1.356,0,2.374h-3.73  c-1.695,0-3.052,1.356-3.052,3.052c0,1.695,1.356,3.052,3.052,3.052h5.086c3.052,7.799,10.172,13.563,18.649,13.563  c2.034,0,3.73-0.339,5.764-1.017c1.695-0.339,2.374-2.374,2.034-3.73c-0.339-1.695-2.374-2.374-3.73-2.034  c-1.356,0.339-2.713,0.678-3.73,0.678c-5.086,0-9.494-3.052-12.207-7.46h12.546c1.695,0,3.052-1.356,3.052-3.052  c0-1.695-1.356-3.052-3.052-3.052h-14.919c0-0.678,0-1.356,0-2.374c0-0.678,0-1.356,0-2.374h14.919c1.695,0,3.052-1.356,3.052-3.052  s-1.356-3.052-3.052-3.052h-12.885c2.374-4.408,7.121-7.46,12.207-7.46c1.695,0,3.052,0.339,4.747,1.017  c1.695,0.678,3.391,0,4.069-1.695C210.564,143.767,209.886,141.732,208.191,141.393z"/>
<path style="fill:#F0582F;" d="M262.442,125.796l12.546-7.46l-4.747-7.799l-26.448,15.936l15.936,26.448l7.46-4.408l-8.816-14.58  c20.344,8.138,36.281,25.43,42.045,47.131l8.477-2.374C302.792,154.617,285.16,134.951,262.442,125.796z"/>
<path style="fill:#6EB1E1;" d="M203.105,250.236l8.477,14.241c-22.718-7.46-40.35-26.109-45.775-49.844l-8.477,2.034  c6.442,26.448,25.77,47.47,51.2,55.947l-12.885,7.799l4.408,7.46l26.448-15.936l-15.597-26.448L203.105,250.236z"/>
<polygon style="fill:#F1F3F7;" points="316.016,149.192 400.106,149.192 316.016,64.763 "/>
<rect x="153.939" y="321.78" style="fill:#71D456;" width="201.748" height="12.885"/>
<g>
	<rect x="153.939" y="356.026" style="fill:#F1F3F7;" width="201.748" height="12.885"/>
	<rect x="153.939" y="390.612" style="fill:#F1F3F7;" width="201.748" height="12.885"/>
</g>
<g>
</g>
<g>
</g>
<g>
</g>
<g>
</g>
<g>
</g>
<g>
</g>
<g>
</g>
<g>
</g>
<g>
</g>
<g>
</g>
<g>
</g>
<g>
</g>
<g>
</g>
<g>
</g>
<g>
</g>
</svg>
