<?xml version="1.0" encoding="iso-8859-1"?>
<!-- Generator: Adobe Illustrator 19.0.0, SVG Export Plug-In . SVG Version: 6.00 Build 0)  -->
<svg xmlns="http://www.w3.org/2000/svg" xmlns:xlink="http://www.w3.org/1999/xlink" version="1.1" id="Capa_1" x="0px" y="0px" viewBox="0 0 509.287 509.287" style="enable-background:new 0 0 509.287 509.287;" xml:space="preserve">
<circle style="fill:#71D456;" cx="254.644" cy="254.644" r="254.644"/>
<path style="fill:#F1F3F7;" d="M331.952,148.853v0.678h44.079v-0.678c0-66.797-54.591-121.388-121.388-121.388  S133.256,82.056,133.256,148.853v81.717h44.079v-81.717c0-42.723,34.585-77.309,77.309-77.309  C297.367,71.205,331.952,106.13,331.952,148.853z"/>
<rect x="101.722" y="223.11" style="fill:#FBD303;" width="306.183" height="218.024"/>
<path style="fill:#4F5565;" d="M285.838,325.849c0-17.293-13.902-31.195-31.195-31.195s-31.195,13.902-31.195,31.195  c0,12.885,7.799,24.074,18.988,28.821v36.62c0,6.781,5.425,12.207,12.207,12.207s12.207-5.425,12.207-12.207v-36.62  C278.04,349.584,285.838,338.734,285.838,325.849z"/>
<g>
</g>
<g>
</g>
<g>
</g>
<g>
</g>
<g>
</g>
<g>
</g>
<g>
</g>
<g>
</g>
<g>
</g>
<g>
</g>
<g>
</g>
<g>
</g>
<g>
</g>
<g>
</g>
<g>
</g>
</svg>
