<?xml version="1.0" encoding="iso-8859-1"?>
<!-- Generator: Adobe Illustrator 19.0.0, SVG Export Plug-In . SVG Version: 6.00 Build 0)  -->
<svg xmlns="http://www.w3.org/2000/svg" xmlns:xlink="http://www.w3.org/1999/xlink" version="1.1" id="Capa_1" x="0px" y="0px" viewBox="0 0 509.287 509.287" style="enable-background:new 0 0 509.287 509.287;" xml:space="preserve">
<circle style="fill:#4B5AA7;" cx="254.644" cy="254.644" r="254.644"/>
<rect x="121.049" y="127.83" style="fill:#E8E8E8;" width="267.189" height="160.381"/>
<rect x="22.04" y="418.755" style="fill:#DEDEDF;" width="465.208" height="69.171"/>
<polygon style="fill:#F1F3F7;" points="388.238,288.212 121.049,288.212 22.04,418.755 487.248,418.755 "/>
<rect x="293.976" y="92.567" style="fill:#BDBDBE;" width="29.838" height="35.264"/>
<rect x="229.891" y="21.023" style="fill:#DEDEDF;" width="158.347" height="71.544"/>
<rect x="255.661" y="44.419" style="fill:#6EB1E1;" width="106.808" height="25.091"/>
<rect x="153.939" y="106.808" style="fill:#DEDEDF;" width="60.694" height="21.362"/>
<rect x="169.197" y="166.824" style="fill:#6EB1E1;" width="171.232" height="121.388"/>
<g>
	<rect x="184.117" y="306.522" style="fill:#DEDEDF;" width="21.701" height="21.701"/>
	<rect x="223.788" y="306.522" style="fill:#DEDEDF;" width="21.701" height="21.701"/>
	<rect x="263.799" y="306.522" style="fill:#DEDEDF;" width="21.701" height="21.701"/>
	<rect x="303.47" y="306.522" style="fill:#DEDEDF;" width="21.701" height="21.701"/>
	<rect x="184.117" y="342.803" style="fill:#DEDEDF;" width="21.701" height="21.701"/>
	<rect x="223.788" y="342.803" style="fill:#DEDEDF;" width="21.701" height="21.701"/>
	<rect x="263.799" y="342.803" style="fill:#DEDEDF;" width="21.701" height="21.701"/>
	<rect x="303.47" y="342.803" style="fill:#DEDEDF;" width="21.701" height="21.701"/>
	<rect x="184.117" y="378.744" style="fill:#DEDEDF;" width="21.701" height="21.701"/>
	<rect x="223.788" y="378.744" style="fill:#DEDEDF;" width="21.701" height="21.701"/>
	<rect x="263.799" y="378.744" style="fill:#DEDEDF;" width="21.701" height="21.701"/>
	<rect x="303.47" y="378.744" style="fill:#DEDEDF;" width="21.701" height="21.701"/>
</g>
<g>
	<rect x="388.238" y="442.49" style="fill:#FCFCFD;" width="26.787" height="26.787"/>
	<rect x="434.691" y="442.49" style="fill:#FCFCFD;" width="26.787" height="26.787"/>
</g>
<g>
</g>
<g>
</g>
<g>
</g>
<g>
</g>
<g>
</g>
<g>
</g>
<g>
</g>
<g>
</g>
<g>
</g>
<g>
</g>
<g>
</g>
<g>
</g>
<g>
</g>
<g>
</g>
<g>
</g>
</svg>
