<?xml version="1.0" encoding="iso-8859-1"?>
<!-- Generator: Adobe Illustrator 19.0.0, SVG Export Plug-In . SVG Version: 6.00 Build 0)  -->
<svg xmlns="http://www.w3.org/2000/svg" xmlns:xlink="http://www.w3.org/1999/xlink" version="1.1" id="Capa_1" x="0px" y="0px" viewBox="0 0 509.287 509.287" style="enable-background:new 0 0 509.287 509.287;" xml:space="preserve">
<circle style="fill:#6EB1E1;" cx="254.644" cy="254.644" r="254.644"/>
<polygon style="fill:#4B5AA7;" points="142.411,126.135 452.662,126.135 375.354,318.389 197.34,318.389 "/>
<circle style="fill:#4F5565;" cx="363.825" cy="447.915" r="31.195"/>
<circle style="fill:#F1F3F7;" cx="363.825" cy="447.915" r="14.58"/>
<circle style="fill:#4F5565;" cx="231.926" cy="447.915" r="31.195"/>
<circle style="fill:#F1F3F7;" cx="231.926" cy="447.915" r="14.58"/>
<path style="fill:#F0582F;" d="M41.706,56.964c-6.781,0-11.868,5.425-11.868,11.868s5.425,11.868,11.868,11.868h50.522V56.625  H41.706V56.964z"/>
<path style="fill:#F1F3F7;" d="M375.354,306.522H206.495L137.325,65.78c-1.356-5.086-6.103-8.816-11.528-8.816H92.228v24.074h24.752  l69.171,240.742c1.356,5.086,6.103,8.816,11.528,8.816h178.013c12.546,0,23.057,10.172,23.057,23.057  c0,12.546-10.172,23.057-23.057,23.057H199.375c-6.781,0-11.868,5.425-11.868,11.868c0,6.781,5.425,11.868,11.868,11.868h176.318  c25.77,0,47.131-21.023,47.131-47.131C422.824,327.205,401.462,306.522,375.354,306.522z"/>
<circle style="fill:#FFFFFC;" cx="285.499" cy="222.432" r="71.883"/>
<path style="fill:#FBD303;" d="M311.947,241.081c0-14.58-11.868-26.448-26.448-26.448c-6.103,0-11.189-5.086-11.189-11.189  c0-6.103,5.086-11.189,11.189-11.189c3.052,0,6.103,1.356,8.138,3.73c2.713,3.052,7.799,3.052,10.85,0.339  c3.052-2.713,3.052-7.799,0.339-10.85c-3.052-3.391-7.121-5.764-11.868-7.121v-5.425c0-4.069-3.391-7.46-7.46-7.46  c-4.069,0-7.46,3.391-7.46,7.46v5.425c-10.85,3.391-18.988,13.563-18.988,25.43c0,14.58,11.868,26.448,26.448,26.448  c6.103,0,11.189,5.086,11.189,11.189c0,6.103-5.086,11.189-11.189,11.189c-3.052,0-6.103-1.356-8.138-3.73  c-2.713-3.052-7.799-3.052-10.85-0.339c-3.052,2.713-3.052,7.799-0.339,10.85c3.052,3.391,7.121,5.764,11.868,7.121v5.425  c0,4.069,3.391,7.46,7.46,7.46c4.069,0,7.46-3.391,7.46-7.46v-5.425C304.148,263.46,311.947,253.287,311.947,241.081z"/>
<g>
</g>
<g>
</g>
<g>
</g>
<g>
</g>
<g>
</g>
<g>
</g>
<g>
</g>
<g>
</g>
<g>
</g>
<g>
</g>
<g>
</g>
<g>
</g>
<g>
</g>
<g>
</g>
<g>
</g>
</svg>
