<?xml version="1.0" encoding="iso-8859-1"?>
<!-- Generator: Adobe Illustrator 19.0.0, SVG Export Plug-In . SVG Version: 6.00 Build 0)  -->
<svg xmlns="http://www.w3.org/2000/svg" xmlns:xlink="http://www.w3.org/1999/xlink" version="1.1" id="Capa_1" x="0px" y="0px" viewBox="0 0 509.287 509.287" style="enable-background:new 0 0 509.287 509.287;" xml:space="preserve">
<circle style="fill:#886C60;" cx="254.644" cy="254.644" r="254.644"/>
<g>
	
		<rect x="197.288" y="221.857" transform="matrix(-0.7071 -0.7071 0.7071 -0.7071 264.1264 606.3523)" style="fill:#F8B517;" width="120.709" height="53.234"/>
	<polygon style="fill:#F8B517;" points="221.075,225.483 187.846,258.374 190.22,260.408 190.22,286.517 164.45,286.517    150.548,300.758 150.548,326.188 131.56,345.176 102.061,345.176 102.061,376.032 70.527,376.032 79.343,426.554 129.865,435.37    280.413,284.821  "/>
</g>
<circle style="fill:#FBD303;" cx="339.751" cy="166.146" r="126.135"/>
<circle style="fill:#F8B517;" cx="339.751" cy="166.146" r="106.808"/>
<circle style="fill:#FBD303;" cx="339.751" cy="166.146" r="82.395"/>
<path style="fill:#FCFCFD;" d="M371.963,188.864c0-17.632-14.241-32.212-32.212-32.212c-7.46,0-13.902-6.103-13.902-13.902  c0-7.46,6.103-13.902,13.902-13.902c3.73,0,7.46,1.695,10.172,4.408c3.391,3.73,9.155,3.73,12.885,0.339  c3.73-3.391,3.73-9.155,0.339-12.885c-3.73-4.069-8.816-7.121-14.241-8.816v-6.442c0-5.086-4.069-9.155-9.155-9.155  s-9.155,4.069-9.155,9.155v6.442c-13.224,4.069-23.057,16.275-23.057,30.856c0,17.632,14.241,32.212,32.212,32.212  c7.46,0,13.902,6.103,13.902,13.902c0,7.46-6.103,13.902-13.902,13.902c-3.73,0-7.46-1.695-10.172-4.408  c-3.391-3.73-9.155-3.73-12.885-0.339c-3.73,3.391-3.73,9.155-0.339,12.885c3.73,4.069,8.816,7.121,14.241,8.816v6.442  c0,5.086,4.069,9.155,9.155,9.155s9.155-4.069,9.155-9.155v-6.442C362.13,215.65,371.963,203.444,371.963,188.864z"/>
<g>
</g>
<g>
</g>
<g>
</g>
<g>
</g>
<g>
</g>
<g>
</g>
<g>
</g>
<g>
</g>
<g>
</g>
<g>
</g>
<g>
</g>
<g>
</g>
<g>
</g>
<g>
</g>
<g>
</g>
</svg>
