<?xml version="1.0" encoding="iso-8859-1"?>
<!-- Generator: Adobe Illustrator 19.0.0, SVG Export Plug-In . SVG Version: 6.00 Build 0)  -->
<svg xmlns="http://www.w3.org/2000/svg" xmlns:xlink="http://www.w3.org/1999/xlink" version="1.1" id="Capa_1" x="0px" y="0px" viewBox="0 0 509.287 509.287" style="enable-background:new 0 0 509.287 509.287;" xml:space="preserve">
<circle style="fill:#F0582F;" cx="254.644" cy="254.644" r="254.644"/>
<path style="fill:#F1F3F7;" d="M414.686,83.073H94.601c-15.597,0-28.143,11.528-28.143,25.77v292.281  c0,14.241,12.546,25.77,28.143,25.77h320.424c15.597,0,28.143-11.528,28.143-25.77V108.842  C442.829,94.601,430.283,83.073,414.686,83.073z"/>
<path style="fill:#646B79;" d="M369.589,341.785H139.698c-13.563,0-24.752,11.189-24.752,24.752  c0,13.563,11.189,24.752,24.752,24.752H369.25c13.563,0,24.752-11.189,24.752-24.752  C394.342,352.975,383.152,341.785,369.589,341.785z"/>
<g>
	<rect x="114.946" y="133.595" style="fill:#DEDEDF;" width="37.298" height="42.384"/>
	<rect x="172.927" y="133.595" style="fill:#DEDEDF;" width="37.298" height="42.384"/>
	<rect x="230.909" y="133.595" style="fill:#DEDEDF;" width="37.298" height="42.384"/>
	<rect x="114.946" y="195.984" style="fill:#DEDEDF;" width="37.298" height="42.384"/>
	<rect x="172.927" y="195.984" style="fill:#DEDEDF;" width="37.298" height="42.384"/>
	<rect x="230.909" y="195.984" style="fill:#DEDEDF;" width="37.298" height="42.384"/>
	<rect x="114.946" y="258.374" style="fill:#DEDEDF;" width="37.298" height="42.384"/>
	<rect x="172.927" y="258.374" style="fill:#DEDEDF;" width="37.298" height="42.384"/>
	<rect x="230.909" y="258.374" style="fill:#DEDEDF;" width="37.298" height="42.384"/>
</g>
<path style="fill:#F8B517;" d="M394.342,244.811c0-21.362-17.293-38.654-38.654-38.654c-9.155,0-16.615-7.46-16.615-16.615  s7.46-16.615,16.615-16.615c4.747,0,8.816,1.695,12.207,5.086c4.069,4.408,11.189,4.747,15.597,0.339  c4.408-4.069,4.747-11.189,0.339-15.597c-4.747-5.086-10.511-8.477-17.293-10.511v-7.799c0-6.103-5.086-11.189-11.189-11.189  c-6.103,0-11.189,5.086-11.189,11.189v7.799c-15.936,4.747-27.804,19.666-27.804,37.298c0,21.362,17.293,38.654,38.654,38.654  c9.155,0,16.615,7.46,16.615,16.615c0,9.155-7.46,16.615-16.615,16.615c-4.747,0-8.816-1.695-12.207-5.086  c-4.069-4.408-11.189-4.747-15.597-0.339c-4.408,4.069-4.747,11.189-0.339,15.597c4.747,5.086,10.511,8.477,17.293,10.511v7.799  c0,6.103,5.086,11.189,11.189,11.189s11.189-5.086,11.189-11.189v-7.799C382.474,277.022,394.342,262.103,394.342,244.811z"/>
<path style="fill:#414753;" d="M362.808,366.538h-66.797c-5.764-9.833-21.362-16.954-40.011-16.954s-34.246,7.121-40.011,16.954  h-66.797c-4.069,0-7.121,3.052-7.121,7.121c0,4.069,3.052,7.121,7.121,7.121h213.616c4.069,0,7.121-3.052,7.121-7.121  C369.928,369.928,366.538,366.538,362.808,366.538z"/>
<rect x="145.801" y="372.641" style="fill:#71D456;" width="220.058" height="80.699"/>
<path style="fill:#FCFCFD;" d="M158.008,372.641v51.539c10.511,0,18.649,8.477,18.649,18.649h158.347  c0-10.511,8.477-18.649,18.649-18.649v-51.539H158.008z"/>
<g>
	<path style="fill:#71D456;" d="M226.501,372.641c-5.425,6.442-8.477,14.919-8.477,24.074c0,21.022,16.954,37.976,37.976,37.976   s37.976-16.954,37.976-37.976c0-9.155-3.052-17.632-8.477-24.074L226.501,372.641L226.501,372.641z"/>
	<circle style="fill:#71D456;" cx="185.473" cy="396.715" r="8.816"/>
	<circle style="fill:#71D456;" cx="326.527" cy="396.715" r="8.816"/>
</g>
<path style="fill:#FCFCFD;" d="M256,392.307c-3.73,0-6.781-3.052-6.781-6.781s3.052-6.781,6.781-6.781  c1.695,0,3.73,0.678,4.747,2.034c1.695,1.695,4.408,2.034,6.442,0.339c1.695-1.695,2.034-4.408,0.339-6.442  c-0.678-1.017-1.695-1.695-2.713-2.374h-17.293c-4.069,2.713-6.781,7.46-6.781,12.885c0,8.477,7.121,15.597,15.597,15.597  c3.73,0,6.781,3.052,6.781,6.781s-3.052,6.781-6.781,6.781c-1.695,0-3.73-0.678-4.747-2.034c-1.695-1.695-4.408-2.034-6.442-0.339  c-1.695,1.695-2.034,4.408-0.339,6.442c2.034,2.034,4.408,3.391,6.781,4.069v3.052c0,2.373,2.034,4.408,4.408,4.408  c2.374,0,4.408-2.034,4.408-4.408v-3.052c6.442-2.034,11.189-7.799,11.189-14.919C271.597,399.428,264.477,392.307,256,392.307z"/>
<g>
</g>
<g>
</g>
<g>
</g>
<g>
</g>
<g>
</g>
<g>
</g>
<g>
</g>
<g>
</g>
<g>
</g>
<g>
</g>
<g>
</g>
<g>
</g>
<g>
</g>
<g>
</g>
<g>
</g>
</svg>
