<?xml version="1.0" encoding="iso-8859-1"?>
<!-- Generator: Adobe Illustrator 19.0.0, SVG Export Plug-In . SVG Version: 6.00 Build 0)  -->
<svg xmlns="http://www.w3.org/2000/svg" xmlns:xlink="http://www.w3.org/1999/xlink" version="1.1" id="Capa_1" x="0px" y="0px" viewBox="0 0 509.287 509.287" style="enable-background:new 0 0 509.287 509.287;" xml:space="preserve">
<circle style="fill:#FBD303;" cx="254.644" cy="254.644" r="254.644"/>
<polygon style="fill:#BDBDBE;" points="433.335,362.469 325.51,362.469 221.415,258.374 245.828,234.299 339.751,328.223   433.335,328.223 "/>
<path style="fill:#DEDEDF;" d="M260.069,51.539L36.62,275.327c-5.764,5.764-5.764,14.58,0,20.344l89.854,89.515  c5.764,5.764,14.58,5.764,20.344,0l223.449-223.449c5.764-5.764,5.764-14.58,0-20.344l-89.854-89.854  C274.988,46.114,265.833,46.114,260.069,51.539z"/>
<rect x="61.556" y="307.103" transform="matrix(-0.7071 0.7071 -0.7071 -0.7071 371.4576 543.0754)" style="fill:#646B79;" width="23.396" height="82.733"/>
<path style="fill:#BDBDBE;" d="M255.322,44.758L40.011,260.069l75.274,75.274l230.57-230.57l-60.355-60.016  C277.362,36.62,263.799,36.62,255.322,44.758z"/>
<path style="fill:#646B79;" d="M477.076,281.091c-30.517,0-55.608,24.752-55.608,55.608v17.632  c0,30.517,24.752,55.608,55.608,55.608l0,0V281.091L477.076,281.091z"/>
<circle style="fill:#4B5AA7;" cx="335.682" cy="343.142" r="36.959"/>
<circle style="fill:#DEDEDF;" cx="335.682" cy="343.142" r="17.632"/>
<g>
</g>
<g>
</g>
<g>
</g>
<g>
</g>
<g>
</g>
<g>
</g>
<g>
</g>
<g>
</g>
<g>
</g>
<g>
</g>
<g>
</g>
<g>
</g>
<g>
</g>
<g>
</g>
<g>
</g>
</svg>
