<?xml version="1.0" encoding="iso-8859-1"?>
<!-- Generator: Adobe Illustrator 19.0.0, SVG Export Plug-In . SVG Version: 6.00 Build 0)  -->
<svg xmlns="http://www.w3.org/2000/svg" xmlns:xlink="http://www.w3.org/1999/xlink" version="1.1" id="Capa_1" x="0px" y="0px" viewBox="0 0 509.287 509.287" style="enable-background:new 0 0 509.287 509.287;" xml:space="preserve">
<circle style="fill:#6EB1E1;" cx="254.644" cy="254.644" r="254.644"/>
<path style="fill:#646B79;" d="M408.922,131.221H97.314c-9.833,0-17.632,7.799-17.632,17.632v205.139h347.211V148.853  C426.554,139.02,418.755,131.221,408.922,131.221z"/>
<rect x="100.366" y="151.226" style="fill:#F1F3F7;" width="305.166" height="183.099"/>
<path style="fill:#414753;" d="M40.35,354.331c0,32.212,26.109,58.321,58.321,58.321h311.608c32.212,0,58.321-26.109,58.321-58.321  L40.35,354.331L40.35,354.331z"/>
<rect x="187.507" y="354.331" style="fill:#333842;" width="130.882" height="13.902"/>
<rect x="147.497" y="65.78" style="fill:#FFFFFC;" width="210.903" height="268.207"/>
<rect x="147.497" y="65.78" style="fill:#886C60;" width="210.903" height="19.666"/>
<path style="fill:#FBD303;" d="M210.225,157.33c0-10.511-8.477-18.988-18.988-18.988c-4.408,0-8.138-3.73-8.138-8.138  c0-4.408,3.73-8.138,8.138-8.138c2.374,0,4.408,1.017,6.103,2.713c2.034,2.034,5.425,2.374,7.799,0.339  c2.034-2.034,2.374-5.425,0.339-7.799c-2.374-2.374-5.425-4.408-8.477-5.086v-3.73c0-3.052-2.374-5.425-5.425-5.425  s-5.425,2.374-5.425,5.425v3.73c-7.799,2.374-13.563,9.833-13.563,18.31c0,10.511,8.477,18.988,18.988,18.988  c4.408,0,8.138,3.73,8.138,8.138c0,4.408-3.73,8.138-8.138,8.138c-2.374,0-4.408-1.017-6.103-2.713  c-2.034-2.034-5.425-2.374-7.799-0.339c-2.374,2.034-2.713,5.425-0.339,7.799c2.374,2.374,5.425,4.408,8.477,5.086v3.73  c0,3.052,2.374,5.425,5.425,5.425s5.425-2.374,5.425-5.425v-3.73C204.461,173.266,210.225,166.146,210.225,157.33z"/>
<rect x="229.552" y="102.4" style="fill:#F0582F;" width="83.751" height="12.207"/>
<g>
	<rect x="229.552" y="133.256" style="fill:#F1F3F7;" width="104.774" height="8.477"/>
	<rect x="229.552" y="154.617" style="fill:#F1F3F7;" width="104.774" height="8.477"/>
	<rect x="229.552" y="176.318" style="fill:#F1F3F7;" width="83.751" height="8.477"/>
	<rect x="171.91" y="203.444" style="fill:#F1F3F7;" width="162.416" height="8.477"/>
	<rect x="171.91" y="223.788" style="fill:#F1F3F7;" width="162.416" height="8.477"/>
	<rect x="171.91" y="244.472" style="fill:#F1F3F7;" width="162.416" height="8.477"/>
	<rect x="171.91" y="265.155" style="fill:#F1F3F7;" width="162.416" height="8.477"/>
	<rect x="171.91" y="285.499" style="fill:#F1F3F7;" width="162.416" height="8.477"/>
	<rect x="171.91" y="306.183" style="fill:#F1F3F7;" width="162.416" height="8.477"/>
</g>
<g>
</g>
<g>
</g>
<g>
</g>
<g>
</g>
<g>
</g>
<g>
</g>
<g>
</g>
<g>
</g>
<g>
</g>
<g>
</g>
<g>
</g>
<g>
</g>
<g>
</g>
<g>
</g>
<g>
</g>
</svg>
