<?xml version="1.0" encoding="iso-8859-1"?>
<!-- Generator: Adobe Illustrator 19.0.0, SVG Export Plug-In . SVG Version: 6.00 Build 0)  -->
<svg xmlns="http://www.w3.org/2000/svg" xmlns:xlink="http://www.w3.org/1999/xlink" version="1.1" id="Capa_1" x="0px" y="0px" viewBox="0 0 509.287 509.287" style="enable-background:new 0 0 509.287 509.287;" xml:space="preserve">
<circle style="fill:#FBD303;" cx="254.644" cy="254.644" r="254.644"/>
<path style="fill:#6EB1E1;" d="M363.147,67.136H146.14c-17.971,0-32.212,14.58-32.212,32.212v336.699  c0,17.971,14.58,32.212,32.212,32.212h217.007c17.971,0,32.212-14.58,32.212-32.212V99.348  C395.359,81.717,381.118,67.136,363.147,67.136z"/>
<rect x="157.33" y="168.519" style="fill:#FCFCFD;" width="194.967" height="257.695"/>
<rect x="200.731" y="114.268" style="fill:#333842;" width="107.825" height="20.683"/>
<rect x="222.771" y="27.126" style="fill:#F0582F;" width="63.746" height="99.009"/>
<g>
	<circle style="fill:#646B79;" cx="254.644" cy="223.788" r="36.281"/>
	<path style="fill:#646B79;" d="M325.171,329.918c-0.339-38.654-31.873-69.849-70.527-69.849s-70.188,31.195-70.527,69.849H325.171z   "/>
</g>
<g>
	<rect x="184.117" y="355.348" style="fill:#DEDEDF;" width="141.054" height="15.597"/>
	<rect x="184.117" y="391.29" style="fill:#DEDEDF;" width="141.054" height="15.597"/>
</g>
<g>
</g>
<g>
</g>
<g>
</g>
<g>
</g>
<g>
</g>
<g>
</g>
<g>
</g>
<g>
</g>
<g>
</g>
<g>
</g>
<g>
</g>
<g>
</g>
<g>
</g>
<g>
</g>
<g>
</g>
</svg>
