<?xml version="1.0" encoding="iso-8859-1"?>
<!-- Generator: Adobe Illustrator 19.0.0, SVG Export Plug-In . SVG Version: 6.00 Build 0)  -->
<svg xmlns="http://www.w3.org/2000/svg" xmlns:xlink="http://www.w3.org/1999/xlink" version="1.1" id="Capa_1" x="0px" y="0px" viewBox="0 0 509.287 509.287" style="enable-background:new 0 0 509.287 509.287;" xml:space="preserve">
<circle style="fill:#6EB1E1;" cx="254.644" cy="254.644" r="254.644"/>
<path style="fill:#74594E;" d="M411.634,172.927l-307.2-18.988c-14.241,0-26.109-11.528-26.109-26.109l0,0  c0-14.241,11.528-26.109,26.109-26.109h283.465c13.224,0,23.735,10.511,23.735,23.735V172.927z"/>
<rect x="111.495" y="90.763" transform="matrix(0.7071 -0.7071 0.7071 0.7071 -41.3855 225.3773)" style="fill:#71D456;" width="279.732" height="143.766"/>
<path style="fill:#FCFCFD;" d="M363.825,133.256L221.754,275.327c-9.155-9.155-24.413-9.155-33.907,0l-49.166-49.166  c9.155-9.155,9.155-24.413,0-33.907L280.752,50.183c9.155,9.155,24.413,9.155,33.907,0l49.166,49.166  C354.67,108.842,354.67,123.762,363.825,133.256z"/>
<g>
	<circle style="fill:#71D456;" cx="262.103" cy="151.905" r="48.487"/>
	<circle style="fill:#71D456;" cx="314.66" cy="99.348" r="11.189"/>
</g>
<path style="fill:#FCFCFD;" d="M285.838,148.175c-7.799-7.799-20.344-7.799-27.804,0c-3.391,3.391-8.816,3.391-11.868,0  c-3.391-3.391-3.391-8.816,0-11.868c1.695-1.695,3.73-2.713,6.103-2.374c3.052,0,5.764-2.374,5.764-5.425  c0-3.052-2.373-5.764-5.425-5.764c-3.391,0-6.781,0.678-9.833,2.374l-2.713-2.713c-2.373-2.374-5.764-2.374-8.138,0  c-2.374,2.374-2.374,5.764,0,8.138l2.713,2.713c-4.069,7.46-3.052,16.954,3.391,23.396c7.799,7.799,20.344,7.799,27.804,0  c3.391-3.391,8.816-3.391,11.868,0c3.391,3.391,3.391,8.816,0,11.868c-1.695,1.695-3.73,2.713-6.103,2.374  c-3.052,0-5.764,2.374-5.764,5.425s2.374,5.764,5.425,5.764c3.391,0,6.781-0.678,9.833-2.374l2.713,2.713  c2.374,2.374,5.764,2.374,8.138,0c2.374-2.374,2.374-5.764,0-8.138l-2.713-2.713C293.298,164.111,292.281,154.278,285.838,148.175z"/>
<path style="fill:#886C60;" d="M398.75,153.939H104.434c-14.241,0-26.109-11.528-26.109-26.109l0,0l0,0v293.976  c0,14.241,11.528,26.109,26.109,26.109H398.75c14.241,0,26.109-11.528,26.109-26.109V180.048  C424.858,165.807,412.991,153.939,398.75,153.939z"/>
<path style="fill:#74594E;" d="M342.125,269.563c-18.649,0-33.568,14.919-33.568,33.568s14.919,33.568,33.568,33.568h88.837v-67.136  H342.125z"/>
<circle style="fill:#FBD303;" cx="344.159" cy="303.131" r="21.362"/>
<g>
</g>
<g>
</g>
<g>
</g>
<g>
</g>
<g>
</g>
<g>
</g>
<g>
</g>
<g>
</g>
<g>
</g>
<g>
</g>
<g>
</g>
<g>
</g>
<g>
</g>
<g>
</g>
<g>
</g>
</svg>
