<?xml version="1.0" encoding="iso-8859-1"?>
<!-- Generator: Adobe Illustrator 19.0.0, SVG Export Plug-In . SVG Version: 6.00 Build 0)  -->
<svg xmlns="http://www.w3.org/2000/svg" xmlns:xlink="http://www.w3.org/1999/xlink" version="1.1" id="Capa_1" x="0px" y="0px" viewBox="0 0 509.287 509.287" style="enable-background:new 0 0 509.287 509.287;" xml:space="preserve">
<circle style="fill:#4B5AA7;" cx="254.644" cy="254.644" r="254.644"/>
<rect x="26.448" y="125.457" style="fill:#71D456;" width="456.392" height="234.638"/>
<path style="fill:#FCFCFD;" d="M418.755,338.734H90.532c0-21.362-17.293-38.993-38.993-38.993V185.812  c21.362,0,38.993-17.293,38.993-38.993h328.223c0,21.362,17.293,38.993,38.993,38.993V299.74  C436.048,299.74,418.755,317.033,418.755,338.734z"/>
<g>
	<circle style="fill:#71D456;" cx="108.164" cy="242.776" r="18.31"/>
	<circle style="fill:#71D456;" cx="401.123" cy="242.776" r="18.31"/>
</g>
<rect x="332.784" y="322.674" transform="matrix(-0.7071 0.7071 -0.7071 -0.7071 827.0008 331.6146)" style="fill:#646B79;" width="24.074" height="28.821"/>
<circle style="fill:#4F5565;" cx="254.305" cy="246.845" r="119.015"/>
<circle style="fill:#F1F3F7;" cx="254.305" cy="246.845" r="92.906"/>
<circle style="fill:#71D456;" cx="254.305" cy="246.845" r="82.734"/>
<g>
	<path style="fill:#393D47;" d="M372.641,329.579c-2.034-2.034-5.425-2.034-7.46,0l-28.143,28.143c-2.034,2.034-2.034,5.425,0,7.46   l2.713,2.713l35.264-35.942L372.641,329.579z"/>
	<path style="fill:#393D47;" d="M415.025,443.168c2.034,2.034,5.425,2.034,7.46,0l28.143-28.143c2.034-2.034,2.034-5.425,0-7.46   l-2.713-2.713l-35.603,35.942L415.025,443.168z"/>
</g>
<rect x="342.328" y="361.201" transform="matrix(0.7071 0.7071 -0.7071 0.7071 388.6303 -165.3135)" style="fill:#F0582F;" width="103.077" height="50.521"/>
<path style="fill:#FCFCFD;" d="M287.534,270.58c0-18.31-14.919-33.229-33.229-33.229c-7.799,0-14.241-6.442-14.241-14.241  c0-7.799,6.442-14.241,14.241-14.241c4.069,0,7.799,1.695,10.511,4.408c3.73,3.73,9.494,4.069,13.563,0.339  c3.73-3.73,4.069-9.494,0.339-13.563c-4.069-4.408-9.155-7.46-14.58-9.155v-6.781c0-5.086-4.408-9.494-9.494-9.494  s-9.494,4.408-9.494,9.494v6.442c-13.563,4.069-23.735,16.954-23.735,31.873c0,18.31,14.919,33.229,33.229,33.229  c7.799,0,14.241,6.442,14.241,14.241c0,7.799-6.442,14.241-14.241,14.241c-4.069,0-7.799-1.695-10.511-4.408  c-3.73-3.73-9.494-4.069-13.563-0.339c-3.73,3.73-4.069,9.494-0.339,13.563c4.069,4.408,9.155,7.46,14.58,9.155v6.781  c0,5.086,4.408,9.494,9.494,9.494c5.086,0,9.494-4.408,9.494-9.494v-6.442C277.701,298.384,287.534,285.838,287.534,270.58z"/>
<g>
</g>
<g>
</g>
<g>
</g>
<g>
</g>
<g>
</g>
<g>
</g>
<g>
</g>
<g>
</g>
<g>
</g>
<g>
</g>
<g>
</g>
<g>
</g>
<g>
</g>
<g>
</g>
<g>
</g>
</svg>
