<?xml version="1.0" encoding="iso-8859-1"?>
<!-- Generator: Adobe Illustrator 19.0.0, SVG Export Plug-In . SVG Version: 6.00 Build 0)  -->
<svg xmlns="http://www.w3.org/2000/svg" xmlns:xlink="http://www.w3.org/1999/xlink" version="1.1" id="Capa_1" x="0px" y="0px" viewBox="0 0 509.287 509.287" style="enable-background:new 0 0 509.287 509.287;" xml:space="preserve">
<circle style="fill:#886C60;" cx="254.644" cy="254.644" r="254.644"/>
<polygon style="fill:#DEDEDF;" points="265.833,394.003 265.833,343.481 243.454,343.481 243.454,394.003 158.008,479.449   189.542,479.449 254.644,414.347 319.746,479.449 351.279,479.449 "/>
<path style="fill:#4B5AA7;" d="M445.203,63.746H64.085c-6.781,0-12.207,5.425-12.207,12.207v23.057  c0,6.781,5.425,12.207,12.207,12.207h381.118c6.781,0,12.207-5.425,12.207-12.207V75.952  C457.409,69.171,451.984,63.746,445.203,63.746z"/>
<path style="fill:#FCFCFD;" d="M78.665,111.555v211.581c0,11.868,9.494,21.362,21.362,21.362h308.895  c11.868,0,21.362-9.494,21.362-21.362V111.555H78.665z"/>
<path style="fill:#71D456;" d="M192.254,230.57l36.62,39.672c10.511-10.172,17.293-24.074,17.971-39.672H192.254z"/>
<path style="fill:#FBD303;" d="M185.812,230.57L185.812,230.57v-60.694c-31.195,1.356-56.286,26.787-56.286,58.321  c0,32.212,26.109,58.321,58.321,58.321c13.902,0,27.126-5.086,36.959-13.224L185.812,230.57z"/>
<path style="fill:#F0582F;" d="M190.559,225.823h55.947c-1.356-30.517-25.77-54.93-55.947-55.947V225.823z"/>
<g>
	<rect x="283.126" y="156.991" style="fill:#DEDEDF;" width="96.297" height="18.31"/>
	<rect x="283.126" y="198.358" style="fill:#DEDEDF;" width="96.297" height="18.31"/>
	<rect x="283.126" y="239.724" style="fill:#DEDEDF;" width="96.297" height="18.31"/>
	<rect x="283.126" y="280.752" style="fill:#DEDEDF;" width="96.297" height="18.31"/>
</g>
<g>
</g>
<g>
</g>
<g>
</g>
<g>
</g>
<g>
</g>
<g>
</g>
<g>
</g>
<g>
</g>
<g>
</g>
<g>
</g>
<g>
</g>
<g>
</g>
<g>
</g>
<g>
</g>
<g>
</g>
</svg>
