<?xml version="1.0" encoding="iso-8859-1"?>
<!-- Generator: Adobe Illustrator 19.0.0, SVG Export Plug-In . SVG Version: 6.00 Build 0)  -->
<svg xmlns="http://www.w3.org/2000/svg" xmlns:xlink="http://www.w3.org/1999/xlink" version="1.1" id="Capa_1" x="0px" y="0px" viewBox="0 0 509.287 509.287" style="enable-background:new 0 0 509.287 509.287;" xml:space="preserve">
<circle style="fill:#FBD303;" cx="254.644" cy="254.644" r="254.644"/>
<path style="fill:#71D456;" d="M450.289,172.927H58.999c-18.988,0-34.246,15.258-34.246,34.246s15.258,34.246,34.246,34.246h391.629  c18.988,0,34.246-15.258,34.246-34.246S469.277,172.927,450.289,172.927z"/>
<path style="fill:#11A34D;" d="M71.544,241.081l32.551,179.03c2.374,12.885,13.902,22.718,26.448,22.718h248.54  c12.207,0,24.074-10.172,26.448-22.718l32.551-179.03H71.544z"/>
<g>
	<path style="fill:#058946;" d="M160.721,278.379L160.721,278.379c-9.833,0-16.615,9.494-15.258,21.022l11.868,101.722   c1.017,8.816,8.816,15.936,16.954,15.936l0,0c8.477,0,14.58-7.121,13.902-15.936l-8.138-101.722   C179.37,287.873,170.554,278.379,160.721,278.379z"/>
	<path style="fill:#058946;" d="M254.644,278.379L254.644,278.379c-9.833,0-17.632,9.494-17.293,21.022l2.034,101.722   c0,8.816,7.121,15.936,15.597,15.936l0,0c8.477,0,15.258-7.121,15.597-15.936l2.034-101.722   C272.275,287.873,264.477,278.379,254.644,278.379z"/>
	<path style="fill:#058946;" d="M348.567,278.379L348.567,278.379c-9.833,0-18.649,9.494-19.327,21.022l-8.138,101.722   c-0.678,8.816,5.425,15.936,13.902,15.936l0,0c8.477,0,15.936-7.121,16.954-15.936l11.868-101.722   C365.181,287.873,358.4,278.379,348.567,278.379z"/>
</g>
<circle style="fill:#393D47;" cx="254.644" cy="206.834" r="29.838"/>
<circle style="fill:#DEDEDF;" cx="254.644" cy="206.834" r="21.023"/>
<path style="fill:#F0582F;" d="M254.644,66.458c-8.477,0-15.597,6.781-15.597,15.597v123.762c0,8.477,6.781,15.597,15.597,15.597  c8.477,0,15.597-6.781,15.597-15.597V82.056C270.241,73.579,263.121,66.458,254.644,66.458z"/>
<g>
</g>
<g>
</g>
<g>
</g>
<g>
</g>
<g>
</g>
<g>
</g>
<g>
</g>
<g>
</g>
<g>
</g>
<g>
</g>
<g>
</g>
<g>
</g>
<g>
</g>
<g>
</g>
<g>
</g>
</svg>
