<?xml version="1.0" encoding="iso-8859-1"?>
<!-- Generator: Adobe Illustrator 19.0.0, SVG Export Plug-In . SVG Version: 6.00 Build 0)  -->
<svg xmlns="http://www.w3.org/2000/svg" xmlns:xlink="http://www.w3.org/1999/xlink" version="1.1" id="Capa_1" x="0px" y="0px" viewBox="0 0 509.287 509.287" style="enable-background:new 0 0 509.287 509.287;" xml:space="preserve">
<circle style="fill:#4F5565;" cx="254.644" cy="254.644" r="254.644"/>
<path style="fill:#DEDEDF;" d="M482.84,286.517H409.6v144.106c0,20.344,16.276,36.62,36.62,36.62l0,0  c20.344,0,36.62-16.276,36.62-36.62V286.517z"/>
<path style="fill:#F1F3F7;" d="M373.319,42.384c20.344,0,36.62,16.276,36.62,36.62v207.513v144.106  c0,20.344,16.276,36.62,36.62,36.62H143.428c-20.344,0-36.62-16.276-36.62-36.62V42.384H373.319z"/>
<path style="fill:#FCFCFD;" d="M63.068,42.384h310.252c-20.344,0-36.62,16.276-36.62,36.62v7.121H99.348H26.448v-7.121  C26.448,58.66,42.723,42.384,63.068,42.384z"/>
<g>
	<rect x="149.87" y="134.612" style="fill:#DEDEDF;" width="215.65" height="14.919"/>
	<rect x="149.87" y="180.726" style="fill:#DEDEDF;" width="215.65" height="14.919"/>
	<rect x="149.87" y="226.84" style="fill:#DEDEDF;" width="215.65" height="14.919"/>
	<rect x="246.167" y="272.954" style="fill:#DEDEDF;" width="119.354" height="14.919"/>
	<rect x="246.167" y="319.068" style="fill:#DEDEDF;" width="119.354" height="14.919"/>
	<rect x="246.167" y="365.521" style="fill:#DEDEDF;" width="119.354" height="14.919"/>
	<rect x="246.167" y="411.634" style="fill:#DEDEDF;" width="57.981" height="14.919"/>
</g>
<path style="fill:#FBD303;" d="M221.075,375.354c0-19.666-15.936-35.603-35.603-35.603c-8.477,0-15.258-6.781-15.258-15.258  c0-8.477,6.781-15.258,15.258-15.258c4.408,0,8.138,1.695,11.189,4.747c3.73,4.069,10.172,4.408,14.241,0.339  c4.069-3.73,4.408-10.172,0.339-14.241c-4.408-4.747-9.833-7.799-15.597-9.833v-7.121c0-5.764-4.408-10.172-10.172-10.172  s-10.172,4.408-10.172,10.172v7.121c-14.58,4.408-25.43,17.971-25.43,34.246c0,19.666,15.936,35.603,35.603,35.603  c8.477,0,15.258,6.781,15.258,15.258c0,8.477-6.781,15.258-15.258,15.258c-4.408,0-8.138-1.695-11.189-4.747  c-3.73-4.069-10.172-4.408-14.241-0.339c-4.069,3.73-4.408,10.172-0.339,14.241c4.408,4.747,9.833,7.799,15.597,9.833v7.121  c0,5.764,4.408,10.172,10.172,10.172s10.172-4.408,10.172-10.172V409.6C210.225,404.853,221.075,391.29,221.075,375.354z"/>
<g>
</g>
<g>
</g>
<g>
</g>
<g>
</g>
<g>
</g>
<g>
</g>
<g>
</g>
<g>
</g>
<g>
</g>
<g>
</g>
<g>
</g>
<g>
</g>
<g>
</g>
<g>
</g>
<g>
</g>
</svg>
