<?xml version="1.0" encoding="iso-8859-1"?>
<!-- Generator: Adobe Illustrator 19.0.0, SVG Export Plug-In . SVG Version: 6.00 Build 0)  -->
<svg xmlns="http://www.w3.org/2000/svg" xmlns:xlink="http://www.w3.org/1999/xlink" version="1.1" id="Capa_1" x="0px" y="0px" viewBox="0 0 509.287 509.287" style="enable-background:new 0 0 509.287 509.287;" xml:space="preserve">
<circle style="fill:#4F5565;" cx="254.644" cy="254.644" r="254.644"/>
<path style="fill:#F8B517;" d="M488.943,235.317c-29.16-58.321-123.083-100.705-234.299-100.705  c-111.216,0-205.139,42.723-234.299,100.705H10.85v38.315c0,76.97,109.181,139.02,243.793,139.02s243.793-62.389,243.793-139.02  v-38.315H488.943z"/>
<ellipse style="fill:#FBD303;" cx="254.644" cy="235.317" rx="243.793" ry="139.02"/>
<ellipse style="fill:#F8B517;" cx="254.644" cy="235.317" rx="215.989" ry="123.423"/>
<ellipse style="fill:#FBD303;" cx="254.644" cy="235.317" rx="187.168" ry="106.808"/>
<path style="fill:#FCFCFD;" d="M328.562,264.138c0-24.074-33.229-43.74-73.918-43.74c-17.293,0-31.534-8.477-31.534-18.649  c0-10.172,14.241-18.649,31.534-18.649c8.816,0,16.954,2.034,23.057,5.764c8.138,5.086,21.362,5.425,29.838,0.678  c8.477-4.747,8.816-12.546,1.017-17.632c-8.816-5.764-20.344-9.833-32.551-11.868v-8.816c0-6.781-9.494-12.546-21.023-12.546  s-21.023,5.764-21.023,12.546v8.816c-30.517,5.425-52.556,22.04-52.556,42.045c0,24.074,33.229,43.74,73.918,43.74  c17.293,0,31.534,8.477,31.534,18.649c0,10.172-14.241,18.649-31.534,18.649c-8.816,0-16.954-2.034-23.057-5.764  c-8.138-5.086-21.362-5.425-29.838-0.678c-8.477,4.747-8.816,12.546-1.017,17.632c8.816,5.764,20.344,9.833,32.551,11.868v8.816  c0,6.781,9.494,12.546,21.023,12.546c11.528,0,21.023-5.764,21.023-12.546v-8.816C306.183,300.758,328.562,283.804,328.562,264.138z  "/>
<g>
</g>
<g>
</g>
<g>
</g>
<g>
</g>
<g>
</g>
<g>
</g>
<g>
</g>
<g>
</g>
<g>
</g>
<g>
</g>
<g>
</g>
<g>
</g>
<g>
</g>
<g>
</g>
<g>
</g>
</svg>
