<?xml version="1.0" encoding="iso-8859-1"?>
<!-- Generator: Adobe Illustrator 19.0.0, SVG Export Plug-In . SVG Version: 6.00 Build 0)  -->
<svg xmlns="http://www.w3.org/2000/svg" xmlns:xlink="http://www.w3.org/1999/xlink" version="1.1" id="Capa_1" x="0px" y="0px" viewBox="0 0 509.287 509.287" style="enable-background:new 0 0 509.287 509.287;" xml:space="preserve">
<circle style="fill:#F0582F;" cx="254.644" cy="254.644" r="254.644"/>
<path style="fill:#886C60;" d="M389.595,57.981H119.693c-10.172,0-18.649,8.477-18.649,18.649v356.026  c0,10.172,8.477,18.649,18.649,18.649h269.563c10.172,0,18.649-8.477,18.649-18.649V76.63  C408.244,66.119,399.767,57.981,389.595,57.981z"/>
<rect x="116.302" y="87.82" style="fill:#F5F6F8;" width="276.344" height="337.038"/>
<path style="fill:#BDBDBE;" d="M254.644,126.813c-15.258,0-28.821-6.781-33.229-16.615h-35.264c-5.764,0-10.172-4.747-10.172-10.172  V83.412c0-5.764,4.747-10.172,10.172-10.172h136.646c5.764,0,10.172,4.747,10.172,10.172v16.615c0,5.764-4.747,10.172-10.172,10.172  h-34.924C283.465,120.032,269.902,126.813,254.644,126.813z M186.151,77.648c-3.052,0-5.764,2.374-5.764,5.764v16.615  c0,3.052,2.374,5.764,5.764,5.764h37.976l0.678,1.356c3.391,8.816,15.597,15.258,29.838,15.258c13.902,0,26.448-6.442,29.838-15.258  l0.678-1.356h37.976c3.052,0,5.764-2.374,5.764-5.764V83.412c0-3.052-2.374-5.764-5.764-5.764H186.151z"/>
<path style="fill:#393D47;" d="M314.999,64.763h-120.71c-4.408,0-7.799,4.747-7.799,10.511c0,5.764,3.391,10.511,7.799,10.511  h120.71c4.408,0,7.799-4.747,7.799-10.511C322.797,69.51,319.407,64.763,314.999,64.763z"/>
<g>
	<path style="fill:#6EB1E1;" d="M276.005,153.939c-0.678-1.695-2.713-2.713-4.408-2.713c-2.034,0-3.73,1.017-4.408,3.052   l-17.632,45.436c-1.017,2.374,0.339,5.086,2.713,6.103c1.695,0.678,4.747,0.678,6.103-2.713l4.069-10.85h17.971l4.069,10.85   c1.017,2.374,3.73,3.73,6.103,2.713c2.374-1.017,3.73-3.73,2.713-6.103L276.005,153.939z M266.172,183.099l5.425-14.241   l5.425,14.241H266.172z"/>
	<path style="fill:#6EB1E1;" d="M341.446,150.887c-2.713,0-4.747,2.034-4.747,4.747v32.551l-26.787-35.264   c-1.356-1.695-3.391-2.374-5.086-1.695c-2.034,0.678-3.052,2.374-3.052,4.408v46.114c0,2.713,2.034,4.747,4.747,4.747   c2.713,0,4.747-2.034,4.747-4.747v-32.551l26.787,35.264c1.017,1.017,3.052,2.374,5.086,1.695c2.034-0.678,3.052-2.374,3.052-4.408   v-46.453C345.854,152.922,343.82,150.887,341.446,150.887z"/>
	<path style="fill:#6EB1E1;" d="M186.151,197.001h-13.563v-41.706c0-2.713-2.034-4.747-4.747-4.747s-4.747,2.034-4.747,4.747v46.114   c0,2.713,2.034,4.747,4.747,4.747h18.31c2.713,0,4.747-2.034,4.747-4.747C190.898,199.036,188.864,197.001,186.151,197.001z"/>
	<path style="fill:#6EB1E1;" d="M219.041,150.887c-15.258,0-27.804,12.546-27.804,27.804c0,15.258,12.546,27.804,27.804,27.804   c15.258,0,27.804-12.546,27.804-27.804C246.845,163.094,234.299,150.887,219.041,150.887z M219.041,197.001   c-10.172,0-18.649-8.138-18.649-18.649c0-10.172,8.138-18.649,18.649-18.649c10.172,0,18.649,8.138,18.649,18.649   C237.69,188.864,229.213,197.001,219.041,197.001z"/>
</g>
<rect x="163.433" y="232.265" style="fill:#71D456;" width="182.76" height="14.919"/>
<g>
	<rect x="163.433" y="271.258" style="fill:#DEDEDF;" width="182.76" height="13.224"/>
	<rect x="163.433" y="305.844" style="fill:#DEDEDF;" width="182.76" height="13.224"/>
	<rect x="163.433" y="340.429" style="fill:#DEDEDF;" width="182.76" height="13.224"/>
	<rect x="163.433" y="375.015" style="fill:#DEDEDF;" width="182.76" height="13.224"/>
</g>
<g>
</g>
<g>
</g>
<g>
</g>
<g>
</g>
<g>
</g>
<g>
</g>
<g>
</g>
<g>
</g>
<g>
</g>
<g>
</g>
<g>
</g>
<g>
</g>
<g>
</g>
<g>
</g>
<g>
</g>
</svg>
