<?xml version="1.0" encoding="iso-8859-1"?>
<!-- Generator: Adobe Illustrator 19.0.0, SVG Export Plug-In . SVG Version: 6.00 Build 0)  -->
<svg xmlns="http://www.w3.org/2000/svg" xmlns:xlink="http://www.w3.org/1999/xlink" version="1.1" id="Capa_1" x="0px" y="0px" viewBox="0 0 509.287 509.287" style="enable-background:new 0 0 509.287 509.287;" xml:space="preserve">
<circle style="fill:#4F5565;" cx="254.644" cy="254.644" r="254.644"/>
<rect x="89.515" y="80.699" style="fill:#FCFCFD;" width="330.257" height="347.889"/>
<path style="fill:#D54232;" d="M65.441,156.313v37.976c0,21.023,16.954,37.976,37.976,37.976s37.976-16.954,37.976-37.976v-37.976  H65.441z"/>
<path style="fill:#DEDEDF;" d="M141.054,156.313v37.976c0,21.023,16.954,37.976,37.976,37.976s37.976-16.954,37.976-37.976v-37.976  H141.054z"/>
<path style="fill:#D54232;" d="M216.668,156.313v37.976c0,21.023,16.954,37.976,37.976,37.976s37.976-16.954,37.976-37.976v-37.976  H216.668z"/>
<path style="fill:#DEDEDF;" d="M292.62,156.313v37.976c0,21.023,16.954,37.976,37.976,37.976c21.022,0,37.976-16.954,37.976-37.976  v-37.976H292.62z"/>
<path style="fill:#D54232;" d="M368.233,156.313v37.976c0,21.023,16.954,37.976,37.976,37.976c21.022,0,37.976-16.954,37.976-37.976  v-37.976H368.233z"/>
<polygon style="fill:#F0582F;" points="141.054,156.313 65.441,156.313 89.515,80.699 155.634,80.699 "/>
<polygon style="fill:#F1F3F7;" points="216.668,156.313 141.054,156.313 155.634,80.699 221.754,80.699 "/>
<polygon style="fill:#F0582F;" points="292.62,156.313 216.668,156.313 221.754,80.699 287.534,80.699 "/>
<polygon style="fill:#F1F3F7;" points="368.233,156.313 292.62,156.313 287.534,80.699 353.653,80.699 "/>
<polygon style="fill:#F0582F;" points="443.846,156.313 368.233,156.313 353.653,80.699 419.772,80.699 "/>
<rect x="130.882" y="276.005" style="fill:#4F5565;" width="93.245" height="152.922"/>
<rect x="140.037" y="284.482" style="fill:#646B79;" width="74.596" height="144.106"/>
<rect x="251.931" y="276.005" style="fill:#4F5565;" width="126.474" height="95.619"/>
<rect x="262.103" y="284.482" style="fill:#6EB1E1;" width="105.791" height="78.665"/>
<g>
</g>
<g>
</g>
<g>
</g>
<g>
</g>
<g>
</g>
<g>
</g>
<g>
</g>
<g>
</g>
<g>
</g>
<g>
</g>
<g>
</g>
<g>
</g>
<g>
</g>
<g>
</g>
<g>
</g>
</svg>
