<?xml version="1.0" encoding="iso-8859-1"?>
<!-- Generator: Adobe Illustrator 19.0.0, SVG Export Plug-In . SVG Version: 6.00 Build 0)  -->
<svg xmlns="http://www.w3.org/2000/svg" xmlns:xlink="http://www.w3.org/1999/xlink" version="1.1" id="Capa_1" x="0px" y="0px" viewBox="0 0 509.287 509.287" style="enable-background:new 0 0 509.287 509.287;" xml:space="preserve">
<circle style="fill:#6EB1E1;" cx="254.644" cy="254.644" r="254.644"/>
<path style="fill:#DEDEDF;" d="M454.697,123.762H54.591c-4.069,0-7.121,3.052-7.121,7.121v217.685c0,4.069,3.052,7.121,7.121,7.121  h400.445c4.069,0,7.121-3.052,7.121-7.121V130.882C461.817,127.152,458.766,123.762,454.697,123.762z"/>
<rect x="79.682" y="181.065" style="fill:#FCFCFD;" width="349.584" height="144.784"/>
<path style="fill:#414753;" d="M99.687,406.209c-1.695,0-2.713,1.356-2.713,2.713c0,1.695,1.356,2.713,2.713,2.713h13.563v-5.425  C113.25,406.209,99.687,406.209,99.687,406.209z"/>
<path style="fill:#646B79;" d="M311.608,391.29H179.709c-41.706,0-75.613,7.799-75.613,17.632c0,9.833,33.907,17.632,75.613,17.632  h131.56V391.29L311.608,391.29L311.608,391.29z"/>
<path style="fill:#414753;" d="M393.324,389.934h-81.717v38.315h82.056c9.833,0,18.988-8.477,18.988-19.327  C412.313,398.411,403.158,389.934,393.324,389.934z"/>
<path style="fill:#FBD303;" d="M386.543,439.777h-70.866v-4.747h70.866c2.034,0,3.73-1.695,3.73-3.73v-6.103h5.086v6.103  C395.698,436.048,391.629,439.777,386.543,439.777z"/>
<rect x="383.83" y="389.934" style="fill:#F8B517;" width="11.868" height="38.315"/>
<path style="fill:#FBD303;" d="M166.146,271.936c0-14.241-11.528-25.43-25.43-25.43c-6.103,0-10.85-4.747-10.85-10.85  c0-6.103,4.747-10.85,10.85-10.85c3.052,0,5.764,1.356,8.138,3.391c2.713,3.052,7.46,3.052,10.172,0.339  c3.052-2.713,3.052-7.46,0.339-10.172c-3.052-3.391-7.121-5.764-11.189-6.781v-5.086c0-4.069-3.391-7.46-7.46-7.46  c-4.069,0-7.46,3.391-7.46,7.46v5.086c-10.511,3.052-18.31,12.885-18.31,24.413c0,14.241,11.528,25.43,25.43,25.43  c6.103,0,10.85,4.747,10.85,10.85c0,6.103-4.747,10.85-10.85,10.85c-3.052,0-5.764-1.356-8.138-3.391  c-2.713-3.052-7.46-3.052-10.172-0.339c-3.052,2.713-3.052,7.46-0.339,10.172c3.052,3.391,7.121,5.764,11.189,6.781v5.086  c0,4.069,3.391,7.46,7.46,7.46c4.069,0,7.46-3.391,7.46-7.46v-5.086C158.686,292.959,166.146,283.465,166.146,271.936z"/>
<g>
	<rect x="196.662" y="202.426" style="fill:#F1F3F7;" width="199.036" height="17.632"/>
	<rect x="196.662" y="244.811" style="fill:#F1F3F7;" width="199.036" height="17.632"/>
	<rect x="196.662" y="287.195" style="fill:#F1F3F7;" width="114.946" height="17.632"/>
	<rect x="346.532" y="287.195" style="fill:#F1F3F7;" width="49.166" height="17.632"/>
</g>
<g>
</g>
<g>
</g>
<g>
</g>
<g>
</g>
<g>
</g>
<g>
</g>
<g>
</g>
<g>
</g>
<g>
</g>
<g>
</g>
<g>
</g>
<g>
</g>
<g>
</g>
<g>
</g>
<g>
</g>
</svg>
