<?xml version="1.0" encoding="iso-8859-1"?>
<!-- Generator: Adobe Illustrator 19.0.0, SVG Export Plug-In . SVG Version: 6.00 Build 0)  -->
<svg xmlns="http://www.w3.org/2000/svg" xmlns:xlink="http://www.w3.org/1999/xlink" version="1.1" id="Capa_1" x="0px" y="0px" viewBox="0 0 509.287 509.287" style="enable-background:new 0 0 509.287 509.287;" xml:space="preserve">
<circle style="fill:#71D456;" cx="254.644" cy="254.644" r="254.644"/>
<g>
	
		<rect x="264.984" y="267.547" transform="matrix(0.7071 -0.7071 0.7071 0.7071 -123.6082 298.3879)" style="fill:#646B79;" width="66.797" height="61.711"/>
	<path style="fill:#646B79;" d="M284.143,54.93l-25.091,15.258c-11.868-7.121-24.752-12.546-37.976-15.597l-7.46-28.821   c-1.356-5.764-6.442-9.833-12.546-9.833h-27.126c-5.764,0-10.85,4.069-12.546,9.833l-6.781,28.482   c-13.224,3.391-26.109,8.477-37.976,15.597L91.55,54.591c-5.086-3.052-11.528-2.374-15.597,2.034L56.625,75.952   c-4.069,4.069-5.086,10.511-2.034,15.597l15.258,25.091c-7.121,11.868-12.546,24.752-15.597,37.976l-28.482,7.121   c-5.764,1.356-9.833,6.442-9.833,12.546v27.126c0,5.764,4.069,10.85,9.833,12.546l28.482,7.121   c3.391,13.224,8.477,26.109,15.597,37.976l-15.258,25.091c-3.052,5.086-2.374,11.528,2.034,15.597l19.327,19.327   c4.069,4.069,10.511,5.086,15.597,2.034l25.091-15.258c11.868,7.121,24.752,12.546,37.976,15.597l7.121,28.482   c1.356,5.764,6.442,9.833,12.546,9.833h27.126c5.764,0,10.85-4.069,12.546-9.833l7.121-28.482   c13.224-3.391,26.109-8.477,37.976-15.597l25.091,15.258c5.086,3.052,11.528,2.374,15.597-2.034l19.327-19.327   c4.069-4.069,5.086-10.511,2.034-15.597l-15.258-25.091c7.121-11.868,12.546-24.752,15.597-37.976l28.482-7.121   c5.764-1.356,9.833-6.442,9.833-12.546v-27.126c0-5.764-4.069-10.85-9.833-12.546l-28.482-7.121   c-3.391-13.224-8.477-26.109-15.597-37.976l15.258-25.091c3.052-5.086,2.373-11.528-2.034-15.597L299.74,56.625   C295.672,52.556,289.229,51.878,284.143,54.93z"/>
</g>
<circle style="fill:#F1F3F7;" cx="187.846" cy="187.846" r="105.452"/>
<circle style="fill:#6EB1E1;" cx="187.846" cy="187.846" r="91.889"/>
<path style="fill:#4F5565;" d="M341.446,295.332l-45.775,45.775c-4.069,4.069-4.069,10.511,0,14.58L408.244,468.26  c4.069,4.069,10.511,4.069,14.58,0l45.775-45.775c4.069-4.069,4.069-10.511,0-14.58L356.027,295.332  C351.619,291.603,345.176,291.603,341.446,295.332z"/>
<rect x="338.906" y="312.576" transform="matrix(0.7071 -0.7071 0.7071 0.7071 -158.2788 381.7131)" style="fill:#F0582F;" width="85.446" height="138.679"/>
<path style="fill:#FCFCFD;" d="M222.771,212.599c0-19.327-15.597-34.924-34.924-34.924c-8.138,0-14.919-6.781-14.919-14.919  c0-8.138,6.781-14.919,14.919-14.919c4.069,0,8.138,1.695,10.85,4.747c3.73,4.069,10.172,4.069,14.241,0.339  c4.069-3.73,4.069-10.172,0.339-14.241c-4.069-4.408-9.494-7.799-15.597-9.494v-6.781c0-5.425-4.408-9.833-9.833-9.833  c-5.425,0-9.833,4.408-9.833,9.833v6.781c-14.241,4.408-24.752,17.632-24.752,33.568c0,19.327,15.597,34.924,34.925,34.924  c8.138,0,14.919,6.781,14.919,14.919c0,8.138-6.781,14.919-14.919,14.919c-4.069,0-8.138-1.695-10.85-4.747  c-3.73-4.069-10.172-4.069-14.241-0.339s-4.069,10.172-0.339,14.241c4.069,4.408,9.494,7.799,15.597,9.494v6.781  c0,5.425,4.408,9.833,9.833,9.833c5.425,0,9.833-4.408,9.833-9.833v-6.781C212.26,241.759,222.771,228.535,222.771,212.599z"/>
<g>
</g>
<g>
</g>
<g>
</g>
<g>
</g>
<g>
</g>
<g>
</g>
<g>
</g>
<g>
</g>
<g>
</g>
<g>
</g>
<g>
</g>
<g>
</g>
<g>
</g>
<g>
</g>
<g>
</g>
</svg>
