<?xml version="1.0" encoding="iso-8859-1"?>
<!-- Generator: Adobe Illustrator 19.0.0, SVG Export Plug-In . SVG Version: 6.00 Build 0)  -->
<svg xmlns="http://www.w3.org/2000/svg" xmlns:xlink="http://www.w3.org/1999/xlink" version="1.1" id="Capa_1" x="0px" y="0px" viewBox="0 0 509.287 509.287" style="enable-background:new 0 0 509.287 509.287;" xml:space="preserve">
<circle style="fill:#FBD303;" cx="254.644" cy="254.644" r="254.644"/>
<path style="fill:#646B79;" d="M388.238,123.762H121.049c-16.275,0-28.821,12.207-27.465,26.787l19.666,229.552  c1.017,11.189,13.224,20.005,27.126,20.005h228.196c13.902,0,26.109-8.816,27.126-20.005l19.666-229.552  C417.06,135.968,404.853,123.762,388.238,123.762z"/>
<path style="fill:#4F5565;" d="M136.985,123.762v331.613c0,11.868,9.833,21.701,21.701,21.701h191.915  c11.868,0,21.701-9.833,21.701-21.701V123.762H136.985z"/>
<path style="fill:#6EB1E1;" d="M332.291,197.679H176.996c-7.121,0-12.546,5.764-12.546,13.224v60.016  c0,7.121,5.764,13.224,12.546,13.224h154.956c7.121,0,12.546-5.764,12.546-13.224v-60.355  C344.837,203.444,339.073,197.679,332.291,197.679z"/>
<g>
	<rect x="164.45" y="312.625" style="fill:#BDBDBE;" width="30.856" height="30.856"/>
	<rect x="214.294" y="312.625" style="fill:#BDBDBE;" width="30.856" height="30.856"/>
	<rect x="264.138" y="312.625" style="fill:#BDBDBE;" width="30.856" height="30.856"/>
	<rect x="313.642" y="312.625" style="fill:#BDBDBE;" width="30.856" height="30.856"/>
	<rect x="164.45" y="364.164" style="fill:#BDBDBE;" width="30.856" height="30.856"/>
	<rect x="214.294" y="364.164" style="fill:#BDBDBE;" width="30.856" height="30.856"/>
	<rect x="264.138" y="364.164" style="fill:#BDBDBE;" width="30.856" height="30.856"/>
	<rect x="313.642" y="364.164" style="fill:#BDBDBE;" width="30.856" height="82.395"/>
	<rect x="164.45" y="415.703" style="fill:#BDBDBE;" width="30.856" height="30.856"/>
	<rect x="214.294" y="415.703" style="fill:#BDBDBE;" width="30.856" height="30.856"/>
	<rect x="264.138" y="415.703" style="fill:#BDBDBE;" width="30.856" height="30.856"/>
</g>
<path style="fill:#DEDEDF;" d="M380.779,91.211h-43.74V54.252c0-12.207,9.833-22.04,22.04-22.04l0,0  c12.207,0,22.04,9.833,22.04,22.04v36.959H380.779z"/>
<path style="fill:#FCFCFD;" d="M337.038,54.252c0-12.207,9.833-22.04,22.04-22.04l0,0l0,0H194.289  c-12.207,0-22.04,9.833-22.04,22.04v115.285h164.789V54.252z"/>
<g>
	<rect x="192.932" y="69.171" style="fill:#DEDEDF;" width="50.183" height="12.207"/>
	<rect x="269.902" y="69.171" style="fill:#DEDEDF;" width="39.672" height="12.207"/>
	<rect x="192.932" y="101.722" style="fill:#DEDEDF;" width="77.309" height="12.207"/>
	<rect x="289.907" y="101.722" style="fill:#DEDEDF;" width="20.005" height="12.207"/>
	<rect x="192.932" y="133.934" style="fill:#DEDEDF;" width="25.091" height="12.207"/>
	<rect x="233.96" y="133.934" style="fill:#DEDEDF;" width="75.613" height="12.207"/>
</g>
<g>
</g>
<g>
</g>
<g>
</g>
<g>
</g>
<g>
</g>
<g>
</g>
<g>
</g>
<g>
</g>
<g>
</g>
<g>
</g>
<g>
</g>
<g>
</g>
<g>
</g>
<g>
</g>
<g>
</g>
</svg>
