<?xml version="1.0" encoding="iso-8859-1"?>
<!-- Generator: Adobe Illustrator 19.0.0, SVG Export Plug-In . SVG Version: 6.00 Build 0)  -->
<svg xmlns="http://www.w3.org/2000/svg" xmlns:xlink="http://www.w3.org/1999/xlink" version="1.1" id="Capa_1" x="0px" y="0px" viewBox="0 0 509.287 509.287" style="enable-background:new 0 0 509.287 509.287;" xml:space="preserve">
<circle style="fill:#71D456;" cx="254.644" cy="254.644" r="254.644"/>
<rect x="123.423" y="55.608" style="fill:#F1F3F7;" width="262.781" height="212.599"/>
<g>
	<rect x="162.416" y="90.872" style="fill:#DEDEDF;" width="184.795" height="12.885"/>
	<rect x="162.416" y="131.56" style="fill:#DEDEDF;" width="184.795" height="12.885"/>
	<rect x="162.416" y="171.91" style="fill:#DEDEDF;" width="184.795" height="12.885"/>
</g>
<path style="fill:#646B79;" d="M411.974,192.932H215.989c-4.747,0-9.494-1.695-13.224-5.086l-25.43-22.379  c-3.73-3.052-8.138-5.086-13.224-5.086H97.314c-10.85,0-19.666,8.816-19.666,19.666v217.007c0,10.85,8.816,19.666,19.666,19.666  h314.66c10.85,0,19.666-8.816,19.666-19.666V212.599C431.64,201.748,422.824,192.932,411.974,192.932z"/>
<path style="fill:#FCFCFD;" d="M307.539,358.061v-29.16c0-18.649,15.258-34.246,34.246-34.246c18.649,0,34.246,15.258,34.246,34.246  v29.16h14.58v-29.16c0-26.787-22.04-48.827-48.827-48.827c-26.787,0-48.826,22.04-48.826,48.827v29.16H307.539z"/>
<rect x="278.379" y="355.009" style="fill:#FBD303;" width="126.474" height="98.67"/>
<path style="fill:#4F5565;" d="M355.348,406.887c0-7.46-6.103-13.902-13.902-13.902c-7.46,0-13.902,6.103-13.902,13.902  c0,6.103,3.73,10.85,9.155,12.885v13.563c0,2.713,2.034,4.747,4.747,4.747s4.747-2.034,4.747-4.747v-13.563  C351.619,417.738,355.348,412.991,355.348,406.887z"/>
<g>
</g>
<g>
</g>
<g>
</g>
<g>
</g>
<g>
</g>
<g>
</g>
<g>
</g>
<g>
</g>
<g>
</g>
<g>
</g>
<g>
</g>
<g>
</g>
<g>
</g>
<g>
</g>
<g>
</g>
</svg>
