<?xml version="1.0" encoding="iso-8859-1"?>
<!-- Generator: Adobe Illustrator 19.0.0, SVG Export Plug-In . SVG Version: 6.00 Build 0)  -->
<svg xmlns="http://www.w3.org/2000/svg" xmlns:xlink="http://www.w3.org/1999/xlink" version="1.1" id="Capa_1" x="0px" y="0px" viewBox="0 0 509.287 509.287" style="enable-background:new 0 0 509.287 509.287;" xml:space="preserve">
<circle style="fill:#886C60;" cx="254.644" cy="254.644" r="254.644"/>
<path style="fill:#DEDEDF;" d="M465.547,91.211H43.74c-9.494,0-17.293,7.799-17.293,17.293v292.62  c0,9.494,7.799,17.293,17.293,17.293h421.468c9.494,0,17.293-7.799,17.293-17.293v-292.62  C482.84,99.009,475.041,91.211,465.547,91.211z"/>
<rect x="53.234" y="158.008" style="fill:#F1F3F7;" width="403.158" height="231.926"/>
<circle style="fill:#F0582F;" cx="64.085" cy="125.457" r="11.189"/>
<circle style="fill:#FBD303;" cx="99.009" cy="125.457" r="11.189"/>
<circle style="fill:#71D456;" cx="134.273" cy="125.457" r="11.189"/>
<path style="fill:#F8B517;" d="M399.428,266.85c0-15.258-12.546-27.804-27.804-27.804c-6.442,0-11.868-5.425-11.868-11.868  c0-6.442,5.425-11.868,11.868-11.868c3.391,0,6.442,1.356,8.816,3.73c3.052,3.052,8.138,3.391,11.189,0.339  c3.052-3.052,3.391-8.138,0.339-11.189c-3.391-3.73-7.799-6.103-12.207-7.46v-5.425c0-4.408-3.391-7.799-7.799-7.799  s-7.799,3.391-7.799,7.799v5.425c-11.528,3.391-19.666,13.902-19.666,26.448c0,15.258,12.546,27.804,27.804,27.804  c6.442,0,11.868,5.425,11.868,11.868c0,6.442-5.425,11.868-11.868,11.868c-3.391,0-6.442-1.356-8.816-3.73  c-3.052-3.052-8.138-3.391-11.189-0.339c-3.052,3.052-3.391,8.138-0.339,11.189c3.391,3.73,7.799,6.103,12.207,7.46v5.425  c0,4.408,3.391,7.799,7.799,7.799s7.799-3.391,7.799-7.799v-5.425C391.29,289.907,399.428,279.396,399.428,266.85z"/>
<rect x="75.274" y="180.048" style="fill:#6EB1E1;" width="207.173" height="188.185"/>
<polygon style="fill:#FCFCFD;" points="271.597,240.742 178.691,191.915 85.785,240.742 "/>
<g>
	<rect x="100.026" y="253.626" style="fill:#F1F3F7;" width="18.649" height="76.97"/>
	<rect x="146.479" y="253.626" style="fill:#F1F3F7;" width="18.649" height="76.97"/>
	<rect x="192.593" y="253.626" style="fill:#F1F3F7;" width="18.649" height="76.97"/>
	<rect x="238.707" y="253.626" style="fill:#F1F3F7;" width="18.649" height="76.97"/>
</g>
<rect x="85.785" y="343.481" style="fill:#FCFCFD;" width="185.812" height="13.224"/>
<g>
	<rect x="93.923" y="330.596" style="fill:#DEDEDF;" width="169.875" height="13.224"/>
	<rect x="93.584" y="240.403" style="fill:#DEDEDF;" width="170.554" height="13.224"/>
</g>
<circle style="fill:#BDBDBE;" cx="178.691" cy="218.702" r="10.85"/>
<g>
	<rect x="311.608" y="325.51" style="fill:#DEDEDF;" width="120.371" height="11.868"/>
	<rect x="311.608" y="356.366" style="fill:#DEDEDF;" width="120.371" height="11.868"/>
</g>
<g>
</g>
<g>
</g>
<g>
</g>
<g>
</g>
<g>
</g>
<g>
</g>
<g>
</g>
<g>
</g>
<g>
</g>
<g>
</g>
<g>
</g>
<g>
</g>
<g>
</g>
<g>
</g>
<g>
</g>
</svg>
