<?xml version="1.0" encoding="iso-8859-1"?>
<!-- Generator: Adobe Illustrator 19.0.0, SVG Export Plug-In . SVG Version: 6.00 Build 0)  -->
<svg xmlns="http://www.w3.org/2000/svg" xmlns:xlink="http://www.w3.org/1999/xlink" version="1.1" id="Capa_1" x="0px" y="0px" viewBox="0 0 509.287 509.287" style="enable-background:new 0 0 509.287 509.287;" xml:space="preserve">
<circle style="fill:#F0582F;" cx="254.644" cy="254.644" r="254.644"/>
<path style="fill:#646B79;" d="M333.648,36.281H175.64c-26.787,0-48.826,21.701-48.826,48.826v270.919  c0,26.787,21.701,48.827,48.826,48.827h157.669c26.787,0,48.826-21.701,48.826-48.827V85.107  C382.135,58.321,360.434,36.281,333.648,36.281z"/>
<path style="fill:#F1F3F7;" d="M348.228,26.787H161.06c-10.511,0-18.988,8.477-18.988,18.988V310.93  c0,10.511,8.477,18.988,18.988,18.988h187.168c10.511,0,18.988-8.477,18.988-18.988V45.775  C367.216,35.264,358.739,26.787,348.228,26.787z"/>
<g>
	<rect x="173.944" y="256.339" style="fill:#DEDEDF;" width="42.723" height="22.04"/>
	<rect x="233.282" y="256.339" style="fill:#DEDEDF;" width="42.723" height="22.04"/>
	<rect x="292.62" y="256.339" style="fill:#DEDEDF;" width="42.723" height="22.04"/>
</g>
<path style="fill:#393D47;" d="M331.952,300.758H177.335c-8.138,0-14.58,6.442-14.58,14.58l0,0c0,8.138,6.442,14.58,14.58,14.58  h154.278c8.138,0,14.58-6.442,14.58-14.58l0,0C346.193,307.2,339.751,300.758,331.952,300.758z"/>
<rect x="173.944" y="55.608" style="fill:#6EB1E1;" width="161.06" height="108.503"/>
<g>
	<rect x="173.944" y="180.387" style="fill:#DEDEDF;" width="42.723" height="22.04"/>
	<rect x="233.282" y="180.387" style="fill:#DEDEDF;" width="42.723" height="22.04"/>
	<rect x="292.62" y="180.387" style="fill:#DEDEDF;" width="42.723" height="22.04"/>
	<rect x="173.944" y="218.363" style="fill:#DEDEDF;" width="42.723" height="22.04"/>
	<rect x="233.282" y="218.363" style="fill:#DEDEDF;" width="42.723" height="22.04"/>
	<rect x="292.62" y="218.363" style="fill:#DEDEDF;" width="42.723" height="22.04"/>
</g>
<path style="fill:#6EB1E1;" d="M173.944,313.981v162.755c0,10.85,8.816,19.327,19.327,19.327h122.405  c10.85,0,19.327-8.816,19.327-19.327V313.981H173.944z"/>
<rect x="257.695" y="313.981" style="fill:#414753;" width="48.826" height="182.082"/>
<g>
	<rect x="195.306" y="313.981" style="fill:#4C94C1;" width="12.546" height="56.964"/>
	<rect x="195.306" y="407.905" style="fill:#4C94C1;" width="12.546" height="56.964"/>
	<rect x="226.84" y="313.981" style="fill:#4C94C1;" width="12.546" height="56.964"/>
</g>
<g>
</g>
<g>
</g>
<g>
</g>
<g>
</g>
<g>
</g>
<g>
</g>
<g>
</g>
<g>
</g>
<g>
</g>
<g>
</g>
<g>
</g>
<g>
</g>
<g>
</g>
<g>
</g>
<g>
</g>
</svg>
