<?xml version="1.0" encoding="iso-8859-1"?>
<!-- Generator: Adobe Illustrator 19.0.0, SVG Export Plug-In . SVG Version: 6.00 Build 0)  -->
<svg xmlns="http://www.w3.org/2000/svg" xmlns:xlink="http://www.w3.org/1999/xlink" version="1.1" id="Capa_1" x="0px" y="0px" viewBox="0 0 509.287 509.287" style="enable-background:new 0 0 509.287 509.287;" xml:space="preserve">
<circle style="fill:#4F5565;" cx="254.644" cy="254.644" r="254.644"/>
<path style="fill:#BDBDBE;" d="M460.461,118.675c0-7.799-6.442-14.241-14.241-14.241H63.068c-7.799,0-14.241,6.442-14.241,14.241  v240.742H460.8V118.675H460.461z"/>
<g>
	<rect x="68.154" y="122.066" style="fill:#F1F3F7;" width="373.319" height="219.719"/>
	<path style="fill:#F1F3F7;" d="M48.826,359.417v32.89c0,7.799,6.442,14.241,14.241,14.241H446.22   c7.799,0,14.241-6.442,14.241-14.241v-32.89H48.826z"/>
</g>
<rect x="227.518" y="406.887" style="fill:#DEDEDF;" width="53.913" height="40.35"/>
<path style="fill:#F1F3F7;" d="M316.355,447.237H192.932c-13.902,0-25.43,11.528-25.43,25.43h174.623  C341.785,458.766,330.596,447.237,316.355,447.237z"/>
<circle style="fill:#FBD303;" cx="254.644" cy="383.152" r="10.85"/>
<polygon style="fill:#646B79;" points="126.813,261.086 122.405,253.626 187.507,214.972 254.983,179.709 319.068,228.535   381.457,154.278 387.899,159.703 320.424,240.403 254.305,189.542 191.576,222.432 "/>
<rect x="107.486" y="293.637" style="fill:#71D456;" width="34.246" height="30.177"/>
<rect x="172.588" y="254.305" style="fill:#FBD303;" width="34.246" height="69.849"/>
<rect x="237.69" y="231.587" style="fill:#6EB1E1;" width="34.246" height="92.567"/>
<rect x="302.453" y="269.902" style="fill:#4B5AA7;" width="34.246" height="54.252"/>
<g>
	<rect x="367.555" y="201.748" style="fill:#F0582F;" width="34.246" height="122.405"/>
	<circle style="fill:#F0582F;" cx="384.848" cy="156.991" r="16.954"/>
</g>
<circle style="fill:#4B5AA7;" cx="319.746" cy="234.299" r="16.954"/>
<circle style="fill:#6EB1E1;" cx="254.644" cy="184.456" r="16.954"/>
<circle style="fill:#FBD303;" cx="189.542" cy="218.702" r="16.954"/>
<circle style="fill:#71D456;" cx="124.44" cy="257.356" r="16.954"/>
<g>
</g>
<g>
</g>
<g>
</g>
<g>
</g>
<g>
</g>
<g>
</g>
<g>
</g>
<g>
</g>
<g>
</g>
<g>
</g>
<g>
</g>
<g>
</g>
<g>
</g>
<g>
</g>
<g>
</g>
</svg>
