<?xml version="1.0" encoding="iso-8859-1"?>
<!-- Generator: Adobe Illustrator 19.0.0, SVG Export Plug-In . SVG Version: 6.00 Build 0)  -->
<svg xmlns="http://www.w3.org/2000/svg" xmlns:xlink="http://www.w3.org/1999/xlink" version="1.1" id="Capa_1" x="0px" y="0px" viewBox="0 0 509.287 509.287" style="enable-background:new 0 0 509.287 509.287;" xml:space="preserve">
<circle style="fill:#F1F3F7;" cx="254.644" cy="254.644" r="254.644"/>
<path style="fill:#4F5565;" d="M377.388,277.701H263.121v-66.797h-16.954v66.797H131.899c-17.971,0-32.212,14.58-32.212,32.212  v32.212h17.293v-32.212c0-8.477,6.781-15.258,15.258-15.258h113.928v47.131h16.954v-46.792h114.268  c8.477,0,15.258,6.781,15.258,15.258v32.212h17.293v-32.212C409.939,292.281,395.359,277.701,377.388,277.701z"/>
<rect x="89.854" y="64.085" style="fill:#71D456;" width="329.918" height="169.536"/>
<path style="fill:#FCFCFD;" d="M373.319,218.024H135.968c0-15.597-12.546-28.143-28.143-28.143v-82.056  c15.597,0,28.143-12.546,28.143-28.143H372.98c0,15.597,12.546,28.143,28.143,28.143v82.395  C385.865,189.881,373.319,202.426,373.319,218.024z"/>
<g>
	<circle style="fill:#71D456;" cx="254.644" cy="148.853" r="56.964"/>
	<circle style="fill:#71D456;" cx="148.853" cy="148.853" r="13.224"/>
	<circle style="fill:#71D456;" cx="360.434" cy="148.853" r="13.224"/>
</g>
<path style="fill:#FCFCFD;" d="M278.04,165.468c0-12.885-10.511-23.396-23.396-23.396c-5.425,0-9.833-4.408-9.833-9.833  c0-5.425,4.408-9.833,9.833-9.833c2.713,0,5.425,1.017,7.121,3.052c2.374,2.713,6.781,2.713,9.494,0.339  c2.713-2.374,2.713-6.781,0.339-9.494c-2.713-3.052-6.442-5.086-10.172-6.442v-4.747c0-3.73-3.052-6.781-6.781-6.781  s-6.781,3.052-6.781,6.781v4.747c-9.494,2.713-16.615,11.868-16.615,22.379c0,12.885,10.511,23.396,23.396,23.396  c5.425,0,9.833,4.408,9.833,9.833s-4.408,9.833-9.833,9.833c-2.713,0-5.425-1.017-7.121-3.052c-2.374-2.713-6.781-2.713-9.494-0.339  c-2.713,2.374-2.713,6.781-0.339,9.494c2.713,3.052,6.442,5.086,10.172,6.442v4.747c0,3.73,3.052,6.781,6.781,6.781  s6.781-3.052,6.781-6.781v-4.747C270.919,184.795,278.04,175.979,278.04,165.468z"/>
<path style="fill:#F0582F;" d="M139.02,330.935H76.97c-10.511,0-19.327,8.477-19.327,19.327v62.05  c0,10.511,8.477,19.327,19.327,19.327h62.05c10.511,0,19.327-8.477,19.327-19.327v-62.05  C158.347,339.751,149.87,330.935,139.02,330.935z"/>
<path style="fill:#6EB1E1;" d="M285.499,330.935h-61.711c-10.511,0-19.327,8.477-19.327,19.327v62.05  c0,10.511,8.477,19.327,19.327,19.327h62.05c10.511,0,19.327-8.477,19.327-19.327v-62.05  C304.827,339.751,296.35,330.935,285.499,330.935z"/>
<path style="fill:#4957B8;" d="M432.318,330.935h-62.05c-10.511,0-19.327,8.477-19.327,19.327v62.05  c0,10.511,8.477,19.327,19.327,19.327h62.05c10.511,0,19.327-8.477,19.327-19.327v-62.05  C451.645,339.751,442.829,330.935,432.318,330.935z"/>
<g>
</g>
<g>
</g>
<g>
</g>
<g>
</g>
<g>
</g>
<g>
</g>
<g>
</g>
<g>
</g>
<g>
</g>
<g>
</g>
<g>
</g>
<g>
</g>
<g>
</g>
<g>
</g>
<g>
</g>
</svg>
