<?xml version="1.0" encoding="iso-8859-1"?>
<!-- Generator: Adobe Illustrator 19.0.0, SVG Export Plug-In . SVG Version: 6.00 Build 0)  -->
<svg xmlns="http://www.w3.org/2000/svg" xmlns:xlink="http://www.w3.org/1999/xlink" version="1.1" id="Capa_1" x="0px" y="0px" viewBox="0 0 509.287 509.287" style="enable-background:new 0 0 509.287 509.287;" xml:space="preserve">
<circle style="fill:#6EB1E1;" cx="254.644" cy="254.644" r="254.644"/>
<path style="fill:#646B79;" d="M428.927,115.624H80.36c-9.155,0-16.615,7.46-16.615,16.615v219.719h382.135v-219.38  C445.881,123.083,438.421,115.624,428.927,115.624z"/>
<rect x="81.717" y="132.238" style="fill:#F1F3F7;" width="345.515" height="203.444"/>
<path style="fill:#414753;" d="M34.924,352.297c0,22.718,17.632,41.367,39.332,41.367h360.434c21.701,0,39.332-18.649,39.332-41.367  H34.924z"/>
<rect x="200.392" y="352.297" style="fill:#333842;" width="108.842" height="10.511"/>
<path style="fill:#71D456;" d="M260.408,237.351l52.217,56.625c14.919-14.58,24.752-34.585,25.43-56.625L260.408,237.351  L260.408,237.351z"/>
<path style="fill:#4B5AA7;" d="M251.253,237.351L251.253,237.351v-86.803c-44.419,1.695-80.021,38.315-80.021,83.412  c0,46.114,37.298,83.412,83.412,83.412c20.005,0,38.654-7.121,52.895-18.988L251.253,237.351z"/>
<path style="fill:#F0582F;" d="M258.034,230.57h80.021c-1.695-43.401-36.62-78.326-80.021-80.021V230.57z"/>
<g>
</g>
<g>
</g>
<g>
</g>
<g>
</g>
<g>
</g>
<g>
</g>
<g>
</g>
<g>
</g>
<g>
</g>
<g>
</g>
<g>
</g>
<g>
</g>
<g>
</g>
<g>
</g>
<g>
</g>
</svg>
