<?xml version="1.0" encoding="iso-8859-1"?>
<!-- Generator: Adobe Illustrator 19.0.0, SVG Export Plug-In . SVG Version: 6.00 Build 0)  -->
<svg xmlns="http://www.w3.org/2000/svg" xmlns:xlink="http://www.w3.org/1999/xlink" version="1.1" id="Capa_1" x="0px" y="0px" viewBox="0 0 509.287 509.287" style="enable-background:new 0 0 509.287 509.287;" xml:space="preserve">
<circle style="fill:#4F5565;" cx="254.644" cy="254.644" r="254.644"/>
<path style="fill:#FFFFFF;" d="M478.432,262.781c0-36.959-29.838-66.797-66.797-66.797c-2.713,0-5.425,0.339-7.799,0.678  c1.695-4.069,2.374-8.477,2.374-12.885c0-20.005-16.276-36.281-36.281-36.281c-7.799,0-14.919,2.374-21.022,6.781  c-7.46-49.844-50.522-87.82-102.4-87.82c-55.269,0-100.366,43.401-103.417,97.992c-8.477-3.052-17.971-4.747-27.465-4.747  c-46.792,0-85.107,37.976-85.107,85.107c0,46.792,37.976,85.107,85.107,85.107h302.114v-0.339  C451.984,325.849,478.432,297.367,478.432,262.781z"/>
<circle style="fill:#FBD303;" cx="254.644" cy="323.136" r="120.032"/>
<circle style="fill:#F8B517;" cx="254.644" cy="323.136" r="103.756"/>
<circle style="fill:#FBD303;" cx="254.644" cy="323.136" r="81.038"/>
<path style="fill:#FCFCFD;" d="M281.43,342.125c0-14.919-12.207-26.787-26.787-26.787c-6.442,0-11.528-5.086-11.528-11.528  s5.086-11.528,11.528-11.528c3.052,0,6.103,1.356,8.477,3.73c3.052,3.052,7.799,3.391,10.85,0.339s3.391-7.799,0.339-10.85  c-3.391-3.391-7.46-6.103-11.868-7.46v-5.425c0-4.408-3.391-7.799-7.799-7.799s-7.799,3.391-7.799,7.799v5.425  c-11.189,3.391-19.327,13.563-19.327,25.77c0,14.919,12.207,26.787,26.787,26.787c6.442,0,11.528,5.086,11.528,11.528  s-5.086,11.528-11.528,11.528c-3.052,0-6.103-1.356-8.477-3.73c-3.052-3.052-7.799-3.391-10.85-0.339  c-3.052,3.052-3.391,7.799-0.339,10.85c3.391,3.391,7.46,6.103,11.868,7.46v5.425c0,4.408,3.391,7.799,7.799,7.799  c4.408,0,7.799-3.391,7.799-7.799v-5.425C273.293,364.503,281.43,354.331,281.43,342.125z"/>
<g>
</g>
<g>
</g>
<g>
</g>
<g>
</g>
<g>
</g>
<g>
</g>
<g>
</g>
<g>
</g>
<g>
</g>
<g>
</g>
<g>
</g>
<g>
</g>
<g>
</g>
<g>
</g>
<g>
</g>
</svg>
