<?xml version="1.0" encoding="iso-8859-1"?>
<!-- Generator: Adobe Illustrator 19.0.0, SVG Export Plug-In . SVG Version: 6.00 Build 0)  -->
<svg xmlns="http://www.w3.org/2000/svg" xmlns:xlink="http://www.w3.org/1999/xlink" version="1.1" id="Capa_1" x="0px" y="0px" viewBox="0 0 509.287 509.287" style="enable-background:new 0 0 509.287 509.287;" xml:space="preserve">
<circle style="fill:#6EB1E1;" cx="254.644" cy="254.644" r="254.644"/>
<path style="fill:#4F5565;" d="M379.083,44.419H130.204c-5.764,0-10.511,4.747-10.511,10.511v399.089  c0,5.764,4.747,10.511,10.511,10.511h248.879c5.764,0,10.511-4.747,10.511-10.511V54.93  C389.595,49.166,384.848,44.419,379.083,44.419z"/>
<rect x="142.072" y="82.395" style="fill:#F1F3F7;" width="224.805" height="318.728"/>
<g>
	<circle style="fill:#414753;" cx="254.644" cy="431.301" r="17.971"/>
	<path style="fill:#414753;" d="M275.327,59.677H233.96c-2.713,0-5.086,2.374-5.086,5.086c0,2.713,2.373,5.086,5.086,5.086h41.367   c2.713,0,5.086-2.374,5.086-5.086C280.074,62.05,278.04,59.677,275.327,59.677z"/>
	<polygon style="fill:#414753;" points="327.544,134.273 254.644,95.619 181.743,134.273  "/>
</g>
<g>
	<rect x="192.932" y="141.054" style="fill:#6EB1E1;" width="14.58" height="63.407"/>
	<rect x="218.702" y="141.054" style="fill:#6EB1E1;" width="14.58" height="63.407"/>
	<rect x="276.005" y="141.054" style="fill:#6EB1E1;" width="14.58" height="63.407"/>
	<rect x="301.775" y="141.054" style="fill:#6EB1E1;" width="14.58" height="63.407"/>
</g>
<rect x="181.743" y="210.564" style="fill:#414753;" width="145.801" height="10.172"/>
<circle style="fill:#FCFCFD;" cx="254.644" cy="116.98" r="8.477"/>
<path style="fill:#F8B517;" d="M267.528,182.082c0-7.121-5.764-12.885-12.885-12.885c-3.052,0-5.425-2.374-5.425-5.425  s2.374-5.425,5.425-5.425c1.695,0,3.052,0.678,4.069,1.695c1.356,1.356,3.73,1.695,5.086,0c1.356-1.356,1.695-3.73,0-5.086  c-1.695-1.695-3.73-2.713-5.764-3.391v-2.713c0-2.034-1.695-3.73-3.73-3.73s-3.73,1.695-3.73,3.73v2.374  c-5.425,1.695-9.155,6.442-9.155,12.546c0,7.121,5.764,12.885,12.885,12.885c3.052,0,5.425,2.374,5.425,5.425  c0,3.052-2.374,5.425-5.425,5.425c-1.695,0-3.052-0.678-4.069-1.695c-1.356-1.356-3.73-1.695-5.086,0s-1.695,3.73,0,5.086  c1.695,1.695,3.73,2.713,5.764,3.391v2.713c0,2.034,1.695,3.73,3.73,3.73c2.034,0,3.73-1.695,3.73-3.73v-2.713  C263.799,192.932,267.528,187.846,267.528,182.082z"/>
<rect x="142.072" y="235.995" style="fill:#F0582F;" width="224.805" height="65.441"/>
<g>
	<path style="fill:#FFFFFF;" d="M293.637,246.506c-2.034,0-3.73,1.695-3.73,3.73v36.62c0,2.034,1.695,3.73,3.73,3.73   s3.73-1.695,3.73-3.73v-36.62C297.367,248.201,295.672,246.506,293.637,246.506z"/>
	<path style="fill:#FFFFFF;" d="M278.718,269.902h-17.971c-2.034,0-3.73,1.695-3.73,3.73s1.695,3.73,3.73,3.73h12.207   c-2.713,3.73-7.121,6.103-11.868,6.103c-8.138,0-14.919-6.781-14.919-14.919s6.442-14.58,14.58-14.58   c5.086,0,10.172,2.713,12.546,7.46c1.017,1.695,3.391,2.374,5.086,1.356c1.695-1.017,2.373-3.391,1.356-5.086   c-4.069-6.781-11.189-10.85-18.988-10.85c-12.207,0-22.04,9.833-22.04,22.04c0,12.207,9.833,22.04,22.04,22.04   c9.833,0,18.649-6.781,21.362-16.276c0.339-1.017,0-2.374-0.678-3.052C280.752,270.241,279.735,269.902,278.718,269.902z"/>
	<path style="fill:#FFFFFF;" d="M338.395,246.506c-2.034,0-3.73,1.695-3.73,3.73v25.77l-21.362-28.143   c-1.017-1.356-2.713-1.695-4.069-1.356c-1.356,0.339-2.374,2.034-2.374,3.391v36.959c0,2.034,1.695,3.73,3.73,3.73   s3.73-1.695,3.73-3.73v-25.77l21.362,28.143c0.678,1.017,1.695,1.356,3.052,1.356c0.339,0,0.678,0,1.017-0.339   c1.356-0.339,2.374-2.034,2.374-3.391v-36.62C342.125,248.201,340.429,246.506,338.395,246.506z"/>
	<path style="fill:#FFFFFF;" d="M185.473,283.465h-10.85v-32.89c0-2.034-1.695-3.73-3.73-3.73c-2.034,0-3.73,1.695-3.73,3.73v36.281   c0,2.034,1.695,3.73,3.73,3.73h14.58c2.034,0,3.73-1.695,3.73-3.73C188.864,284.821,187.168,283.465,185.473,283.465z"/>
	<path style="fill:#FFFFFF;" d="M211.242,246.506c-12.207,0-22.04,9.833-22.04,22.04s9.833,22.04,22.04,22.04   s22.04-9.833,22.04-22.04C233.282,256.678,223.449,246.506,211.242,246.506z M211.242,283.465c-8.138,0-14.58-6.442-14.58-14.58   c0-8.138,6.442-14.58,14.58-14.58s14.58,6.442,14.58,14.58C225.823,276.683,219.38,283.465,211.242,283.465z"/>
</g>
<rect x="176.996" y="319.746" style="fill:#A8D490;" width="155.634" height="17.632"/>
<rect x="176.996" y="357.044" style="fill:#DEDEDF;" width="155.634" height="17.632"/>
<g>
</g>
<g>
</g>
<g>
</g>
<g>
</g>
<g>
</g>
<g>
</g>
<g>
</g>
<g>
</g>
<g>
</g>
<g>
</g>
<g>
</g>
<g>
</g>
<g>
</g>
<g>
</g>
<g>
</g>
</svg>
