<?xml version="1.0" encoding="iso-8859-1"?>
<!-- Generator: Adobe Illustrator 19.0.0, SVG Export Plug-In . SVG Version: 6.00 Build 0)  -->
<svg xmlns="http://www.w3.org/2000/svg" xmlns:xlink="http://www.w3.org/1999/xlink" version="1.1" id="Capa_1" x="0px" y="0px" viewBox="0 0 509.287 509.287" style="enable-background:new 0 0 509.287 509.287;" xml:space="preserve">
<circle style="fill:#4F5565;" cx="254.644" cy="254.644" r="254.644"/>
<path style="fill:#FCFCFD;" d="M432.657,108.842H76.63c-7.46,0-13.224,6.103-13.224,13.224v246.167  c0,7.46,6.103,13.224,13.224,13.224h356.026c7.46,0,13.224-6.103,13.224-13.224V122.066  C445.881,114.946,440.117,108.842,432.657,108.842z"/>
<rect x="89.176" y="132.917" style="fill:#6EB1E1;" width="330.935" height="224.805"/>
<rect x="200.392" y="381.796" style="fill:#DEDEDF;" width="108.164" height="50.183"/>
<path style="fill:#FCFCFD;" d="M312.964,431.979H196.323c-16.275,0-29.499,13.224-29.499,29.499h175.64  C342.464,445.203,329.24,431.979,312.964,431.979z"/>
<g>
	<path style="fill:#4B5AA7;" d="M189.881,172.249c-1.017-2.374-3.052-3.73-5.425-3.73s-4.747,1.356-5.425,3.73l-22.379,58.321   c-1.017,3.052,0.339,6.442,3.391,7.799c2.713,1.017,6.442-0.339,7.799-3.391l5.425-13.563h23.057l5.425,13.563   c1.017,3.052,4.747,4.408,7.799,3.391c3.052-1.017,4.408-4.747,3.391-7.799L189.881,172.249z M177.335,209.208l7.121-18.31   l7.121,18.31H177.335z"/>
	<path style="fill:#4B5AA7;" d="M138.681,168.18h-15.597c-3.391,0-5.764,2.713-5.764,5.764v29.499v29.16   c0,3.391,2.713,5.764,5.764,5.764c3.391,0,5.764-2.713,5.764-5.764v-22.718h9.494c11.528,0,20.683-9.155,20.683-20.683   C159.364,177.674,150.209,168.18,138.681,168.18z M138.681,197.679h-9.494v-17.632h9.494c4.747,0,8.816,4.069,8.816,8.816   C147.497,193.95,143.767,197.679,138.681,197.679z"/>
	<path style="fill:#4B5AA7;" d="M255.661,168.858c-2.713-1.695-6.442-0.678-8.138,2.034l-15.936,25.77l-15.936-25.77   c-1.695-2.713-5.425-3.73-8.138-2.034s-3.73,5.425-2.034,8.138l20.005,32.551v23.396c0,3.391,2.713,5.764,5.764,5.764   c3.391,0,5.764-2.713,5.764-5.764v-23.396l20.005-32.551C259.391,174.283,258.713,170.554,255.661,168.858z"/>
	<path style="fill:#4B5AA7;" d="M282.448,168.18c-3.391,0-5.764,2.713-5.764,5.764v40.689c0,3.391,2.713,5.764,5.764,5.764   c3.391,0,5.764-2.713,5.764-5.764v-40.689C288.551,170.893,285.838,168.18,282.448,168.18z"/>
	<path style="fill:#4B5AA7;" d="M282.448,224.127c-3.391,0-5.764,2.713-5.764,5.764v3.052c0,3.391,2.713,5.764,5.764,5.764   c3.391,0,5.764-2.713,5.764-5.764v-3.052C288.551,226.84,285.838,224.127,282.448,224.127z"/>
</g>
<polygon style="fill:#4F5565;" points="307.539,238.368 345.854,322.797 357.383,288.551 391.968,276.683 "/>
<g>
</g>
<g>
</g>
<g>
</g>
<g>
</g>
<g>
</g>
<g>
</g>
<g>
</g>
<g>
</g>
<g>
</g>
<g>
</g>
<g>
</g>
<g>
</g>
<g>
</g>
<g>
</g>
<g>
</g>
</svg>
