<?xml version="1.0" encoding="iso-8859-1"?>
<!-- Generator: Adobe Illustrator 19.0.0, SVG Export Plug-In . SVG Version: 6.00 Build 0)  -->
<svg xmlns="http://www.w3.org/2000/svg" xmlns:xlink="http://www.w3.org/1999/xlink" version="1.1" id="Capa_1" x="0px" y="0px" viewBox="0 0 509.287 509.287" style="enable-background:new 0 0 509.287 509.287;" xml:space="preserve">
<circle style="fill:#EE4A68;" cx="254.644" cy="254.644" r="254.644"/>
<rect x="122.405" y="132.238" style="fill:#4F5565;" width="264.477" height="139.698"/>
<rect x="122.405" y="132.238" style="fill:#646B79;" width="264.477" height="5.764"/>
<rect x="155.295" y="156.991" style="fill:#6EB1E1;" width="198.358" height="89.854"/>
<polygon style="fill:#646B79;" points="386.882,271.936 122.405,271.936 87.481,398.072 421.807,398.072 "/>
<rect x="87.481" y="398.072" style="fill:#DEDEDF;" width="333.987" height="21.362"/>
<g>
	<rect x="175.979" y="288.212" style="fill:#F1F3F7;" width="38.993" height="21.362"/>
	<rect x="235.317" y="288.212" style="fill:#F1F3F7;" width="38.993" height="21.362"/>
	<rect x="294.654" y="288.212" style="fill:#F1F3F7;" width="38.993" height="21.362"/>
	<rect x="175.979" y="324.154" style="fill:#F1F3F7;" width="38.993" height="21.362"/>
	<rect x="235.317" y="324.154" style="fill:#F1F3F7;" width="38.993" height="21.362"/>
	<rect x="294.654" y="324.154" style="fill:#F1F3F7;" width="38.993" height="21.362"/>
	<rect x="175.979" y="360.434" style="fill:#F1F3F7;" width="38.993" height="21.362"/>
	<rect x="235.317" y="360.434" style="fill:#F1F3F7;" width="38.993" height="21.362"/>
	<rect x="294.654" y="360.434" style="fill:#F1F3F7;" width="38.993" height="21.362"/>
</g>
<polygon style="fill:#FFFFFC;" points="322.797,35.603 308.895,49.505 295.332,35.603 281.77,49.505 268.207,35.603 254.644,49.505   241.081,35.603 227.518,49.505 213.955,35.603 200.392,49.505 186.49,35.603 173.605,48.826 173.605,132.238 335.682,132.238   335.682,48.826 "/>
<g>
	<rect x="190.559" y="69.171" style="fill:#F1F3F7;" width="42.723" height="7.799"/>
	<rect x="246.167" y="69.171" style="fill:#F1F3F7;" width="29.838" height="7.799"/>
	<rect x="299.401" y="69.171" style="fill:#F1F3F7;" width="19.327" height="7.799"/>
	<rect x="190.559" y="88.498" style="fill:#F1F3F7;" width="23.057" height="7.799"/>
	<rect x="224.805" y="88.498" style="fill:#F1F3F7;" width="46.453" height="7.799"/>
	<rect x="280.074" y="88.498" style="fill:#F1F3F7;" width="38.654" height="7.799"/>
	<rect x="190.559" y="107.825" style="fill:#F1F3F7;" width="55.608" height="7.799"/>
	<rect x="256.339" y="107.825" style="fill:#F1F3F7;" width="29.838" height="7.799"/>
	<rect x="294.315" y="107.825" style="fill:#F1F3F7;" width="24.413" height="7.799"/>
</g>
<path style="fill:#FCFCFD;" d="M271.258,213.955c0-9.155-7.46-16.615-16.615-16.615c-3.73,0-7.121-3.052-7.121-7.121  c0-3.73,3.052-7.121,7.121-7.121c2.034,0,3.73,0.678,5.086,2.374c1.695,2.034,4.747,2.034,6.781,0.339  c2.034-1.695,2.034-4.747,0.339-6.781c-2.034-2.034-4.408-3.73-7.46-4.408v-3.391c0-2.713-2.034-4.747-4.747-4.747  c-2.713,0-4.747,2.034-4.747,4.747v3.391c-6.781,2.034-11.868,8.477-11.868,15.936c0,9.155,7.46,16.615,16.615,16.615  c3.73,0,7.121,3.052,7.121,7.121c0,3.73-3.052,7.121-7.121,7.121c-2.034,0-3.73-0.678-5.086-2.374  c-1.695-2.034-4.747-2.034-6.781-0.339s-2.034,4.747-0.339,6.781c2.034,2.034,4.408,3.73,7.46,4.408v3.391  c0,2.713,2.034,4.747,4.747,4.747c2.713,0,4.747-2.034,4.747-4.747v-3.391C266.172,227.518,271.258,221.415,271.258,213.955z"/>
<g>
</g>
<g>
</g>
<g>
</g>
<g>
</g>
<g>
</g>
<g>
</g>
<g>
</g>
<g>
</g>
<g>
</g>
<g>
</g>
<g>
</g>
<g>
</g>
<g>
</g>
<g>
</g>
<g>
</g>
</svg>
