<?xml version="1.0" encoding="iso-8859-1"?>
<!-- Generator: Adobe Illustrator 19.0.0, SVG Export Plug-In . SVG Version: 6.00 Build 0)  -->
<svg xmlns="http://www.w3.org/2000/svg" xmlns:xlink="http://www.w3.org/1999/xlink" version="1.1" id="Capa_1" x="0px" y="0px" viewBox="0 0 509.287 509.287" style="enable-background:new 0 0 509.287 509.287;" xml:space="preserve">
<circle style="fill:#6C5FA9;" cx="254.644" cy="254.644" r="254.644"/>
<polygon style="fill:#FCFCFD;" points="341.785,60.355 104.773,60.355 104.773,448.932 404.514,448.932 404.514,123.083 "/>
<polygon style="fill:#F1F3F7;" points="341.785,123.083 404.514,123.083 341.785,60.355 "/>
<g>
	<path style="fill:#F0582F;" d="M184.456,93.923c-2.034,0-4.069,1.695-4.069,4.069v38.993c0,2.034,1.695,4.069,4.069,4.069   c2.034,0,4.069-1.695,4.069-4.069V97.653C188.185,95.619,186.49,93.923,184.456,93.923z"/>
	<path style="fill:#F0582F;" d="M174.962,107.486c0-7.46-6.103-13.563-13.563-13.563h-10.172c-2.034,0-4.069,1.695-4.069,4.069   v19.327l0,0l0,0v19.327c0,2.034,1.695,4.069,4.069,4.069h10.172c7.46,0,13.563-6.103,13.563-13.563c0-3.73-1.695-7.121-4.069-9.833   C173.266,114.607,174.962,111.216,174.962,107.486z M154.956,101.722h6.442c3.052,0,5.764,2.713,5.764,5.764   s-2.713,5.764-5.764,5.764h-6.442V101.722z M161.399,132.917h-6.442v-11.528h6.442c3.052,0,5.764,2.713,5.764,5.764   S164.45,132.917,161.399,132.917z"/>
	<path style="fill:#F0582F;" d="M214.633,132.917h-11.528V97.653c0-2.034-1.695-4.069-4.069-4.069c-2.034,0-4.069,1.695-4.069,4.069   v38.993c0,2.034,1.695,4.069,4.069,4.069h15.258c2.034,0,4.069-1.695,4.069-4.069C218.363,134.612,216.668,132.917,214.633,132.917   z"/>
	<path style="fill:#F0582F;" d="M242.776,132.917h-11.528V97.653c0-2.034-1.695-4.069-4.069-4.069c-2.373,0-4.069,1.695-4.069,4.069   v38.993c0,2.034,1.695,4.069,4.069,4.069h15.597c2.034,0,4.069-1.695,4.069-4.069C246.506,134.612,244.811,132.917,242.776,132.917   z"/>
</g>
<path style="fill:#FBD303;" d="M204.8,239.724c0-14.58-11.868-26.109-26.109-26.109c-6.103,0-11.189-5.086-11.189-11.189  c0-6.103,5.086-11.189,11.189-11.189c3.052,0,6.103,1.356,8.138,3.391c2.713,3.052,7.46,3.052,10.511,0.339  c3.052-2.713,3.052-7.46,0.339-10.511c-3.052-3.391-7.121-5.764-11.528-7.121v-5.086c0-4.069-3.391-7.46-7.46-7.46  c-4.069,0-7.46,3.391-7.46,7.46v5.086c-10.85,3.391-18.649,13.224-18.649,25.091c0,14.58,11.868,26.109,26.109,26.109  c6.103,0,11.189,5.086,11.189,11.189s-5.086,11.189-11.189,11.189c-3.052,0-6.103-1.356-8.138-3.391  c-2.713-3.052-7.46-3.052-10.511-0.339c-3.052,2.713-3.052,7.46-0.339,10.511c3.052,3.391,7.121,5.764,11.528,7.121v5.086  c0,4.069,3.391,7.46,7.46,7.46s7.46-3.391,7.46-7.46v-5.086C197.001,261.764,204.8,251.592,204.8,239.724z"/>
<rect x="223.449" y="164.789" style="fill:#6EB1E1;" width="138.681" height="110.877"/>
<g>
	<rect x="147.158" y="300.079" style="fill:#DEDEDF;" width="214.972" height="12.546"/>
	<rect x="147.158" y="334.326" style="fill:#DEDEDF;" width="214.972" height="12.546"/>
	<rect x="147.158" y="368.572" style="fill:#DEDEDF;" width="214.972" height="12.546"/>
	<rect x="147.158" y="402.819" style="fill:#DEDEDF;" width="151.905" height="12.546"/>
</g>
<g>
</g>
<g>
</g>
<g>
</g>
<g>
</g>
<g>
</g>
<g>
</g>
<g>
</g>
<g>
</g>
<g>
</g>
<g>
</g>
<g>
</g>
<g>
</g>
<g>
</g>
<g>
</g>
<g>
</g>
</svg>
