<?xml version="1.0" encoding="iso-8859-1"?>
<!-- Generator: Adobe Illustrator 19.0.0, SVG Export Plug-In . SVG Version: 6.00 Build 0)  -->
<svg xmlns="http://www.w3.org/2000/svg" xmlns:xlink="http://www.w3.org/1999/xlink" version="1.1" id="Capa_1" x="0px" y="0px" viewBox="0 0 509.287 509.287" style="enable-background:new 0 0 509.287 509.287;" xml:space="preserve">
<circle style="fill:#F0582F;" cx="254.644" cy="254.644" r="254.644"/>
<circle style="fill:#FCFCFD;" cx="254.644" cy="254.644" r="208.869"/>
<g>
	<rect x="243.454" y="54.591" style="fill:#6EB1E1;" width="22.379" height="37.637"/>
	<rect x="51.2" y="243.454" style="fill:#6EB1E1;" width="37.637" height="22.379"/>
	<rect x="420.111" y="243.454" style="fill:#6EB1E1;" width="37.637" height="22.379"/>
</g>
<path style="fill:#4F5565;" d="M324.493,375.354c-4.408,0-8.816-2.034-11.528-6.103l-69.849-107.147  c-2.034-3.052-2.713-7.121-1.695-10.85l38.993-153.6c1.695-7.121,9.155-11.528,16.615-9.833c7.121,1.695,11.529,9.155,9.833,16.615  L269.224,252.27l66.458,102.061c4.069,6.442,2.374,14.58-4.069,18.649C329.579,374.676,326.866,375.354,324.493,375.354z"/>
<rect x="33.907" y="302.792" style="fill:#71D456;" width="441.812" height="206.156"/>
<path style="fill:#FCFCFD;" d="M415.364,490.299H93.923c0-20.005-15.936-35.942-35.942-35.942v-96.636  c20.005,0,35.942-15.936,35.942-35.942h321.102c0,20.005,15.936,35.942,35.942,35.942v96.636  C431.301,454.358,415.364,470.633,415.364,490.299z"/>
<g>
	<ellipse style="fill:#71D456;" cx="254.644" cy="406.209" rx="76.291" ry="69.51"/>
	<ellipse style="fill:#71D456;" cx="112.911" cy="406.209" rx="17.971" ry="16.276"/>
	<ellipse style="fill:#71D456;" cx="396.376" cy="406.209" rx="17.971" ry="16.276"/>
</g>
<path style="fill:#FCFCFD;" d="M285.838,426.215c0-15.597-13.902-28.482-31.195-28.482c-7.46,0-13.224-5.425-13.224-12.207  s6.103-12.207,13.224-12.207c3.73,0,7.121,1.356,9.833,3.73c3.391,3.391,9.155,3.391,12.546,0.339  c3.73-3.052,3.73-8.138,0.339-11.528c-3.73-3.73-8.477-6.442-13.902-7.799v-5.764c0-4.408-4.069-8.138-8.816-8.138  c-5.086,0-8.816,3.73-8.816,8.138v5.764c-12.885,3.391-22.379,14.241-22.379,27.126c0,15.597,13.902,28.482,31.195,28.482  c7.46,0,13.224,5.425,13.224,12.207s-6.103,12.207-13.224,12.207c-3.73,0-7.121-1.356-9.833-3.73  c-3.391-3.391-9.155-3.391-12.546-0.339c-3.73,3.052-3.73,8.138-0.339,11.528c3.73,3.73,8.477,6.442,13.902,7.799v5.764  c0,4.408,4.069,8.138,8.816,8.138c5.086,0,8.816-3.73,8.816-8.138v-5.764C276.344,449.95,285.838,439.099,285.838,426.215z"/>
<circle style="fill:#4F5565;" cx="254.644" cy="254.644" r="35.942"/>
<circle style="fill:#FBD303;" cx="254.644" cy="254.644" r="17.632"/>
<g>
</g>
<g>
</g>
<g>
</g>
<g>
</g>
<g>
</g>
<g>
</g>
<g>
</g>
<g>
</g>
<g>
</g>
<g>
</g>
<g>
</g>
<g>
</g>
<g>
</g>
<g>
</g>
<g>
</g>
</svg>
