<?xml version="1.0" encoding="iso-8859-1"?>
<!-- Generator: Adobe Illustrator 19.0.0, SVG Export Plug-In . SVG Version: 6.00 Build 0)  -->
<svg xmlns="http://www.w3.org/2000/svg" xmlns:xlink="http://www.w3.org/1999/xlink" version="1.1" id="Capa_1" x="0px" y="0px" viewBox="0 0 509.287 509.287" style="enable-background:new 0 0 509.287 509.287;" xml:space="preserve">
<circle style="fill:#FBD303;" cx="254.644" cy="254.644" r="254.644"/>
<path style="fill:#DEDEDF;" d="M360.774,40.35h-212.26c-10.85,0-19.666,8.816-19.666,19.666v388.917  c0,10.85,8.816,19.666,19.666,19.666h212.26c10.85,0,19.666-8.816,19.666-19.666V60.016C380.44,49.166,371.624,40.35,360.774,40.35z  "/>
<path style="fill:#4F5565;" d="M148.514,463.513c-7.799,0-14.241-6.442-14.241-14.241V60.016c0-7.799,6.442-14.241,14.241-14.241  h212.26c7.799,0,14.241,6.442,14.241,14.241v388.917c0,7.799-6.442,14.241-14.241,14.241h-212.26V463.513z"/>
<rect x="146.479" y="89.854" style="fill:#6EB1E1;" width="216.328" height="323.136"/>
<rect x="146.479" y="89.854" style="fill:#9CD9FF;" width="216.328" height="5.425"/>
<rect x="146.479" y="407.566" style="fill:#4F94BF;" width="216.328" height="5.425"/>
<g>
	<polygon style="fill:#333842;" points="231.248,443.507 219.719,443.507 219.719,436.387 221.075,436.387 221.075,442.151    229.891,442.151 229.891,436.387 231.248,436.387  "/>
	<polygon style="fill:#333842;" points="233.282,438.421 225.483,435.03 218.024,438.421 217.346,437.065 225.483,433.335    233.621,437.065  "/>
	<polygon style="fill:#333842;" points="175.64,442.151 173.944,442.151 173.944,435.709 160.381,435.709 160.381,442.151    159.025,442.151 159.025,434.352 175.64,434.352  "/>
	<rect x="163.094" y="437.404" style="fill:#333842;" width="8.138" height="1.356"/>
	<rect x="163.094" y="440.456" style="fill:#333842;" width="8.138" height="1.356"/>
	<path style="fill:#333842;" d="M288.551,443.846h-11.529v-1.356h11.529c1.695,0,2.713-1.356,2.713-2.713   c0-1.695-1.356-2.713-2.713-2.713h-7.121v-1.356h7.121c2.374,0,4.069,1.695,4.069,4.069   C292.959,441.812,290.924,443.846,288.551,443.846z"/>
	<polygon style="fill:#333842;" points="284.482,434.013 277.022,436.048 284.482,438.421  "/>
	<path style="fill:#333842;" d="M343.481,441.473c-1.017,0-2.374-0.339-3.052-1.356c-0.678-0.678-1.356-2.034-1.356-3.052   c0-1.017,0.339-2.374,1.356-3.052c1.695-1.695,4.408-1.695,6.103,0l0,0c1.695,1.695,1.695,4.408,0,6.103   C345.515,441.134,344.498,441.473,343.481,441.473z M343.481,434.352c-0.678,0-1.356,0.339-2.034,1.017s-1.017,1.356-1.017,2.034   c0,0.678,0.339,1.356,1.017,2.034c1.017,1.017,3.052,1.017,4.069,0c1.017-1.017,1.017-3.052,0-4.069   C344.837,434.691,344.159,434.352,343.481,434.352z"/>
	
		<rect x="345.183" y="440.835" transform="matrix(-0.7072 -0.707 0.707 -0.7072 281.4874 999.5994)" style="fill:#333842;" width="5.086" height="1.356"/>
	<path style="fill:#333842;" d="M282.109,62.05H230.23c-3.052,0-5.086,2.374-5.086,5.086c0,3.052,2.373,5.086,5.086,5.086h51.878   c3.052,0,5.086-2.374,5.086-5.086C287.534,64.424,285.16,62.05,282.109,62.05z"/>
	<circle style="fill:#333842;" cx="172.588" cy="67.136" r="5.086"/>
</g>
<rect x="172.249" y="316.694" style="fill:#FCFCFD;" width="164.789" height="59.338"/>
<g>
	<path style="fill:#4B5AA7;" d="M270.58,339.751c0-5.086-4.069-9.155-9.155-9.155h-6.442c-1.356,0-2.713,1.017-2.713,2.713v26.448   c0,1.356,1.017,2.713,2.713,2.713c1.356,0,2.713-1.017,2.713-2.713v-10.511h2.034l5.764,11.528   c0.339,1.017,1.356,1.356,2.374,1.356c0.339,0,0.678,0,1.356-0.339c1.356-0.678,1.695-2.374,1.017-3.391l-5.086-9.833   C268.207,346.532,270.58,343.481,270.58,339.751z M261.425,343.82h-3.73v-7.799h3.73c2.034,0,4.069,1.695,4.069,4.069   S263.46,343.82,261.425,343.82z"/>
	<path style="fill:#4B5AA7;" d="M191.915,343.82L191.915,343.82c-2.034,0-4.069-1.695-4.069-4.069s1.695-4.069,4.069-4.069   c1.017,0,2.034,0.339,2.713,1.356c1.017,1.017,2.713,1.017,3.73,0c1.017-1.017,1.017-2.713,0-3.73   c-1.695-1.695-4.069-3.052-6.781-3.052c-5.086,0-9.155,4.069-9.155,9.155c0,5.086,4.069,9.155,9.155,9.155l0,0   c2.034,0,4.069,1.695,4.069,4.069c0,2.373-1.695,4.069-4.069,4.069c-1.017,0-2.034-0.339-2.713-1.356   c-1.017-1.017-2.713-1.017-3.73,0c-1.017,1.017-1.017,2.713,0,3.73c1.695,1.695,4.069,3.052,6.781,3.052   c5.086,0,9.155-4.069,9.155-9.155S197.001,343.82,191.915,343.82z"/>
	<path style="fill:#4B5AA7;" d="M323.815,330.596c-1.356,0-2.713,1.017-2.713,2.713v10.511h-11.189v-10.511   c0-1.356-1.017-2.713-2.713-2.713c-1.356,0-2.713,1.017-2.713,2.713v26.448c0,1.356,1.017,2.713,2.713,2.713   c1.356,0,2.713-1.017,2.713-2.713v-10.511h11.189v10.511c0,1.356,1.017,2.713,2.713,2.713s2.713-1.017,2.713-2.713v-26.448   C326.527,331.613,325.51,330.596,323.815,330.596z"/>
	<path style="fill:#4B5AA7;" d="M217.346,335.682c1.356,0,2.713-1.017,2.713-2.713c0-1.356-1.017-2.713-2.713-2.713h-10.511   c-1.356,0-2.713,1.017-2.713,2.713v26.448c0,1.356,1.017,2.713,2.713,2.713h10.511c1.356,0,2.713-1.017,2.713-2.713   c0-1.356-1.017-2.713-2.713-2.713h-7.799v-7.799h7.799c1.356,0,2.713-1.017,2.713-2.713c0-1.356-1.017-2.713-2.713-2.713h-7.799   v-7.799L217.346,335.682L217.346,335.682z"/>
	<path style="fill:#4B5AA7;" d="M238.368,332.291c-0.339-1.017-1.356-1.695-2.374-1.695c-1.017,0-2.034,0.678-2.373,1.695   l-9.833,25.77c-0.678,1.356,0,2.713,1.356,3.391c0.339,0,0.678,0.339,1.017,0.339c1.017,0,2.034-0.678,2.374-1.695l2.373-6.103   h10.172l2.373,6.103c0.678,1.356,2.034,2.034,3.391,1.356s2.034-2.034,1.356-3.391L238.368,332.291z M232.604,348.906l3.052-8.138   l3.052,8.138H232.604z"/>
	<path style="fill:#4B5AA7;" d="M288.551,330.935c-8.477,0-15.597,6.781-15.597,15.597c0,8.477,6.781,15.597,15.597,15.597   c4.408,0,8.477-1.695,11.528-5.086c1.017-1.017,1.017-2.713,0-3.73c-1.017-1.017-2.713-1.017-3.73,0   c-2.034,2.034-4.747,3.391-7.46,3.391c-5.764,0-10.172-4.408-10.172-10.172s4.408-10.172,10.172-10.172   c3.391,0,6.103,1.356,8.138,4.069c1.017,1.017,2.374,1.356,3.73,0.678c1.017-1.017,1.356-2.373,0.678-3.73   C298.045,333.309,293.298,330.935,288.551,330.935z"/>
</g>
<path style="fill:#FCFCFD;" d="M299.062,238.707c0-24.413-20.005-44.419-44.419-44.419c-10.511,0-18.988-8.477-18.988-18.988  c0-10.511,8.477-18.988,18.988-18.988c5.425,0,10.172,2.034,13.902,6.103c4.747,5.086,12.885,5.425,17.971,0.678  c5.086-4.747,5.425-12.885,0.678-17.971c-5.425-5.764-12.207-9.833-19.666-12.207v-8.816c0-7.121-5.764-12.885-12.885-12.885  s-12.885,5.764-12.885,12.885v8.816c-18.31,5.425-31.873,22.379-31.873,42.723c0,24.413,20.005,44.419,44.419,44.419  c10.511,0,18.988,8.477,18.988,18.988c0,10.511-8.477,18.988-18.988,18.988c-5.425,0-10.172-2.034-13.902-6.103  c-4.747-5.086-12.885-5.425-17.971-0.678s-5.425,12.885-0.678,17.971c5.425,5.764,12.207,9.833,19.666,12.207v8.816  c0,7.121,5.764,12.885,12.885,12.885c7.121,0,12.885-5.764,12.885-12.885v-8.816C285.838,276.005,299.062,258.713,299.062,238.707z"/>
<g>
</g>
<g>
</g>
<g>
</g>
<g>
</g>
<g>
</g>
<g>
</g>
<g>
</g>
<g>
</g>
<g>
</g>
<g>
</g>
<g>
</g>
<g>
</g>
<g>
</g>
<g>
</g>
<g>
</g>
</svg>
