<?xml version="1.0" encoding="iso-8859-1"?>
<!-- Generator: Adobe Illustrator 19.0.0, SVG Export Plug-In . SVG Version: 6.00 Build 0)  -->
<svg xmlns="http://www.w3.org/2000/svg" xmlns:xlink="http://www.w3.org/1999/xlink" version="1.1" id="Capa_1" x="0px" y="0px" viewBox="0 0 509.287 509.287" style="enable-background:new 0 0 509.287 509.287;" xml:space="preserve">
<circle style="fill:#71D456;" cx="254.644" cy="254.644" r="254.644"/>
<polygon style="fill:#FCFCFD;" points="389.256,187.168 87.481,187.168 120.032,65.78 421.807,65.78 "/>
<polygon style="fill:#F1F3F7;" points="413.669,307.878 111.555,307.878 87.481,186.151 389.256,186.151 "/>
<g>
	<polygon style="fill:#DEDEDF;" points="357.383,223.11 133.934,223.11 131.56,210.564 354.67,210.564  "/>
	<polygon style="fill:#DEDEDF;" points="363.147,252.948 140.037,252.948 137.664,240.403 360.774,240.403  "/>
	<polygon style="fill:#DEDEDF;" points="369.25,282.448 146.14,282.448 143.428,269.902 366.538,269.902  "/>
</g>
<polygon style="fill:#FCFCFD;" points="103.417,443.507 123.423,426.893 136.985,443.507 156.991,426.893 170.893,443.507   190.898,426.893 204.461,443.507 224.466,426.893 238.368,443.507 258.034,426.893 271.936,443.507 291.942,426.893   305.844,443.507 325.51,426.893 339.412,443.507 359.417,426.893 373.319,443.507 391.968,427.571 413.669,307.878 111.555,307.878   90.193,427.571 "/>
<g>
	<polygon style="fill:#DEDEDF;" points="368.233,340.768 145.123,340.768 147.497,328.223 370.607,328.223  "/>
	<polygon style="fill:#DEDEDF;" points="363.147,370.607 139.698,370.607 142.072,358.061 365.181,358.061  "/>
	<polygon style="fill:#DEDEDF;" points="243.115,400.445 134.612,400.445 136.646,387.899 245.489,387.899  "/>
</g>
<g>
	<polygon style="fill:#F1F3F7;" points="372.641,103.078 214.633,103.078 218.024,90.532 376.032,90.532  "/>
	<polygon style="fill:#F1F3F7;" points="364.503,132.917 206.834,132.917 210.225,120.371 367.894,120.371  "/>
	<polygon style="fill:#F1F3F7;" points="356.705,162.416 198.697,162.416 202.087,149.87 360.095,149.87  "/>
</g>
<path style="fill:#FBD303;" d="M168.519,139.359c2.713-10.172-3.391-18.31-13.224-18.31c-4.408,0-6.781-3.391-5.764-7.799  c1.017-4.408,5.425-7.799,9.833-7.799c2.034,0,4.069,1.017,5.086,2.374c1.356,2.034,4.747,2.034,7.121,0.339  c2.713-2.034,3.73-5.086,2.034-7.46c-1.695-2.374-4.069-4.069-6.781-5.086l1.017-3.73c0.678-2.713-1.017-5.086-3.73-5.086  s-5.764,2.374-6.442,5.086l-1.017,3.73c-8.138,2.374-15.258,9.155-17.632,17.293c-2.713,10.172,3.391,18.31,13.224,18.31  c4.408,0,6.781,3.391,5.764,7.799c-1.017,4.408-5.425,7.799-9.833,7.799c-2.034,0-4.069-1.017-5.086-2.374  c-1.356-2.034-4.747-2.034-7.121-0.339c-2.713,2.034-3.73,5.086-2.034,7.46c1.695,2.374,4.069,4.069,6.781,5.086l-1.017,3.73  c-0.678,2.713,1.017,5.086,3.73,5.086c2.713,0,5.764-2.374,6.442-5.086l1.017-3.73C159.025,154.617,166.485,147.497,168.519,139.359  z"/>
<g>
</g>
<g>
</g>
<g>
</g>
<g>
</g>
<g>
</g>
<g>
</g>
<g>
</g>
<g>
</g>
<g>
</g>
<g>
</g>
<g>
</g>
<g>
</g>
<g>
</g>
<g>
</g>
<g>
</g>
</svg>
