<?xml version="1.0" encoding="iso-8859-1"?>
<!-- Generator: Adobe Illustrator 19.0.0, SVG Export Plug-In . SVG Version: 6.00 Build 0)  -->
<svg xmlns="http://www.w3.org/2000/svg" xmlns:xlink="http://www.w3.org/1999/xlink" version="1.1" id="Capa_1" x="0px" y="0px" viewBox="0 0 509.287 509.287" style="enable-background:new 0 0 509.287 509.287;" xml:space="preserve">
<circle style="fill:#6EB1E1;" cx="254.644" cy="254.644" r="254.644"/>
<circle style="fill:#FBD303;" cx="312.286" cy="197.001" r="155.295"/>
<path style="fill:#FCFCFD;" d="M375.693,242.437c0-34.924-28.482-63.407-63.407-63.407c-14.919,0-27.126-12.207-27.126-27.126  s12.207-27.126,27.126-27.126c7.46,0,14.58,3.052,19.666,8.477c6.781,7.46,18.31,7.799,25.77,0.678  c7.46-6.781,7.799-18.31,0.678-25.77c-7.799-8.138-17.632-14.241-28.143-17.293V78.326c0-10.172-8.138-18.31-18.31-18.31  s-18.31,8.138-18.31,18.31v12.546c-26.109,7.799-45.436,32.212-45.436,60.694c0,34.924,28.482,63.407,63.407,63.407  c14.919,0,27.126,12.207,27.126,27.126s-12.207,27.126-27.126,27.126c-7.46,0-14.58-3.052-19.666-8.477  c-6.781-7.46-18.31-7.799-25.77-0.678c-7.46,6.781-7.799,18.31-0.678,25.77c7.799,8.138,17.632,14.241,28.143,17.293v12.546  c0,10.172,8.138,18.31,18.31,18.31s18.31-8.138,18.31-18.31v-12.546C356.705,295.332,375.693,271.258,375.693,242.437z"/>
<path style="fill:#F0582F;" d="M257.017,382.135c-14.241,24.074-60.694,12.885-101.722-28.143s-52.217-87.481-28.143-101.722  l6.442-3.73c9.833-5.764,13.563-18.31,7.799-26.448l-67.815-94.601c-6.442-9.155-21.023-7.46-28.482,3.052l-16.615,23.396  c-34.246,48.148,8.138,151.905,91.55,235.317l0,0c83.412,83.412,187.168,125.457,235.317,91.55l23.396-16.615  c10.511-7.46,12.207-22.04,3.052-28.482l-94.601-67.475c-8.138-5.764-20.683-2.034-26.448,7.799L257.017,382.135z"/>
<g>
</g>
<g>
</g>
<g>
</g>
<g>
</g>
<g>
</g>
<g>
</g>
<g>
</g>
<g>
</g>
<g>
</g>
<g>
</g>
<g>
</g>
<g>
</g>
<g>
</g>
<g>
</g>
<g>
</g>
</svg>
