<?xml version="1.0" encoding="iso-8859-1"?>
<!-- Generator: Adobe Illustrator 19.0.0, SVG Export Plug-In . SVG Version: 6.00 Build 0)  -->
<svg xmlns="http://www.w3.org/2000/svg" xmlns:xlink="http://www.w3.org/1999/xlink" version="1.1" id="Capa_1" x="0px" y="0px" viewBox="0 0 509.287 509.287" style="enable-background:new 0 0 509.287 509.287;" xml:space="preserve">
<circle style="fill:#6EB1E1;" cx="254.644" cy="254.644" r="254.644"/>
<g>
	<path style="fill:#4F5565;" d="M345.176,16.615C317.033,5.764,286.517,0,254.644,0s-62.389,5.764-90.532,16.615v17.293h180.726   V16.615H345.176z"/>
	<path style="fill:#4F5565;" d="M164.111,492.673c28.143,10.85,58.66,16.615,90.532,16.615s62.389-5.764,90.532-16.615V475.38   H164.111V492.673z"/>
	<path style="fill:#4F5565;" d="M438.76,254.644c0-56.286-25.43-106.808-65.102-140.376c-18.31-15.597-28.482-38.654-28.482-62.728   l0,0H164.111l0,0c0,24.074-10.172,47.131-28.482,62.728c-40.011,33.568-65.102,84.09-65.102,140.376s25.43,106.808,65.102,140.376   c18.31,15.597,28.482,38.654,28.482,62.728l0,0h180.726l0,0c0-24.074,10.172-47.131,28.482-62.728   C413.669,361.452,438.76,310.93,438.76,254.644z"/>
</g>
<circle style="fill:#FCFCFD;" cx="254.644" cy="254.644" r="151.226"/>
<path style="fill:#FBD303;" d="M308.556,292.959c0-29.838-24.074-53.913-53.913-53.913c-12.546,0-23.057-10.172-23.057-23.057  c0-12.546,10.172-23.057,23.057-23.057c6.442,0,12.546,2.713,16.615,7.121c5.764,6.103,15.597,6.442,21.701,0.678  c6.103-5.764,6.442-15.597,0.678-21.701c-6.442-6.781-14.919-11.868-23.735-14.58V153.6c0-8.477-6.781-15.258-15.258-15.258  c-8.477,0-15.258,6.781-15.258,15.258v11.189c-22.04,6.781-38.315,27.126-38.315,51.539c0,29.838,24.074,53.913,53.913,53.913  c12.546,0,23.057,10.172,23.057,23.057c0,12.546-10.172,23.057-23.057,23.057c-6.442,0-12.546-2.713-16.615-7.121  c-5.764-6.103-15.597-6.442-21.701-0.678c-6.103,5.764-6.442,15.597-0.678,21.701c6.442,6.781,14.919,11.868,23.735,14.58v10.85  c0,8.477,6.781,15.258,15.258,15.258s15.258-6.781,15.258-15.258v-11.189C292.281,338.056,308.556,317.372,308.556,292.959z"/>
<g>
</g>
<g>
</g>
<g>
</g>
<g>
</g>
<g>
</g>
<g>
</g>
<g>
</g>
<g>
</g>
<g>
</g>
<g>
</g>
<g>
</g>
<g>
</g>
<g>
</g>
<g>
</g>
<g>
</g>
</svg>
