<?xml version="1.0" encoding="iso-8859-1"?>
<!-- Generator: Adobe Illustrator 19.0.0, SVG Export Plug-In . SVG Version: 6.00 Build 0)  -->
<svg xmlns="http://www.w3.org/2000/svg" xmlns:xlink="http://www.w3.org/1999/xlink" version="1.1" id="Capa_1" x="0px" y="0px" viewBox="0 0 509.287 509.287" style="enable-background:new 0 0 509.287 509.287;" xml:space="preserve">
<circle style="fill:#71D456;" cx="254.644" cy="254.644" r="254.644"/>
<polygon style="fill:#F1F3F7;" points="254.644,300.079 183.099,291.942 254.644,509.287 326.188,291.942 "/>
<polygon style="fill:#D54232;" points="254.644,300.079 221.754,326.527 241.081,360.095 268.207,360.095 287.534,326.527 "/>
<polygon style="fill:#F0582F;" points="268.207,360.095 241.081,360.095 218.702,474.702 254.644,509.287 290.585,474.702 "/>
<ellipse style="fill:#FBD303;" cx="254.644" cy="149.87" rx="116.302" ry="119.354"/>
<ellipse style="fill:#F8B517;" cx="254.644" cy="149.87" rx="103.417" ry="106.13"/>
<ellipse style="fill:#F5EA0A;" cx="254.644" cy="149.87" rx="87.481" ry="89.854"/>
<path style="fill:#646B79;" d="M27.804,353.992L25.43,365.86c41.367,84.768,128.17,143.428,229.213,143.428l-71.544-217.007  L27.804,353.992z"/>
<polygon style="fill:#FCFCFD;" points="207.852,258.713 183.099,291.942 219.719,353.992 254.644,300.079 "/>
<path style="fill:#4F5565;" d="M156.313,302.792l-36.281,75.613l36.62,15.258l-23.396,40.689l73.24,70.527  c15.597,3.052,31.534,4.408,47.809,4.408L182.76,292.281L156.313,302.792z"/>
<path style="fill:#646B79;" d="M483.857,365.86l-2.374-11.868l-155.295-62.05l-71.544,217.007  C355.348,509.287,442.49,450.628,483.857,365.86z"/>
<polygon style="fill:#FCFCFD;" points="301.436,258.713 326.188,291.942 289.568,353.992 254.644,300.079 "/>
<path style="fill:#4F5565;" d="M376.032,434.013l-23.396-40.689l36.62-15.258l-36.281-75.613l-26.448-10.511l-71.544,217.007  c16.275,0,32.551-1.695,47.809-4.408L376.032,434.013z"/>
<path style="fill:#FCFCFD;" d="M291.603,176.318c0-20.344-16.615-36.959-36.959-36.959c-8.816,0-15.936-7.121-15.936-15.936  s7.121-15.936,15.936-15.936c4.408,0,8.477,1.695,11.528,5.086c4.069,4.408,10.85,4.408,14.919,0.339  c4.408-4.069,4.408-10.85,0.339-14.919c-4.408-4.747-10.172-8.138-16.275-10.172v-7.46c0-5.764-4.747-10.511-10.511-10.511  c-5.764,0-10.511,4.747-10.511,10.511v7.46c-15.258,4.408-26.448,18.649-26.448,35.264c0,20.344,16.615,36.959,36.959,36.959  c8.816,0,15.936,7.121,15.936,15.936c0,8.816-7.121,15.936-15.936,15.936c-4.408,0-8.477-1.695-11.528-5.086  c-4.069-4.408-10.85-4.408-14.919-0.339c-4.408,4.069-4.408,10.85-0.339,14.919c4.408,4.747,10.172,8.138,16.275,10.172v7.46  c0,5.764,4.747,10.511,10.511,10.511c5.764,0,10.511-4.747,10.511-10.511v-7.46C280.413,207.174,291.603,192.932,291.603,176.318z"/>
<g>
</g>
<g>
</g>
<g>
</g>
<g>
</g>
<g>
</g>
<g>
</g>
<g>
</g>
<g>
</g>
<g>
</g>
<g>
</g>
<g>
</g>
<g>
</g>
<g>
</g>
<g>
</g>
<g>
</g>
</svg>
