<?xml version="1.0" encoding="iso-8859-1"?>
<!-- Generator: Adobe Illustrator 19.0.0, SVG Export Plug-In . SVG Version: 6.00 Build 0)  -->
<svg xmlns="http://www.w3.org/2000/svg" xmlns:xlink="http://www.w3.org/1999/xlink" version="1.1" id="Capa_1" x="0px" y="0px" viewBox="0 0 509.287 509.287" style="enable-background:new 0 0 509.287 509.287;" xml:space="preserve">
<circle style="fill:#886C60;" cx="254.644" cy="254.644" r="254.644"/>
<path style="fill:#FFE8D2;" d="M263.121,508.948c66.119-2.034,125.796-29.499,169.876-72.901  c-13.563-17.971-24.752-36.281-29.838-52.217c-16.615-53.913-10.172-64.424-10.172-64.424s11.528-3.73,17.971-32.212  c6.781-28.482,44.419-140.376-13.902-208.869C338.734,10.172,247.862-14.919,94.262,93.584c0,0-32.551,21.701,10.85,27.465  c0,0-24.752,58.999-6.103,92.906c0,0,5.764,10.85,6.103,16.954c0.678,6.103-35.603,74.935-31.534,80.021  s33.229,11.868,36.281,16.615c3.052,4.747-2.034,22.379-2.034,22.379s1.695,6.103,13.902,10.85c0,0-9.155,9.155-5.086,17.971  c4.069,8.816,12.546,4.747,15.597,19.666c3.052,14.919-2.713,40.689,33.229,35.603c35.603-5.086,54.93-11.868,62.389-4.747  C234.299,436.387,269.902,465.208,263.121,508.948z"/>
<path style="fill:#F0582F;" d="M306.522,262.442c0-29.838-24.413-54.252-54.252-54.252c-12.885,0-23.057-10.511-23.057-23.057  c0-12.885,10.511-23.057,23.057-23.057c6.442,0,12.546,2.713,16.954,7.46c5.764,6.103,15.597,6.442,22.04,0.678  c6.103-5.764,6.442-15.597,0.678-22.04c-6.442-7.121-14.919-11.868-24.074-14.58v-10.85c0-8.477-6.781-15.597-15.597-15.597  c-8.477,0-15.597,6.781-15.597,15.597v10.85c-22.379,6.781-38.654,27.465-38.654,51.878c0,29.838,24.413,54.252,54.252,54.252  c12.885,0,23.057,10.511,23.057,23.057c0,12.885-10.511,23.057-23.057,23.057c-6.442,0-12.546-2.713-16.954-7.46  c-5.764-6.103-15.597-6.442-22.04-0.678c-6.103,5.764-6.442,15.597-0.678,22.04c6.442,7.121,14.919,11.868,24.074,14.58v10.85  c0,8.477,6.781,15.597,15.597,15.597c8.477,0,15.597-6.781,15.597-15.597v-10.85C290.246,307.539,306.522,286.856,306.522,262.442z"/>
<g>
</g>
<g>
</g>
<g>
</g>
<g>
</g>
<g>
</g>
<g>
</g>
<g>
</g>
<g>
</g>
<g>
</g>
<g>
</g>
<g>
</g>
<g>
</g>
<g>
</g>
<g>
</g>
<g>
</g>
</svg>
