<?xml version="1.0" encoding="iso-8859-1"?>
<!-- Generator: Adobe Illustrator 19.0.0, SVG Export Plug-In . SVG Version: 6.00 Build 0)  -->
<svg xmlns="http://www.w3.org/2000/svg" xmlns:xlink="http://www.w3.org/1999/xlink" version="1.1" id="Capa_1" x="0px" y="0px" viewBox="0 0 509.287 509.287" style="enable-background:new 0 0 509.287 509.287;" xml:space="preserve">
<circle style="fill:#4F5565;" cx="254.644" cy="254.644" r="254.644"/>
<path style="fill:#F1F3F7;" d="M388.917,62.728H120.371c-31.534,0-57.303,25.77-57.303,57.303v268.546  c0,31.534,25.77,57.303,57.303,57.303h268.546c31.534,0,57.303-25.77,57.303-57.303V120.371  C446.559,88.498,420.789,62.728,388.917,62.728z M120.371,87.481h268.546c17.971,0,32.89,14.58,32.89,32.89v32.89H87.481v-32.89  C87.481,102.061,102.061,87.481,120.371,87.481z M87.481,242.437v-64.424h334.326v64.424H87.481z M421.807,266.85v64.424H87.481  V266.85H421.807z M388.917,421.807H120.371c-17.971,0-32.89-14.58-32.89-32.89v-32.89h334.326v32.89  C421.807,407.226,407.226,421.807,388.917,421.807z"/>
<g>
	<circle style="fill:#FBD303;" cx="141.054" cy="165.468" r="35.603"/>
	<circle style="fill:#FBD303;" cx="224.127" cy="165.468" r="35.603"/>
</g>
<g>
	<circle style="fill:#F0582F;" cx="141.054" cy="254.644" r="35.603"/>
	<circle style="fill:#F0582F;" cx="224.127" cy="254.644" r="35.603"/>
	<circle style="fill:#F0582F;" cx="304.487" cy="254.644" r="35.603"/>
</g>
<circle style="fill:#6EB1E1;" cx="370.946" cy="343.82" r="35.603"/>
<g>
</g>
<g>
</g>
<g>
</g>
<g>
</g>
<g>
</g>
<g>
</g>
<g>
</g>
<g>
</g>
<g>
</g>
<g>
</g>
<g>
</g>
<g>
</g>
<g>
</g>
<g>
</g>
<g>
</g>
</svg>
