<?xml version="1.0" encoding="iso-8859-1"?>
<!-- Generator: Adobe Illustrator 19.0.0, SVG Export Plug-In . SVG Version: 6.00 Build 0)  -->
<svg xmlns="http://www.w3.org/2000/svg" xmlns:xlink="http://www.w3.org/1999/xlink" version="1.1" id="Capa_1" x="0px" y="0px" viewBox="0 0 509.287 509.287" style="enable-background:new 0 0 509.287 509.287;" xml:space="preserve">
<circle style="fill:#FBD303;" cx="254.644" cy="254.644" r="254.644"/>
<polygon style="fill:#F1F3F7;" points="329.918,58.66 106.469,58.66 106.469,450.628 406.209,450.628 406.209,134.612 "/>
<polygon style="fill:#DEDEDF;" points="329.918,134.612 406.209,134.612 329.918,58.66 "/>
<rect x="319.997" y="318.733" transform="matrix(-0.7071 0.7071 -0.7071 -0.7071 796.4156 330.9764)" style="fill:#646B79;" width="19.327" height="23.396"/>
<circle style="fill:#4F5565;" cx="256.678" cy="257.695" r="95.958"/>
<circle style="fill:#F1F3F7;" cx="256.678" cy="257.695" r="74.935"/>
<circle style="fill:#4485C5;" cx="256.678" cy="257.695" r="66.797"/>
<g>
	<path style="fill:#393D47;" d="M352.297,324.154c-1.695-1.695-4.408-1.695-6.103,0l-22.718,22.718   c-1.695,1.695-1.695,4.408,0,6.103l2.034,2.034l28.821-28.821L352.297,324.154z"/>
	<path style="fill:#393D47;" d="M386.543,416.042c1.695,1.695,4.408,1.695,6.103,0l22.718-22.718c1.695-1.695,1.695-4.408,0-6.103   l-2.034-2.034l-28.821,28.821L386.543,416.042z"/>
</g>
<rect x="327.771" y="349.998" transform="matrix(0.7071 0.7071 -0.7071 0.7071 370.0387 -152.6691)" style="fill:#F0582F;" width="83.072" height="40.688"/>
<path style="fill:#FCFCFD;" d="M283.465,276.683c0-14.919-12.207-26.787-26.787-26.787c-6.442,0-11.528-5.086-11.528-11.528  c0-6.442,5.086-11.528,11.528-11.528c3.052,0,6.103,1.356,8.477,3.73c3.052,3.052,7.799,3.391,10.85,0.339  c3.052-3.052,3.391-7.799,0.339-10.85c-3.391-3.391-7.46-6.103-11.868-7.46v-5.425c0-4.408-3.391-7.799-7.799-7.799  c-4.408,0-7.799,3.391-7.799,7.799v5.425c-11.189,3.391-19.327,13.563-19.327,25.77c0,14.919,12.207,26.787,26.787,26.787  c6.442,0,11.528,5.086,11.528,11.528s-5.086,11.528-11.528,11.528c-3.052,0-6.103-1.356-8.477-3.73  c-3.052-3.052-7.799-3.391-10.85-0.339c-3.052,3.052-3.391,7.799-0.339,10.85c3.391,3.391,7.46,6.103,11.868,7.46v5.425  c0,4.408,3.391,7.799,7.799,7.799c4.408,0,7.799-3.391,7.799-7.799v-5.425C275.327,299.062,283.465,288.89,283.465,276.683z"/>
<g>
</g>
<g>
</g>
<g>
</g>
<g>
</g>
<g>
</g>
<g>
</g>
<g>
</g>
<g>
</g>
<g>
</g>
<g>
</g>
<g>
</g>
<g>
</g>
<g>
</g>
<g>
</g>
<g>
</g>
</svg>
