<?xml version="1.0" encoding="iso-8859-1"?>
<!-- Generator: Adobe Illustrator 19.0.0, SVG Export Plug-In . SVG Version: 6.00 Build 0)  -->
<svg xmlns="http://www.w3.org/2000/svg" xmlns:xlink="http://www.w3.org/1999/xlink" version="1.1" id="Capa_1" x="0px" y="0px" viewBox="0 0 509.287 509.287" style="enable-background:new 0 0 509.287 509.287;" xml:space="preserve">
<circle style="fill:#4F5565;" cx="254.644" cy="254.644" r="254.644"/>
<path style="fill:#FCFCFD;" d="M327.544,306.522c0-40.35-32.551-72.901-72.901-72.901c-17.293,0-31.195-13.902-31.195-31.195  s13.902-31.195,31.195-31.195c8.816,0,16.615,3.391,22.718,9.833c7.799,8.477,21.023,8.816,29.499,1.017s8.816-21.023,1.017-29.499  c-8.816-9.494-20.005-16.275-32.212-19.666v-14.58c0-11.528-9.494-20.683-20.683-20.683c-11.528,0-20.683,9.494-20.683,20.683v14.58  c-30.517,8.816-52.556,36.62-52.556,69.849c0,40.35,32.551,72.901,72.901,72.901c17.293,0,31.195,13.902,31.195,31.195  s-13.902,31.195-31.195,31.195c-8.816,0-16.615-3.391-22.718-9.833c-7.799-8.477-21.023-8.816-29.499-1.017  c-8.477,7.799-8.816,21.023-1.017,29.499c8.816,9.494,20.005,16.276,32.212,19.666v14.58c0,11.528,9.494,20.683,20.683,20.683  c11.528,0,20.683-9.494,20.683-20.683v-14.58C305.505,367.555,327.544,339.751,327.544,306.522z"/>
<path style="fill:#F0582F;" d="M254.644,432.318c-63.407,0-119.354-33.568-150.548-83.751l40.011-23.396L47.47,300.079  l-25.091,96.636l37.298-22.04c40.35,65.441,112.572,108.842,194.967,108.842c126.474,0,228.874-102.4,228.874-228.874h-51.539  C432.318,352.636,352.636,432.318,254.644,432.318z"/>
<path style="fill:#6EB1E1;" d="M254.644,76.97c63.407,0,119.354,33.568,150.548,83.751l-40.011,23.396l96.636,25.091l25.091-96.636  l-37.298,22.04C409.261,69.171,337.038,25.77,254.644,25.77C128.17,25.77,25.77,128.17,25.77,254.644h51.539  C76.97,156.652,156.652,76.97,254.644,76.97z"/>
<g>
</g>
<g>
</g>
<g>
</g>
<g>
</g>
<g>
</g>
<g>
</g>
<g>
</g>
<g>
</g>
<g>
</g>
<g>
</g>
<g>
</g>
<g>
</g>
<g>
</g>
<g>
</g>
<g>
</g>
</svg>
